<svg xmlns="http://www.w3.org/2000/svg" viewBox="0 0 1280 720" role="img" aria-label="Aurora virtual background">
  <defs>
    <linearGradient id="night" x1="0" x2="1" y1="0" y2="1">
      <stop offset="0" stop-color="#111827"/>
      <stop offset=".5" stop-color="#312e81"/>
      <stop offset="1" stop-color="#0f172a"/>
    </linearGradient>
    <linearGradient id="light" x1="0" x2="1" y1="0" y2="0">
      <stop offset="0" stop-color="#22d3ee" stop-opacity=".1"/>
      <stop offset=".45" stop-color="#a78bfa" stop-opacity=".7"/>
      <stop offset="1" stop-color="#34d399" stop-opacity=".12"/>
    </linearGradient>
  </defs>
  <rect width="1280" height="720" fill="url(#night)"/>
  <path fill="url(#light)" d="M0 180c180 100 330 80 500 28 180-56 330-60 500 28 110 58 190 70 280 44v210c-180 34-300-30-450-90-180-72-330-76-520-14-120 38-210 36-310-20z"/>
  <path fill="#020617" fill-opacity=".72" d="M0 560 180 390l140 120 180-210 220 250 130-160 190 170 240-220v380H0z"/>
</svg>
