<?xml version="1.0" encoding="UTF-8" standalone="no"?>
<!DOCTYPE svg PUBLIC "-//W3C//DTD SVG 1.1//EN"
 "http://www.w3.org/Graphics/SVG/1.1/DTD/svg11.dtd">
<!-- Generated by graphviz version 16.1.0 (0)
 -->
<!-- Title: dependencies Pages: 1 -->
<svg width="1175pt" height="975pt"
 viewBox="0.00 0.00 1175.00 975.00" xmlns="http://www.w3.org/2000/svg" xmlns:xlink="http://www.w3.org/1999/xlink">
<defs><filter id="nodeShadow" x="-30%" y="-30%" width="170%" height="170%"><feDropShadow dx="2.5" dy="3" stdDeviation="2.4" flood-color="#0b1622" flood-opacity="0.26"/></filter></defs><g id="graph0" class="graph" transform="scale(1 1) rotate(0) translate(24.48 950.14)">
<title>dependencies</title>
<polygon fill="#eea0b7" stroke="none" points="13,-136 13,-156.4 52,-156.4 52,-136 13,-136"/>
<polygon fill="none" stroke="#b33a6a" points="13,-136 13,-156.4 52,-156.4 52,-136 13,-136"/>
<text xml:space="preserve" text-anchor="start" x="60" y="-141.4" font-family="Helvetica,sans-Serif" font-size="12.00" fill="#8b949e">entrypoint · nothing in the workspace depends on it</text>
<polygon fill="#d7c2fd" stroke="none" points="13,-110.6 13,-131 52,-131 52,-110.6 13,-110.6"/>
<polygon fill="none" stroke="#7f65bd" points="13,-110.6 13,-131 52,-131 52,-110.6 13,-110.6"/>
<text xml:space="preserve" text-anchor="start" x="60" y="-116" font-family="Helvetica,sans-Serif" font-size="12.00" fill="#8b949e">library · depended on, and depending</text>
<polygon fill="#c0efba" stroke="none" points="13,-85.2 13,-105.6 52,-105.6 52,-85.2 13,-85.2"/>
<polygon fill="none" stroke="#4d994c" points="13,-85.2 13,-105.6 52,-105.6 52,-85.2 13,-85.2"/>
<text xml:space="preserve" text-anchor="start" x="60" y="-90.6" font-family="Helvetica,sans-Serif" font-size="12.00" fill="#8b949e">foundation · reaches no sibling at runtime</text>
<polygon fill="none" stroke="#8b949e" stroke-dasharray="5,2" points="13,-59.8 13,-80.2 52,-80.2 52,-59.8 13,-59.8"/>
<polygon fill="#eea0b7" stroke="none" stroke-dasharray="5,2" points="14,-60.8 14,-79.2 26.33,-79.2 26.33,-60.8 14,-60.8"/>
<polygon fill="#d7c2fd" stroke="none" stroke-dasharray="5,2" points="26.33,-60.8 26.33,-79.2 38.67,-79.2 38.67,-60.8 26.33,-60.8"/>
<polygon fill="#c0efba" stroke="none" stroke-dasharray="5,2" points="38.67,-60.8 38.67,-79.2 51,-79.2 51,-60.8 38.67,-60.8"/>
<text xml:space="preserve" text-anchor="start" x="60" y="-65.2" font-family="Helvetica,sans-Serif" font-size="12.00" fill="#8b949e">dashed outline · private, never published</text>
<polygon fill="#207372" stroke="none" stroke-dasharray="5,2" points="19,-40.4 19,-48.8 46,-48.8 46,-40.4 19,-40.4"/>
<text xml:space="preserve" text-anchor="start" x="60" y="-39.8" font-family="Helvetica,sans-Serif" font-size="12.00" fill="#8b949e">runtime dependency</text>
<polygon fill="#8b949e" stroke="none" stroke-dasharray="5,2" points="19,-15 19,-23.4 26,-23.4 26,-15 19,-15"/>
<polygon fill="#8b949e" stroke="none" stroke-dasharray="5,2" points="29,-15 29,-23.4 36,-23.4 36,-15 29,-15"/>
<polygon fill="#8b949e" stroke="none" stroke-dasharray="5,2" points="39,-15 39,-23.4 46,-23.4 46,-15 39,-15"/>
<text xml:space="preserve" text-anchor="start" x="60" y="-14.4" font-family="Helvetica,sans-Serif" font-size="12.00" fill="#8b949e">development&#45;only dependency</text>
<g id="clust1" class="cluster">
<title>cluster_apps</title>
<path fill="none" stroke="#8b949e" stroke-width="2" d="M20,-429.66C20,-429.66 124.35,-429.66 124.35,-429.66 130.35,-429.66 136.35,-435.66 136.35,-441.66 136.35,-441.66 136.35,-636.66 136.35,-636.66 136.35,-642.66 130.35,-648.66 124.35,-648.66 124.35,-648.66 20,-648.66 20,-648.66 14,-648.66 8,-642.66 8,-636.66 8,-636.66 8,-441.66 8,-441.66 8,-435.66 14,-429.66 20,-429.66"/>
<text xml:space="preserve" text-anchor="middle" x="33.35" y="-630.26" font-family="Helvetica,sans-Serif" font-size="16.00" fill="#8b949e">apps</text>
</g>
<g id="clust2" class="cluster">
<title>cluster_packages</title>
<path fill="none" stroke="#8b949e" stroke-width="2" d="M178.35,-360.66C178.35,-360.66 1106.25,-360.66 1106.25,-360.66 1112.25,-360.66 1118.25,-366.66 1118.25,-372.66 1118.25,-372.66 1118.25,-905.66 1118.25,-905.66 1118.25,-911.66 1112.25,-917.66 1106.25,-917.66 1106.25,-917.66 178.35,-917.66 178.35,-917.66 172.35,-917.66 166.35,-911.66 166.35,-905.66 166.35,-905.66 166.35,-372.66 166.35,-372.66 166.35,-366.66 172.35,-360.66 178.35,-360.66"/>
<text xml:space="preserve" text-anchor="middle" x="208.6" y="-899.26" font-family="Helvetica,sans-Serif" font-size="16.00" fill="#8b949e">packages</text>
</g>
<!-- functions -->
<g id="node1" class="node">
<title>functions</title>
<defs>
<linearGradient id="node1_l_0" gradientUnits="userSpaceOnUse" x1="72.18" y1="-483.66" x2="72.18" y2="-447.66" >
<stop offset="0" style="stop-color:#eac2cc;stop-opacity:1.;"/>
<stop offset="1" style="stop-color:#eea0b7;stop-opacity:1.;"/>
</linearGradient>
</defs>
<polygon filter="url(#nodeShadow)" fill="url(#node1_l_0)" stroke="#b33a6a" stroke-width="1.6" stroke-dasharray="5,2" points="118.35,-483.66 30,-483.66 26,-479.66 26,-447.66 114.35,-447.66 118.35,-451.66 118.35,-483.66"/>
<polyline fill="none" stroke="#b33a6a" stroke-width="1.6" stroke-dasharray="5,2" points="114.35,-479.66 26,-479.66"/>
<polyline fill="none" stroke="#b33a6a" stroke-width="1.6" stroke-dasharray="5,2" points="114.35,-479.66 114.35,-447.66"/>
<polyline fill="none" stroke="#b33a6a" stroke-width="1.6" stroke-dasharray="5,2" points="114.35,-479.66 118.35,-483.66"/>
<text xml:space="preserve" text-anchor="middle" x="72.18" y="-461.76" font-family="Helvetica,sans-Serif" font-size="13.00" fill="#161b22">functions</text>
</g>
<!-- azure&#45;mock -->
<g id="node4" class="node">
<title>azure&#45;mock</title>
<defs>
<linearGradient id="node4_l_1" gradientUnits="userSpaceOnUse" x1="539.99" y1="-664.66" x2="539.99" y2="-628.66" >
<stop offset="0" style="stop-color:#e9defb;stop-opacity:1.;"/>
<stop offset="1" style="stop-color:#d7c2fd;stop-opacity:1.;"/>
</linearGradient>
</defs>
<polygon filter="url(#nodeShadow)" fill="url(#node4_l_1)" stroke="#7f65bd" stroke-width="1.6" points="594.11,-664.66 489.88,-664.66 485.88,-660.66 485.88,-628.66 590.11,-628.66 594.11,-632.66 594.11,-664.66"/>
<polyline fill="none" stroke="#7f65bd" stroke-width="1.6" points="590.11,-660.66 485.88,-660.66"/>
<polyline fill="none" stroke="#7f65bd" stroke-width="1.6" points="590.11,-660.66 590.11,-628.66"/>
<polyline fill="none" stroke="#7f65bd" stroke-width="1.6" points="590.11,-660.66 594.11,-664.66"/>
<text xml:space="preserve" text-anchor="middle" x="539.99" y="-642.76" font-family="Helvetica,sans-Serif" font-size="13.00" fill="#161b22">azure&#45;mock</text>
</g>
<!-- functions&#45;&gt;azure&#45;mock -->
<g id="edge33" class="edge">
<title>functions&#45;&gt;azure&#45;mock</title>
<path fill="none" stroke="#8b949e" stroke-width="1.2" stroke-dasharray="5,2" stroke-opacity="0.600000" d="M118.9,-482.05C125.33,-485.8 131.42,-490.29 136.35,-495.66 162.04,-523.62 141.32,-547.11 166.35,-575.66 212.44,-628.22 237.32,-632.71 305.13,-649.66 361.87,-663.84 428.79,-661.11 476.48,-656.02"/>
<polygon fill="#8b949e" fill-opacity="0.600000" stroke="#8b949e" stroke-width="1.2" stroke-opacity="0.600000" points="476.47,-658.55 483.35,-655.24 475.91,-653.54 476.47,-658.55"/>
</g>
<!-- azure -->
<g id="node5" class="node">
<title>azure</title>
<defs>
<linearGradient id="node5_l_2" gradientUnits="userSpaceOnUse" x1="716.76" y1="-440.66" x2="716.76" y2="-404.66" >
<stop offset="0" style="stop-color:#e9defb;stop-opacity:1.;"/>
<stop offset="1" style="stop-color:#d7c2fd;stop-opacity:1.;"/>
</linearGradient>
</defs>
<polygon filter="url(#nodeShadow)" fill="url(#node5_l_2)" stroke="#7f65bd" stroke-width="1.6" points="753.18,-440.66 684.34,-440.66 680.34,-436.66 680.34,-404.66 749.18,-404.66 753.18,-408.66 753.18,-440.66"/>
<polyline fill="none" stroke="#7f65bd" stroke-width="1.6" points="749.18,-436.66 680.34,-436.66"/>
<polyline fill="none" stroke="#7f65bd" stroke-width="1.6" points="749.18,-436.66 749.18,-404.66"/>
<polyline fill="none" stroke="#7f65bd" stroke-width="1.6" points="749.18,-436.66 753.18,-440.66"/>
<text xml:space="preserve" text-anchor="middle" x="716.76" y="-418.76" font-family="Helvetica,sans-Serif" font-size="13.00" fill="#161b22">azure</text>
</g>
<!-- functions&#45;&gt;azure -->
<g id="edge10" class="edge">
<title>functions&#45;&gt;azure</title>
<path fill="none" stroke="#207372" stroke-width="2.2" d="M74.96,-446.88C80.13,-404.18 99.37,-300.13 166.35,-256.66 244.79,-205.75 223.06,-127.07 594.11,-306.66 635.66,-326.77 672.32,-366.33 694.26,-393.61"/>
<polygon fill="#207372" stroke="#207372" stroke-width="2.2" points="691.5,-395.76 700.41,-401.48 697.01,-391.45 691.5,-395.76"/>
</g>
<!-- configuration -->
<g id="node6" class="node">
<title>configuration</title>
<defs>
<linearGradient id="node6_l_3" gradientUnits="userSpaceOnUse" x1="1042.87" y1="-651.66" x2="1042.87" y2="-615.66" >
<stop offset="0" style="stop-color:#e3fadf;stop-opacity:1.;"/>
<stop offset="1" style="stop-color:#c0efba;stop-opacity:1.;"/>
</linearGradient>
</defs>
<polygon filter="url(#nodeShadow)" fill="url(#node6_l_3)" stroke="#4d994c" stroke-width="1.6" stroke-dasharray="5,2" points="1100.25,-651.66 989.49,-651.66 985.49,-647.66 985.49,-615.66 1096.25,-615.66 1100.25,-619.66 1100.25,-651.66"/>
<polyline fill="none" stroke="#4d994c" stroke-width="1.6" stroke-dasharray="5,2" points="1096.25,-647.66 985.49,-647.66"/>
<polyline fill="none" stroke="#4d994c" stroke-width="1.6" stroke-dasharray="5,2" points="1096.25,-647.66 1096.25,-615.66"/>
<polyline fill="none" stroke="#4d994c" stroke-width="1.6" stroke-dasharray="5,2" points="1096.25,-647.66 1100.25,-651.66"/>
<text xml:space="preserve" text-anchor="middle" x="1042.87" y="-629.76" font-family="Helvetica,sans-Serif" font-size="13.00" fill="#161b22">configuration</text>
</g>
<!-- functions&#45;&gt;configuration -->
<g id="edge34" class="edge">
<title>functions&#45;&gt;configuration</title>
<path fill="none" stroke="#8b949e" stroke-width="1.2" stroke-dasharray="5,2" stroke-opacity="0.600000" d="M118.9,-482.05C125.33,-485.8 131.42,-490.29 136.35,-495.66 162.04,-523.62 144.16,-544.85 166.35,-575.66 315.76,-783.08 405.8,-844.66 660.11,-870.66 775.04,-882.41 823.46,-917.89 919.49,-853.66 988.43,-807.55 1022.41,-708.91 1035.38,-660.96"/>
<polygon fill="#8b949e" fill-opacity="0.600000" stroke="#8b949e" stroke-width="1.2" stroke-opacity="0.600000" points="1037.79,-661.7 1037.17,-654.1 1032.91,-660.43 1037.79,-661.7"/>
</g>
<!-- db&#45;mock -->
<g id="node7" class="node">
<title>db&#45;mock</title>
<defs>
<linearGradient id="node7_l_4" gradientUnits="userSpaceOnUse" x1="362.5" y1="-552.66" x2="362.5" y2="-516.66" >
<stop offset="0" style="stop-color:#e9defb;stop-opacity:1.;"/>
<stop offset="1" style="stop-color:#d7c2fd;stop-opacity:1.;"/>
</linearGradient>
</defs>
<polygon filter="url(#nodeShadow)" fill="url(#node7_l_4)" stroke="#7f65bd" stroke-width="1.6" stroke-dasharray="5,2" points="407.59,-552.66 321.42,-552.66 317.42,-548.66 317.42,-516.66 403.59,-516.66 407.59,-520.66 407.59,-552.66"/>
<polyline fill="none" stroke="#7f65bd" stroke-width="1.6" stroke-dasharray="5,2" points="403.59,-548.66 317.42,-548.66"/>
<polyline fill="none" stroke="#7f65bd" stroke-width="1.6" stroke-dasharray="5,2" points="403.59,-548.66 403.59,-516.66"/>
<polyline fill="none" stroke="#7f65bd" stroke-width="1.6" stroke-dasharray="5,2" points="403.59,-548.66 407.59,-552.66"/>
<text xml:space="preserve" text-anchor="middle" x="362.5" y="-530.76" font-family="Helvetica,sans-Serif" font-size="13.00" fill="#161b22">db&#45;mock</text>
</g>
<!-- functions&#45;&gt;db&#45;mock -->
<g id="edge35" class="edge">
<title>functions&#45;&gt;db&#45;mock</title>
<path fill="none" stroke="#8b949e" stroke-width="1.2" stroke-dasharray="5,2" stroke-opacity="0.600000" d="M118.84,-481.51C133.87,-486.42 150.73,-491.6 166.35,-495.66 213.92,-508.02 268.87,-518.69 308.32,-525.72"/>
<polygon fill="#8b949e" fill-opacity="0.600000" stroke="#8b949e" stroke-width="1.2" stroke-opacity="0.600000" points="307.68,-528.17 315.21,-526.94 308.56,-523.21 307.68,-528.17"/>
</g>
<!-- db&#45;schema -->
<g id="node8" class="node">
<title>db&#45;schema</title>
<defs>
<linearGradient id="node8_l_5" gradientUnits="userSpaceOnUse" x1="539.99" y1="-552.66" x2="539.99" y2="-516.66" >
<stop offset="0" style="stop-color:#e9defb;stop-opacity:1.;"/>
<stop offset="1" style="stop-color:#d7c2fd;stop-opacity:1.;"/>
</linearGradient>
</defs>
<polygon filter="url(#nodeShadow)" fill="url(#node8_l_5)" stroke="#7f65bd" stroke-width="1.6" stroke-dasharray="5,2" points="592.31,-552.66 491.68,-552.66 487.68,-548.66 487.68,-516.66 588.31,-516.66 592.31,-520.66 592.31,-552.66"/>
<polyline fill="none" stroke="#7f65bd" stroke-width="1.6" stroke-dasharray="5,2" points="588.31,-548.66 487.68,-548.66"/>
<polyline fill="none" stroke="#7f65bd" stroke-width="1.6" stroke-dasharray="5,2" points="588.31,-548.66 588.31,-516.66"/>
<polyline fill="none" stroke="#7f65bd" stroke-width="1.6" stroke-dasharray="5,2" points="588.31,-548.66 592.31,-552.66"/>
<text xml:space="preserve" text-anchor="middle" x="539.99" y="-530.76" font-family="Helvetica,sans-Serif" font-size="13.00" fill="#161b22">db&#45;schema</text>
</g>
<!-- functions&#45;&gt;db&#45;schema -->
<g id="edge12" class="edge">
<title>functions&#45;&gt;db&#45;schema</title>
<path fill="none" stroke="#207372" stroke-width="2.2" d="M116.91,-484.38C123.6,-487.82 130.29,-491.62 136.35,-495.66 151.28,-505.61 152.44,-511.33 166.35,-522.66 225.71,-570.99 232.4,-600.8 305.13,-624.66 353.59,-640.55 371.53,-640.87 419.88,-624.66 456.32,-612.44 490.51,-584.18 512.83,-562.56"/>
<polygon fill="#207372" stroke="#207372" stroke-width="2.2" points="515.26,-565.07 519.86,-555.53 510.31,-560.12 515.26,-565.07"/>
</g>
<!-- db -->
<g id="node9" class="node">
<title>db</title>
<defs>
<linearGradient id="node9_l_6" gradientUnits="userSpaceOnUse" x1="211.74" y1="-483.66" x2="211.74" y2="-447.66" >
<stop offset="0" style="stop-color:#e9defb;stop-opacity:1.;"/>
<stop offset="1" style="stop-color:#d7c2fd;stop-opacity:1.;"/>
</linearGradient>
</defs>
<polygon filter="url(#nodeShadow)" fill="url(#node9_l_6)" stroke="#7f65bd" stroke-width="1.6" stroke-dasharray="5,2" points="239.13,-483.66 188.35,-483.66 184.35,-479.66 184.35,-447.66 235.13,-447.66 239.13,-451.66 239.13,-483.66"/>
<polyline fill="none" stroke="#7f65bd" stroke-width="1.6" stroke-dasharray="5,2" points="235.13,-479.66 184.35,-479.66"/>
<polyline fill="none" stroke="#7f65bd" stroke-width="1.6" stroke-dasharray="5,2" points="235.13,-479.66 235.13,-447.66"/>
<polyline fill="none" stroke="#7f65bd" stroke-width="1.6" stroke-dasharray="5,2" points="235.13,-479.66 239.13,-483.66"/>
<text xml:space="preserve" text-anchor="middle" x="211.74" y="-461.76" font-family="Helvetica,sans-Serif" font-size="13.00" fill="#161b22">db</text>
</g>
<!-- functions&#45;&gt;db -->
<g id="edge11" class="edge">
<title>functions&#45;&gt;db</title>
<path fill="none" stroke="#207372" stroke-width="2.2" d="M118.98,-465.66C135.71,-465.66 154.49,-465.66 170.69,-465.66"/>
<polygon fill="#207372" stroke="#207372" stroke-width="2.2" points="170.25,-469.16 180.25,-465.66 170.25,-462.16 170.25,-469.16"/>
</g>
<!-- shared -->
<g id="node12" class="node">
<title>shared</title>
<defs>
<linearGradient id="node12_l_7" gradientUnits="userSpaceOnUse" x1="879.46" y1="-630.66" x2="879.46" y2="-594.66" >
<stop offset="0" style="stop-color:#e3fadf;stop-opacity:1.;"/>
<stop offset="1" style="stop-color:#c0efba;stop-opacity:1.;"/>
</linearGradient>
</defs>
<polygon filter="url(#nodeShadow)" fill="url(#node12_l_7)" stroke="#4d994c" stroke-width="1.6" points="919.49,-630.66 843.42,-630.66 839.42,-626.66 839.42,-594.66 915.49,-594.66 919.49,-598.66 919.49,-630.66"/>
<polyline fill="none" stroke="#4d994c" stroke-width="1.6" points="915.49,-626.66 839.42,-626.66"/>
<polyline fill="none" stroke="#4d994c" stroke-width="1.6" points="915.49,-626.66 915.49,-594.66"/>
<polyline fill="none" stroke="#4d994c" stroke-width="1.6" points="915.49,-626.66 919.49,-630.66"/>
<text xml:space="preserve" text-anchor="middle" x="879.46" y="-608.76" font-family="Helvetica,sans-Serif" font-size="13.00" fill="#161b22">shared</text>
</g>
<!-- functions&#45;&gt;shared -->
<g id="edge13" class="edge">
<title>functions&#45;&gt;shared</title>
<path fill="none" stroke="#207372" stroke-width="2.2" d="M73.31,-446.87C74.79,-396.93 86.31,-260.37 166.35,-196.66 234.61,-142.33 274.27,-175.66 361.5,-175.66 361.5,-175.66 361.5,-175.66 540.99,-175.66 746.06,-175.66 844.06,-480.85 870.73,-581.14"/>
<polygon fill="#207372" stroke="#207372" stroke-width="2.2" points="867.3,-581.85 873.19,-590.66 874.07,-580.1 867.3,-581.85"/>
</g>
<!-- infra -->
<g id="node2" class="node">
<title>infra</title>
<defs>
<linearGradient id="node2_l_8" gradientUnits="userSpaceOnUse" x1="72.18" y1="-603.66" x2="72.18" y2="-567.66" >
<stop offset="0" style="stop-color:#eac2cc;stop-opacity:1.;"/>
<stop offset="1" style="stop-color:#eea0b7;stop-opacity:1.;"/>
</linearGradient>
</defs>
<polygon filter="url(#nodeShadow)" fill="url(#node2_l_8)" stroke="#b33a6a" stroke-width="1.6" stroke-dasharray="5,2" points="104.98,-603.66 43.37,-603.66 39.37,-599.66 39.37,-567.66 100.98,-567.66 104.98,-571.66 104.98,-603.66"/>
<polyline fill="none" stroke="#b33a6a" stroke-width="1.6" stroke-dasharray="5,2" points="100.98,-599.66 39.37,-599.66"/>
<polyline fill="none" stroke="#b33a6a" stroke-width="1.6" stroke-dasharray="5,2" points="100.98,-599.66 100.98,-567.66"/>
<polyline fill="none" stroke="#b33a6a" stroke-width="1.6" stroke-dasharray="5,2" points="100.98,-599.66 104.98,-603.66"/>
<text xml:space="preserve" text-anchor="middle" x="72.18" y="-581.76" font-family="Helvetica,sans-Serif" font-size="13.00" fill="#161b22">infra</text>
</g>
<!-- infra&#45;&gt;configuration -->
<g id="edge36" class="edge">
<title>infra&#45;&gt;configuration</title>
<path fill="none" stroke="#8b949e" stroke-width="1.2" stroke-dasharray="5,2" stroke-opacity="0.600000" d="M90.68,-604.44C108.66,-623.17 137.96,-652.18 166.35,-673.66 298.28,-773.5 329.17,-811.59 485.88,-864.66 559.7,-889.66 582.29,-880.21 660.11,-884.66 710.39,-887.53 724.57,-896.89 773.42,-884.66 844.82,-866.79 864.3,-855.34 919.49,-806.66 968.61,-763.33 1008.6,-696.6 1028.4,-659.97"/>
<polygon fill="#8b949e" fill-opacity="0.600000" stroke="#8b949e" stroke-width="1.2" stroke-opacity="0.600000" points="1030.53,-661.34 1031.69,-653.8 1026.08,-658.97 1030.53,-661.34"/>
</g>
<!-- infra&#45;&gt;db&#45;schema -->
<g id="edge14" class="edge">
<title>infra&#45;&gt;db&#45;schema</title>
<path fill="none" stroke="#207372" stroke-width="2.2" d="M101.29,-604.24C161.82,-641.75 308.09,-718.86 419.88,-668.66 467.17,-647.42 503.34,-597.1 522.85,-564.53"/>
<polygon fill="#207372" stroke="#207372" stroke-width="2.2" points="525.63,-566.71 527.6,-556.3 519.57,-563.21 525.63,-566.71"/>
</g>
<!-- web -->
<g id="node3" class="node">
<title>web</title>
<defs>
<linearGradient id="node3_l_9" gradientUnits="userSpaceOnUse" x1="72.18" y1="-543.66" x2="72.18" y2="-507.66" >
<stop offset="0" style="stop-color:#eac2cc;stop-opacity:1.;"/>
<stop offset="1" style="stop-color:#eea0b7;stop-opacity:1.;"/>
</linearGradient>
</defs>
<polygon filter="url(#nodeShadow)" fill="url(#node3_l_9)" stroke="#b33a6a" stroke-width="1.6" stroke-dasharray="5,2" points="104.26,-543.66 44.09,-543.66 40.09,-539.66 40.09,-507.66 100.26,-507.66 104.26,-511.66 104.26,-543.66"/>
<polyline fill="none" stroke="#b33a6a" stroke-width="1.6" stroke-dasharray="5,2" points="100.26,-539.66 40.09,-539.66"/>
<polyline fill="none" stroke="#b33a6a" stroke-width="1.6" stroke-dasharray="5,2" points="100.26,-539.66 100.26,-507.66"/>
<polyline fill="none" stroke="#b33a6a" stroke-width="1.6" stroke-dasharray="5,2" points="100.26,-539.66 104.26,-543.66"/>
<text xml:space="preserve" text-anchor="middle" x="72.18" y="-521.76" font-family="Helvetica,sans-Serif" font-size="13.00" fill="#161b22">web</text>
</g>
<!-- web&#45;&gt;azure&#45;mock -->
<g id="edge44" class="edge">
<title>web&#45;&gt;azure&#45;mock</title>
<path fill="none" stroke="#8b949e" stroke-width="1.2" stroke-dasharray="5,2" stroke-opacity="0.600000" d="M105.02,-537.37C115.6,-542.12 127.04,-548.25 136.35,-555.66 183.61,-593.26 250.76,-742.37 305.13,-768.66 351.05,-790.86 374.51,-791.95 419.88,-768.66 464.65,-745.68 448.42,-710.27 485.88,-676.66 488.31,-674.48 490.92,-672.39 493.64,-670.4"/>
<polygon fill="#8b949e" fill-opacity="0.600000" stroke="#8b949e" stroke-width="1.2" stroke-opacity="0.600000" points="494.99,-672.53 499.52,-666.4 492.15,-668.36 494.99,-672.53"/>
</g>
<!-- web&#45;&gt;azure -->
<g id="edge20" class="edge">
<title>web&#45;&gt;azure</title>
<path fill="none" stroke="#207372" stroke-width="2.2" d="M105.03,-515.93C116.1,-511.26 127.85,-504.67 136.35,-495.66 160.71,-469.84 136.92,-441.49 166.35,-421.66 322.47,-316.49 564.39,-374.06 667.05,-405.96"/>
<polygon fill="#207372" stroke="#207372" stroke-width="2.2" points="665.96,-409.29 676.55,-408.99 668.08,-402.62 665.96,-409.29"/>
</g>
<!-- web&#45;&gt;configuration -->
<g id="edge45" class="edge">
<title>web&#45;&gt;configuration</title>
<path fill="none" stroke="#8b949e" stroke-width="1.2" stroke-dasharray="5,2" stroke-opacity="0.600000" d="M105.04,-516.79C116.38,-512.17 128.31,-505.39 136.35,-495.66 170.26,-454.6 133.4,-421.49 166.35,-379.66 227.16,-302.45 263.22,-275.66 361.5,-275.66 361.5,-275.66 361.5,-275.66 717.76,-275.66 896.13,-275.66 1001.88,-522.91 1032.52,-606.45"/>
<polygon fill="#8b949e" fill-opacity="0.600000" stroke="#8b949e" stroke-width="1.2" stroke-opacity="0.600000" points="1030.14,-607.29 1034.95,-613.21 1034.88,-605.58 1030.14,-607.29"/>
</g>
<!-- web&#45;&gt;db&#45;mock -->
<g id="edge46" class="edge">
<title>web&#45;&gt;db&#45;mock</title>
<path fill="none" stroke="#8b949e" stroke-width="1.2" stroke-dasharray="5,2" stroke-opacity="0.600000" d="M104.95,-531.63C122.91,-534.71 145.8,-538.12 166.35,-539.66 214.27,-543.24 268.97,-541.32 308.24,-538.89"/>
<polygon fill="#8b949e" fill-opacity="0.600000" stroke="#8b949e" stroke-width="1.2" stroke-opacity="0.600000" points="308.04,-541.43 315.06,-538.45 307.72,-536.4 308.04,-541.43"/>
</g>
<!-- web&#45;&gt;db&#45;schema -->
<g id="edge22" class="edge">
<title>web&#45;&gt;db&#45;schema</title>
<path fill="none" stroke="#207372" stroke-width="2.2" d="M104.98,-515.42C115.91,-510.72 127.59,-504.24 136.35,-495.66 157.65,-474.79 140.99,-451.33 166.35,-435.66 193.87,-418.65 206.99,-432.06 239.13,-435.66 320.99,-444.83 342.17,-449.34 419.88,-476.66 445.23,-485.57 472.26,-498.44 494.15,-509.78"/>
<polygon fill="#207372" stroke="#207372" stroke-width="2.2" points="492.32,-512.77 502.79,-514.34 495.58,-506.58 492.32,-512.77"/>
</g>
<!-- web&#45;&gt;db -->
<g id="edge21" class="edge">
<title>web&#45;&gt;db</title>
<path fill="none" stroke="#207372" stroke-width="2.2" d="M104.74,-511.89C124.67,-503.2 150.57,-491.9 171.78,-482.65"/>
<polygon fill="#207372" stroke="#207372" stroke-width="2.2" points="173.14,-485.88 180.91,-478.67 170.34,-479.46 173.14,-485.88"/>
</g>
<!-- parse&#45;tmx -->
<g id="node10" class="node">
<title>parse&#45;tmx</title>
<defs>
<linearGradient id="node10_l_10" gradientUnits="userSpaceOnUse" x1="539.99" y1="-822.66" x2="539.99" y2="-786.66" >
<stop offset="0" style="stop-color:#e9defb;stop-opacity:1.;"/>
<stop offset="1" style="stop-color:#d7c2fd;stop-opacity:1.;"/>
</linearGradient>
</defs>
<polygon filter="url(#nodeShadow)" fill="url(#node10_l_10)" stroke="#7f65bd" stroke-width="1.6" points="589.05,-822.66 494.94,-822.66 490.94,-818.66 490.94,-786.66 585.05,-786.66 589.05,-790.66 589.05,-822.66"/>
<polyline fill="none" stroke="#7f65bd" stroke-width="1.6" points="585.05,-818.66 490.94,-818.66"/>
<polyline fill="none" stroke="#7f65bd" stroke-width="1.6" points="585.05,-818.66 585.05,-786.66"/>
<polyline fill="none" stroke="#7f65bd" stroke-width="1.6" points="585.05,-818.66 589.05,-822.66"/>
<text xml:space="preserve" text-anchor="middle" x="539.99" y="-800.76" font-family="Helvetica,sans-Serif" font-size="13.00" fill="#161b22">parse&#45;tmx</text>
</g>
<!-- web&#45;&gt;parse&#45;tmx -->
<g id="edge23" class="edge">
<title>web&#45;&gt;parse&#45;tmx</title>
<path fill="none" stroke="#207372" stroke-width="2.2" d="M104.94,-534.62C116.26,-539.24 128.21,-546 136.35,-555.66 168.18,-593.42 141.04,-620.25 166.35,-662.66 210.3,-736.28 226.19,-763.19 305.13,-796.66 359.83,-819.85 428.36,-819.16 477.06,-814.3"/>
<polygon fill="#207372" stroke="#207372" stroke-width="2.2" points="477.38,-817.78 486.93,-813.2 476.61,-810.82 477.38,-817.78"/>
</g>
<!-- shared&#45;node -->
<g id="node11" class="node">
<title>shared&#45;node</title>
<defs>
<linearGradient id="node11_l_11" gradientUnits="userSpaceOnUse" x1="716.76" y1="-786.66" x2="716.76" y2="-750.66" >
<stop offset="0" style="stop-color:#e9defb;stop-opacity:1.;"/>
<stop offset="1" style="stop-color:#d7c2fd;stop-opacity:1.;"/>
</linearGradient>
</defs>
<polygon filter="url(#nodeShadow)" fill="url(#node11_l_11)" stroke="#7f65bd" stroke-width="1.6" stroke-dasharray="5,2" points="773.42,-786.66 664.11,-786.66 660.11,-782.66 660.11,-750.66 769.42,-750.66 773.42,-754.66 773.42,-786.66"/>
<polyline fill="none" stroke="#7f65bd" stroke-width="1.6" stroke-dasharray="5,2" points="769.42,-782.66 660.11,-782.66"/>
<polyline fill="none" stroke="#7f65bd" stroke-width="1.6" stroke-dasharray="5,2" points="769.42,-782.66 769.42,-750.66"/>
<polyline fill="none" stroke="#7f65bd" stroke-width="1.6" stroke-dasharray="5,2" points="769.42,-782.66 773.42,-786.66"/>
<text xml:space="preserve" text-anchor="middle" x="716.76" y="-764.76" font-family="Helvetica,sans-Serif" font-size="13.00" fill="#161b22">shared&#45;node</text>
</g>
<!-- web&#45;&gt;shared&#45;node -->
<g id="edge47" class="edge">
<title>web&#45;&gt;shared&#45;node</title>
<path fill="none" stroke="#8b949e" stroke-width="1.2" stroke-dasharray="5,2" stroke-opacity="0.600000" d="M104.81,-533.93C116.4,-538.5 128.57,-545.41 136.35,-555.66 183.79,-618.17 124.12,-663.51 166.35,-729.66 206.71,-792.87 234.12,-801.54 305.13,-825.66 426.8,-866.99 469.59,-866.41 594.11,-834.66 626.48,-826.4 630.73,-814.58 660.11,-798.66 664.33,-796.37 668.73,-793.99 673.13,-791.61"/>
<polygon fill="#8b949e" fill-opacity="0.600000" stroke="#8b949e" stroke-width="1.2" stroke-opacity="0.600000" points="674.27,-793.86 679.41,-788.22 671.88,-789.42 674.27,-793.86"/>
</g>
<!-- web&#45;&gt;shared -->
<g id="edge24" class="edge">
<title>web&#45;&gt;shared</title>
<path fill="none" stroke="#207372" stroke-width="2.2" d="M104.94,-538.05C115.4,-542.82 126.78,-548.79 136.35,-555.66 151.93,-566.84 152.08,-573.86 166.35,-586.66 300.2,-706.66 320.19,-764.91 485.88,-834.66 557.92,-864.99 582.12,-853.31 660.11,-858.66 710.35,-862.1 731.4,-886.41 773.42,-858.66 846.7,-810.27 869.03,-699.14 875.7,-644.36"/>
<polygon fill="#207372" stroke="#207372" stroke-width="2.2" points="879.18,-644.74 876.78,-634.42 872.22,-643.99 879.18,-644.74"/>
</g>
<!-- vue&#45;phaserjs -->
<g id="node14" class="node">
<title>vue&#45;phaserjs</title>
<defs>
<linearGradient id="node14_l_12" gradientUnits="userSpaceOnUse" x1="362.5" y1="-612.66" x2="362.5" y2="-576.66" >
<stop offset="0" style="stop-color:#e9defb;stop-opacity:1.;"/>
<stop offset="1" style="stop-color:#d7c2fd;stop-opacity:1.;"/>
</linearGradient>
</defs>
<polygon filter="url(#nodeShadow)" fill="url(#node14_l_12)" stroke="#7f65bd" stroke-width="1.6" points="419.88,-612.66 309.13,-612.66 305.13,-608.66 305.13,-576.66 415.88,-576.66 419.88,-580.66 419.88,-612.66"/>
<polyline fill="none" stroke="#7f65bd" stroke-width="1.6" points="415.88,-608.66 305.13,-608.66"/>
<polyline fill="none" stroke="#7f65bd" stroke-width="1.6" points="415.88,-608.66 415.88,-576.66"/>
<polyline fill="none" stroke="#7f65bd" stroke-width="1.6" points="415.88,-608.66 419.88,-612.66"/>
<text xml:space="preserve" text-anchor="middle" x="362.5" y="-590.76" font-family="Helvetica,sans-Serif" font-size="13.00" fill="#161b22">vue&#45;phaserjs</text>
</g>
<!-- web&#45;&gt;vue&#45;phaserjs -->
<g id="edge25" class="edge">
<title>web&#45;&gt;vue&#45;phaserjs</title>
<path fill="none" stroke="#207372" stroke-width="2.2" d="M104.65,-538.68C122.51,-545.68 145.4,-554 166.35,-559.66 207.37,-570.73 254.21,-579.26 291.72,-585.13"/>
<polygon fill="#207372" stroke="#207372" stroke-width="2.2" points="290.86,-588.54 301.28,-586.59 291.92,-581.62 290.86,-588.54"/>
</g>
<!-- azure&#45;mock&#45;&gt;azure -->
<g id="edge1" class="edge">
<title>azure&#45;mock&#45;&gt;azure</title>
<path fill="none" stroke="#207372" stroke-width="2.2" d="M555.59,-627.95C586.12,-588.81 656.9,-498.1 693.28,-451.48"/>
<polygon fill="#207372" stroke="#207372" stroke-width="2.2" points="695.89,-453.82 699.28,-443.79 690.37,-449.52 695.89,-453.82"/>
</g>
<!-- azure&#45;mock&#45;&gt;configuration -->
<g id="edge27" class="edge">
<title>azure&#45;mock&#45;&gt;configuration</title>
<path fill="none" stroke="#8b949e" stroke-width="1.2" stroke-dasharray="5,2" stroke-opacity="0.600000" d="M594.61,-647.15C667.98,-647.58 803.77,-647.52 919.49,-642.66 937.88,-641.89 957.78,-640.61 976.1,-639.26"/>
<polygon fill="#8b949e" fill-opacity="0.600000" stroke="#8b949e" stroke-width="1.2" stroke-opacity="0.600000" points="976.14,-641.78 983.13,-638.73 975.76,-636.76 976.14,-641.78"/>
</g>
<!-- azure&#45;mock&#45;&gt;shared -->
<g id="edge2" class="edge">
<title>azure&#45;mock&#45;&gt;shared</title>
<path fill="none" stroke="#207372" stroke-width="2.2" d="M594.84,-641.23C658.29,-634.84 763.02,-624.29 825.9,-617.95"/>
<polygon fill="#207372" stroke="#207372" stroke-width="2.2" points="826.13,-621.45 835.72,-616.96 825.42,-614.48 826.13,-621.45"/>
</g>
<!-- azure&#45;&gt;configuration -->
<g id="edge28" class="edge">
<title>azure&#45;&gt;configuration</title>
<path fill="none" stroke="#8b949e" stroke-width="1.2" stroke-dasharray="5,2" stroke-opacity="0.600000" d="M753.63,-427.26C796.2,-434.1 867.91,-450.07 919.49,-484.66 967.75,-517.02 1006.83,-574 1026.99,-607.33"/>
<polygon fill="#8b949e" fill-opacity="0.600000" stroke="#8b949e" stroke-width="1.2" stroke-opacity="0.600000" points="1024.7,-608.41 1030.54,-613.31 1029.03,-605.83 1024.7,-608.41"/>
</g>
<!-- azure&#45;&gt;shared -->
<g id="edge3" class="edge">
<title>azure&#45;&gt;shared</title>
<path fill="none" stroke="#207372" stroke-width="2.2" d="M751.46,-441.38C759.13,-446.45 766.92,-452.31 773.42,-458.66 811.83,-496.14 844.55,-549.67 862.84,-582.74"/>
<polygon fill="#207372" stroke="#207372" stroke-width="2.2" points="859.69,-584.29 867.53,-591.41 865.85,-580.95 859.69,-584.29"/>
</g>
<!-- db&#45;mock&#45;&gt;configuration -->
<g id="edge29" class="edge">
<title>db&#45;mock&#45;&gt;configuration</title>
<path fill="none" stroke="#8b949e" stroke-width="1.2" stroke-dasharray="5,2" stroke-opacity="0.600000" d="M408.36,-520.92C431.3,-514.59 459.82,-507.81 485.88,-504.66 677.76,-481.48 740.23,-465.41 919.49,-537.66 958.87,-553.53 996.04,-586.11 1018.86,-608.9"/>
<polygon fill="#8b949e" fill-opacity="0.600000" stroke="#8b949e" stroke-width="1.2" stroke-opacity="0.600000" points="1016.78,-610.38 1023.63,-613.75 1020.38,-606.85 1016.78,-610.38"/>
</g>
<!-- db&#45;mock&#45;&gt;db&#45;schema -->
<g id="edge4" class="edge">
<title>db&#45;mock&#45;&gt;db&#45;schema</title>
<path fill="none" stroke="#207372" stroke-width="2.2" d="M408.24,-534.66C428.17,-534.66 452.04,-534.66 473.89,-534.66"/>
<polygon fill="#207372" stroke="#207372" stroke-width="2.2" points="473.85,-538.16 483.85,-534.66 473.85,-531.16 473.85,-538.16"/>
</g>
<!-- db&#45;schema&#45;&gt;azure -->
<g id="edge5" class="edge">
<title>db&#45;schema&#45;&gt;azure</title>
<path fill="none" stroke="#207372" stroke-width="2.2" d="M570.24,-515.91C599.19,-497.36 643.71,-468.83 675.89,-448.21"/>
<polygon fill="#207372" stroke="#207372" stroke-width="2.2" points="677.37,-451.42 683.9,-443.08 673.6,-445.52 677.37,-451.42"/>
</g>
<!-- db&#45;schema&#45;&gt;configuration -->
<g id="edge30" class="edge">
<title>db&#45;schema&#45;&gt;configuration</title>
<path fill="none" stroke="#8b949e" stroke-width="1.2" stroke-dasharray="5,2" stroke-opacity="0.600000" d="M592.85,-531.27C667.04,-528.02 806.96,-527.88 919.49,-562.66 952.74,-572.93 986.67,-593.58 1010.34,-609.97"/>
<polygon fill="#8b949e" fill-opacity="0.600000" stroke="#8b949e" stroke-width="1.2" stroke-opacity="0.600000" points="1008.83,-611.99 1016.17,-614.08 1011.73,-607.87 1008.83,-611.99"/>
</g>
<!-- db&#45;schema&#45;&gt;shared -->
<g id="edge6" class="edge">
<title>db&#45;schema&#45;&gt;shared</title>
<path fill="none" stroke="#207372" stroke-width="2.2" d="M592.98,-546.67C656.33,-561.32 762.74,-585.91 826.2,-600.58"/>
<polygon fill="#207372" stroke="#207372" stroke-width="2.2" points="825.29,-603.96 835.82,-602.8 826.86,-597.14 825.29,-603.96"/>
</g>
<!-- db&#45;&gt;azure -->
<g id="edge7" class="edge">
<title>db&#45;&gt;azure</title>
<path fill="none" stroke="#207372" stroke-width="2.2" d="M239.79,-463.35C320.74,-456.43 561.97,-435.8 666.53,-426.87"/>
<polygon fill="#207372" stroke="#207372" stroke-width="2.2" points="666.78,-430.36 676.44,-426.02 666.18,-423.38 666.78,-430.36"/>
</g>
<!-- db&#45;&gt;configuration -->
<g id="edge31" class="edge">
<title>db&#45;&gt;configuration</title>
<path fill="none" stroke="#8b949e" stroke-width="1.2" stroke-dasharray="5,2" stroke-opacity="0.600000" d="M239.69,-456.53C320.7,-430.3 569.11,-358.66 773.42,-392.66 841.11,-403.92 865.51,-400.3 919.49,-442.66 976.18,-487.15 1014.36,-565.62 1031.52,-606.77"/>
<polygon fill="#8b949e" fill-opacity="0.600000" stroke="#8b949e" stroke-width="1.2" stroke-opacity="0.600000" points="1029.12,-607.56 1034.18,-613.27 1033.79,-605.65 1029.12,-607.56"/>
</g>
<!-- db&#45;&gt;db&#45;mock -->
<g id="edge32" class="edge">
<title>db&#45;&gt;db&#45;mock</title>
<path fill="none" stroke="#8b949e" stroke-width="1.2" stroke-dasharray="5,2" stroke-opacity="0.600000" d="M239.68,-478.15C260.07,-487.61 288.61,-500.85 312.95,-512.14"/>
<polygon fill="#8b949e" fill-opacity="0.600000" stroke="#8b949e" stroke-width="1.2" stroke-opacity="0.600000" points="311.78,-514.37 319.38,-515.12 313.9,-509.8 311.78,-514.37"/>
</g>
<!-- db&#45;&gt;db&#45;schema -->
<g id="edge8" class="edge">
<title>db&#45;&gt;db&#45;schema</title>
<path fill="none" stroke="#207372" stroke-width="2.2" d="M239.66,-470.19C279.28,-476.98 355.55,-490.51 419.88,-504.66 437.56,-508.54 456.61,-513.15 474.18,-517.58"/>
<polygon fill="#207372" stroke="#207372" stroke-width="2.2" points="473.19,-520.94 483.74,-520.01 474.91,-514.15 473.19,-520.94"/>
</g>
<!-- db&#45;&gt;shared -->
<g id="edge9" class="edge">
<title>db&#45;&gt;shared</title>
<path fill="none" stroke="#207372" stroke-width="2.2" d="M239.63,-466.17C279.2,-467.14 355.42,-469.79 419.88,-476.66 580.27,-493.76 623.85,-498.28 773.42,-558.66 794.01,-566.97 815.97,-577.91 834.47,-587.77"/>
<polygon fill="#207372" stroke="#207372" stroke-width="2.2" points="832.68,-590.78 843.14,-592.47 836.01,-584.63 832.68,-590.78"/>
</g>
<!-- parse&#45;tmx&#45;&gt;configuration -->
<g id="edge37" class="edge">
<title>parse&#45;tmx&#45;&gt;configuration</title>
<path fill="none" stroke="#8b949e" stroke-width="1.2" stroke-dasharray="5,2" stroke-opacity="0.600000" d="M572.07,-823.19C595.39,-835.98 628.59,-851.85 660.11,-858.66 709.33,-869.3 725.42,-873.88 773.42,-858.66 886.68,-822.74 983.44,-710.58 1022.9,-659.48"/>
<polygon fill="#8b949e" fill-opacity="0.600000" stroke="#8b949e" stroke-width="1.2" stroke-opacity="0.600000" points="1024.84,-661.1 1027.2,-653.85 1020.83,-658.04 1024.84,-661.1"/>
</g>
<!-- parse&#45;tmx&#45;&gt;shared -->
<g id="edge15" class="edge">
<title>parse&#45;tmx&#45;&gt;shared</title>
<path fill="none" stroke="#207372" stroke-width="2.2" d="M573.96,-785.9C635.11,-751.11 766.07,-676.6 834.61,-637.61"/>
<polygon fill="#207372" stroke="#207372" stroke-width="2.2" points="835.99,-640.84 842.95,-632.86 832.53,-634.76 835.99,-640.84"/>
</g>
<!-- xml2js -->
<g id="node15" class="node">
<title>xml2js</title>
<defs>
<linearGradient id="node15_l_13" gradientUnits="userSpaceOnUse" x1="716.76" y1="-846.66" x2="716.76" y2="-810.66" >
<stop offset="0" style="stop-color:#e9defb;stop-opacity:1.;"/>
<stop offset="1" style="stop-color:#d7c2fd;stop-opacity:1.;"/>
</linearGradient>
</defs>
<polygon filter="url(#nodeShadow)" fill="url(#node15_l_13)" stroke="#7f65bd" stroke-width="1.6" points="755.34,-846.66 682.19,-846.66 678.19,-842.66 678.19,-810.66 751.34,-810.66 755.34,-814.66 755.34,-846.66"/>
<polyline fill="none" stroke="#7f65bd" stroke-width="1.6" points="751.34,-842.66 678.19,-842.66"/>
<polyline fill="none" stroke="#7f65bd" stroke-width="1.6" points="751.34,-842.66 751.34,-810.66"/>
<polyline fill="none" stroke="#7f65bd" stroke-width="1.6" points="751.34,-842.66 755.34,-846.66"/>
<text xml:space="preserve" text-anchor="middle" x="716.76" y="-824.76" font-family="Helvetica,sans-Serif" font-size="13.00" fill="#161b22">xml2js</text>
</g>
<!-- parse&#45;tmx&#45;&gt;xml2js -->
<g id="edge16" class="edge">
<title>parse&#45;tmx&#45;&gt;xml2js</title>
<path fill="none" stroke="#207372" stroke-width="2.2" d="M589.68,-811.34C613,-814.55 640.94,-818.38 664.58,-821.63"/>
<polygon fill="#207372" stroke="#207372" stroke-width="2.2" points="663.9,-825.07 674.28,-822.96 664.85,-818.13 663.9,-825.07"/>
</g>
<!-- shared&#45;node&#45;&gt;configuration -->
<g id="edge38" class="edge">
<title>shared&#45;node&#45;&gt;configuration</title>
<path fill="none" stroke="#8b949e" stroke-width="1.2" stroke-dasharray="5,2" stroke-opacity="0.600000" d="M773.86,-755.29C815.08,-744.54 871.94,-727.78 919.49,-706.66 950.5,-692.88 983.41,-672.91 1007.29,-657.34"/>
<polygon fill="#8b949e" fill-opacity="0.600000" stroke="#8b949e" stroke-width="1.2" stroke-opacity="0.600000" points="1008.56,-659.52 1013.19,-653.45 1005.79,-655.31 1008.56,-659.52"/>
</g>
<!-- shared&#45;node&#45;&gt;shared -->
<g id="edge17" class="edge">
<title>shared&#45;node&#45;&gt;shared</title>
<path fill="none" stroke="#207372" stroke-width="2.2" d="M750.06,-749.93C758.01,-744.74 766.29,-738.83 773.42,-732.66 805.53,-704.89 836.85,-667.35 856.81,-641.69"/>
<polygon fill="#207372" stroke="#207372" stroke-width="2.2" points="859.56,-643.86 862.87,-633.79 854.01,-639.6 859.56,-643.86"/>
</g>
<!-- shared&#45;&gt;configuration -->
<g id="edge39" class="edge">
<title>shared&#45;&gt;configuration</title>
<path fill="none" stroke="#8b949e" stroke-width="1.2" stroke-dasharray="5,2" stroke-opacity="0.600000" d="M919.94,-617.8C936.78,-619.99 956.9,-622.6 975.88,-625.07"/>
<polygon fill="#8b949e" fill-opacity="0.600000" stroke="#8b949e" stroke-width="1.2" stroke-opacity="0.600000" points="975.54,-627.57 983,-626 976.19,-622.57 975.54,-627.57"/>
</g>
<!-- virrun -->
<g id="node13" class="node">
<title>virrun</title>
<defs>
<linearGradient id="node13_l_14" gradientUnits="userSpaceOnUse" x1="539.99" y1="-724.66" x2="539.99" y2="-688.66" >
<stop offset="0" style="stop-color:#eac2cc;stop-opacity:1.;"/>
<stop offset="1" style="stop-color:#eea0b7;stop-opacity:1.;"/>
</linearGradient>
</defs>
<polygon filter="url(#nodeShadow)" fill="url(#node13_l_14)" stroke="#b33a6a" stroke-width="1.6" points="576.4,-724.66 507.58,-724.66 503.58,-720.66 503.58,-688.66 572.4,-688.66 576.4,-692.66 576.4,-724.66"/>
<polyline fill="none" stroke="#b33a6a" stroke-width="1.6" points="572.4,-720.66 503.58,-720.66"/>
<polyline fill="none" stroke="#b33a6a" stroke-width="1.6" points="572.4,-720.66 572.4,-688.66"/>
<polyline fill="none" stroke="#b33a6a" stroke-width="1.6" points="572.4,-720.66 576.4,-724.66"/>
<text xml:space="preserve" text-anchor="middle" x="539.99" y="-702.76" font-family="Helvetica,sans-Serif" font-size="13.00" fill="#161b22">virrun</text>
</g>
<!-- virrun&#45;&gt;configuration -->
<g id="edge40" class="edge">
<title>virrun&#45;&gt;configuration</title>
<path fill="none" stroke="#8b949e" stroke-width="1.2" stroke-dasharray="5,2" stroke-opacity="0.600000" d="M577.01,-701.41C660.68,-689.21 869.17,-658.83 976.2,-643.23"/>
<polygon fill="#8b949e" fill-opacity="0.600000" stroke="#8b949e" stroke-width="1.2" stroke-opacity="0.600000" points="976.42,-645.74 983.18,-642.21 975.7,-640.76 976.42,-645.74"/>
</g>
<!-- virrun&#45;&gt;shared&#45;node -->
<g id="edge42" class="edge">
<title>virrun&#45;&gt;shared&#45;node</title>
<path fill="none" stroke="#8b949e" stroke-width="1.2" stroke-dasharray="5,2" stroke-opacity="0.600000" d="M577.2,-719.5C599.58,-727.44 628.86,-737.83 654.75,-747.01"/>
<polygon fill="#8b949e" fill-opacity="0.600000" stroke="#8b949e" stroke-width="1.2" stroke-opacity="0.600000" points="653.68,-749.31 661.3,-749.34 655.36,-744.56 653.68,-749.31"/>
</g>
<!-- virrun&#45;&gt;shared -->
<g id="edge41" class="edge">
<title>virrun&#45;&gt;shared</title>
<path fill="none" stroke="#8b949e" stroke-width="1.2" stroke-dasharray="5,2" stroke-opacity="0.600000" d="M577.11,-696.6C638.17,-679.59 761.84,-645.14 830.24,-626.09"/>
<polygon fill="#8b949e" fill-opacity="0.600000" stroke="#8b949e" stroke-width="1.2" stroke-opacity="0.600000" points="830.7,-628.58 836.96,-624.22 829.35,-623.72 830.7,-628.58"/>
</g>
<!-- vue&#45;phaserjs&#45;&gt;configuration -->
<g id="edge43" class="edge">
<title>vue&#45;phaserjs&#45;&gt;configuration</title>
<path fill="none" stroke="#8b949e" stroke-width="1.2" stroke-dasharray="5,2" stroke-opacity="0.600000" d="M420.65,-585.33C522.21,-570.53 740.32,-546.82 919.49,-582.66 947.25,-588.21 976.59,-600.2 999.58,-611.16"/>
<polygon fill="#8b949e" fill-opacity="0.600000" stroke="#8b949e" stroke-width="1.2" stroke-opacity="0.600000" points="998.22,-613.3 1005.8,-614.19 1000.43,-608.77 998.22,-613.3"/>
</g>
<!-- vue&#45;phaserjs&#45;&gt;parse&#45;tmx -->
<g id="edge18" class="edge">
<title>vue&#45;phaserjs&#45;&gt;parse&#45;tmx</title>
<path fill="none" stroke="#207372" stroke-width="2.2" d="M379.08,-613.29C409.84,-650.11 478.59,-732.37 515.11,-776.09"/>
<polygon fill="#207372" stroke="#207372" stroke-width="2.2" points="512.22,-778.08 521.32,-783.51 517.59,-773.59 512.22,-778.08"/>
</g>
<!-- vue&#45;phaserjs&#45;&gt;shared -->
<g id="edge19" class="edge">
<title>vue&#45;phaserjs&#45;&gt;shared</title>
<path fill="none" stroke="#207372" stroke-width="2.2" d="M420.58,-596.65C521.02,-600.16 727.93,-607.4 825.43,-610.8"/>
<polygon fill="#207372" stroke="#207372" stroke-width="2.2" points="825.27,-614.3 835.38,-611.15 825.51,-607.31 825.27,-614.3"/>
</g>
<!-- xml2js&#45;&gt;configuration -->
<g id="edge48" class="edge">
<title>xml2js&#45;&gt;configuration</title>
<path fill="none" stroke="#8b949e" stroke-width="1.2" stroke-dasharray="5,2" stroke-opacity="0.600000" d="M756.11,-812.11C797.58,-793.62 865.06,-761.76 919.49,-727.66 953.38,-706.43 989.36,-678 1013.46,-657.98"/>
<polygon fill="#8b949e" fill-opacity="0.600000" stroke="#8b949e" stroke-width="1.2" stroke-opacity="0.600000" points="1014.94,-660.03 1018.85,-653.48 1011.71,-656.17 1014.94,-660.03"/>
</g>
<!-- xml2js&#45;&gt;shared -->
<g id="edge26" class="edge">
<title>xml2js&#45;&gt;shared</title>
<path fill="none" stroke="#207372" stroke-width="2.2" d="M755.97,-811.82C762.23,-808.05 768.33,-803.65 773.42,-798.66 819.58,-753.4 851.57,-683.55 867.29,-643.57"/>
<polygon fill="#207372" stroke="#207372" stroke-width="2.2" points="870.52,-644.94 870.81,-634.35 863.98,-642.45 870.52,-644.94"/>
</g>
</g>
</svg>
