<?xml version="1.0" encoding="UTF-8" standalone="no"?>
<!DOCTYPE svg PUBLIC "-//W3C//DTD SVG 1.1//EN"
 "http://www.w3.org/Graphics/SVG/1.1/DTD/svg11.dtd">
<!-- Generated by graphviz version 5.0.0 (20220707.1540)
 -->
<!-- Title: dependency&#45;cruiser output Pages: 1 -->
<svg width="484pt" height="268pt"
 viewBox="0.00 0.00 483.86 268.00" xmlns="http://www.w3.org/2000/svg" xmlns:xlink="http://www.w3.org/1999/xlink">
<g id="graph0" class="graph" transform="scale(1 1) rotate(0) translate(4 264)">
<title>dependency&#45;cruiser output</title>
<polygon fill="white" stroke="transparent" points="-4,4 -4,-264 479.86,-264 479.86,4 -4,4"/>
<g id="clust1" class="cluster">
<title>cluster_packages</title>
<path fill="#ffffff" stroke="black" stroke-width="2" d="M20,-8C20,-8 455.86,-8 455.86,-8 461.86,-8 467.86,-14 467.86,-20 467.86,-20 467.86,-240 467.86,-240 467.86,-246 461.86,-252 455.86,-252 455.86,-252 20,-252 20,-252 14,-252 8,-246 8,-240 8,-240 8,-20 8,-20 8,-14 14,-8 20,-8"/>
<text text-anchor="middle" x="237.93" y="-239.9" font-family="Times" font-size="9.00">packages</text>
</g>
<!-- packages/azure&#45;functions/ -->
<g id="node1" class="node">
<title>packages/azure&#45;functions/</title>
<g id="a_node1"><a xlink:href="packages/azure-functions/" xlink:title="azure&#45;functions">
<polygon fill="#ffffcc" stroke="black" points="125.93,-215.3 18.09,-215.3 16.02,-213.23 16.02,-196.7 123.87,-196.7 125.93,-198.77 125.93,-215.3"/>
<polyline fill="none" stroke="black" points="123.87,-213.23 16.02,-213.23 "/>
<polyline fill="none" stroke="black" points="123.87,-213.23 123.87,-196.7 "/>
<polyline fill="none" stroke="black" points="123.87,-213.23 125.93,-215.3 "/>
<text text-anchor="middle" x="70.98" y="-203.3" font-family="Times" font-size="9.00">packages/azure&#45;functions/</text>
</a>
</g>
</g>
<!-- packages/db&#45;schema/ -->
<g id="node2" class="node">
<title>packages/db&#45;schema/</title>
<g id="a_node2"><a xlink:href="packages/db-schema/" xlink:title="db&#45;schema">
<polygon fill="#ffffcc" stroke="black" points="358.37,-171.3 267.51,-171.3 265.44,-169.23 265.44,-152.7 356.31,-152.7 358.37,-154.77 358.37,-171.3"/>
<polyline fill="none" stroke="black" points="356.31,-169.23 265.44,-169.23 "/>
<polyline fill="none" stroke="black" points="356.31,-169.23 356.31,-152.7 "/>
<polyline fill="none" stroke="black" points="356.31,-169.23 358.37,-171.3 "/>
<text text-anchor="middle" x="311.91" y="-159.3" font-family="Times" font-size="9.00">packages/db&#45;schema/</text>
</a>
</g>
</g>
<!-- packages/azure&#45;functions/&#45;&gt;packages/db&#45;schema/ -->
<g id="edge1" class="edge">
<title>packages/azure&#45;functions/&#45;&gt;packages/db&#45;schema/</title>
<path fill="none" stroke="#000000" stroke-width="2" stroke-opacity="0.200000" d="M101.77,-196.64C113.3,-193.25 126.66,-189.63 138.96,-187 178.95,-178.46 224.8,-171.95 259.1,-167.72"/>
<polygon fill="#000000" fill-opacity="0.200000" stroke="#000000" stroke-width="2" stroke-opacity="0.200000" points="259.66,-169.77 265.36,-166.96 259.15,-165.6 259.66,-169.77"/>
</g>
<!-- packages/shared/ -->
<g id="node3" class="node">
<title>packages/shared/</title>
<g id="a_node3"><a xlink:href="packages/shared/" xlink:title="shared">
<polygon fill="#ffffcc" stroke="black" points="460.1,-140.3 384.22,-140.3 382.15,-138.23 382.15,-121.7 458.03,-121.7 460.1,-123.77 460.1,-140.3"/>
<polyline fill="none" stroke="black" points="458.03,-138.23 382.15,-138.23 "/>
<polyline fill="none" stroke="black" points="458.03,-138.23 458.03,-121.7 "/>
<polyline fill="none" stroke="black" points="458.03,-138.23 460.1,-140.3 "/>
<text text-anchor="middle" x="421.13" y="-128.3" font-family="Times" font-size="9.00">packages/shared/</text>
</a>
</g>
</g>
<!-- packages/azure&#45;functions/&#45;&gt;packages/shared/ -->
<g id="edge2" class="edge">
<title>packages/azure&#45;functions/&#45;&gt;packages/shared/</title>
<path fill="none" stroke="#000000" stroke-width="2" stroke-opacity="0.200000" d="M104.7,-215.4C162.65,-230.05 285.13,-251.77 369.39,-202 391.23,-189.1 406.21,-162.7 413.95,-145.98"/>
<polygon fill="#000000" fill-opacity="0.200000" stroke="#000000" stroke-width="2" stroke-opacity="0.200000" points="415.96,-146.64 416.48,-140.3 412.12,-144.93 415.96,-146.64"/>
</g>
<!-- packages/db/ -->
<g id="node4" class="node">
<title>packages/db/</title>
<g id="a_node4"><a xlink:href="packages/db/" xlink:title="db">
<polygon fill="#ffffcc" stroke="black" points="221.67,-211.3 160.77,-211.3 158.71,-209.23 158.71,-192.7 219.6,-192.7 221.67,-194.77 221.67,-211.3"/>
<polyline fill="none" stroke="black" points="219.6,-209.23 158.71,-209.23 "/>
<polyline fill="none" stroke="black" points="219.6,-209.23 219.6,-192.7 "/>
<polyline fill="none" stroke="black" points="219.6,-209.23 221.67,-211.3 "/>
<text text-anchor="middle" x="190.19" y="-199.3" font-family="Times" font-size="9.00">packages/db/</text>
</a>
</g>
</g>
<!-- packages/azure&#45;functions/&#45;&gt;packages/db/ -->
<g id="edge3" class="edge">
<title>packages/azure&#45;functions/&#45;&gt;packages/db/</title>
<path fill="none" stroke="#000000" stroke-width="2" stroke-opacity="0.200000" d="M126.12,-204.15C135.01,-203.85 144.04,-203.54 152.38,-203.26"/>
<polygon fill="#000000" fill-opacity="0.200000" stroke="#000000" stroke-width="2" stroke-opacity="0.200000" points="152.69,-205.35 158.61,-203.04 152.55,-201.15 152.69,-205.35"/>
</g>
<!-- packages/db&#45;schema/&#45;&gt;packages/shared/ -->
<g id="edge8" class="edge">
<title>packages/db&#45;schema/&#45;&gt;packages/shared/</title>
<path fill="none" stroke="#000000" stroke-width="2" stroke-opacity="0.200000" d="M346.08,-152.67C353.74,-150.5 361.85,-148.18 369.39,-146 373.8,-144.73 378.41,-143.38 382.99,-142.03"/>
<polygon fill="#000000" fill-opacity="0.200000" stroke="#000000" stroke-width="2" stroke-opacity="0.200000" points="383.59,-144.05 388.75,-140.34 382.4,-140.02 383.59,-144.05"/>
</g>
<!-- packages/db/&#45;&gt;packages/db&#45;schema/ -->
<g id="edge9" class="edge">
<title>packages/db/&#45;&gt;packages/db&#45;schema/</title>
<path fill="none" stroke="#000000" stroke-width="2" stroke-opacity="0.200000" d="M219.26,-192.62C236.52,-186.85 258.75,-179.43 276.99,-173.33"/>
<polygon fill="#000000" fill-opacity="0.200000" stroke="#000000" stroke-width="2" stroke-opacity="0.200000" points="277.99,-175.21 283.01,-171.32 276.66,-171.23 277.99,-175.21"/>
</g>
<!-- packages/db/&#45;&gt;packages/shared/ -->
<g id="edge10" class="edge">
<title>packages/db/&#45;&gt;packages/shared/</title>
<path fill="none" stroke="#000000" stroke-width="2" stroke-opacity="0.200000" d="M221.69,-206.23C258.69,-209.93 322,-211.53 369.39,-188 387.87,-178.82 402.64,-159.71 411.38,-146.15"/>
<polygon fill="#000000" fill-opacity="0.200000" stroke="#000000" stroke-width="2" stroke-opacity="0.200000" points="413.37,-146.93 414.75,-140.73 409.8,-144.72 413.37,-146.93"/>
</g>
<!-- packages/azure&#45;mock/ -->
<g id="node5" class="node">
<title>packages/azure&#45;mock/</title>
<g id="a_node5"><a xlink:href="packages/azure-mock/" xlink:title="azure&#45;mock">
<polygon fill="#ffffcc" stroke="black" points="119.43,-184.3 24.59,-184.3 22.52,-182.23 22.52,-165.7 117.37,-165.7 119.43,-167.77 119.43,-184.3"/>
<polyline fill="none" stroke="black" points="117.37,-182.23 22.52,-182.23 "/>
<polyline fill="none" stroke="black" points="117.37,-182.23 117.37,-165.7 "/>
<polyline fill="none" stroke="black" points="117.37,-182.23 119.43,-184.3 "/>
<text text-anchor="middle" x="70.98" y="-172.3" font-family="Times" font-size="9.00">packages/azure&#45;mock/</text>
</a>
</g>
</g>
<!-- packages/azure&#45;mock/&#45;&gt;packages/db&#45;schema/ -->
<g id="edge6" class="edge">
<title>packages/azure&#45;mock/&#45;&gt;packages/db&#45;schema/</title>
<path fill="none" stroke="#000000" stroke-width="2" stroke-opacity="0.200000" d="M81.82,-165.32C94.03,-154.06 116.05,-136.11 138.96,-129 182.45,-115.5 200.59,-108.82 241.42,-129 249.95,-133.21 246.56,-140.65 254.42,-146 256.6,-147.48 258.92,-148.83 261.32,-150.05"/>
<polygon fill="#000000" fill-opacity="0.200000" stroke="#000000" stroke-width="2" stroke-opacity="0.200000" points="260.74,-152.09 267.07,-152.68 262.49,-148.27 260.74,-152.09"/>
</g>
<!-- packages/azure&#45;mock/&#45;&gt;packages/shared/ -->
<g id="edge4" class="edge">
<title>packages/azure&#45;mock/&#45;&gt;packages/shared/</title>
<path fill="none" stroke="#000000" stroke-width="2" stroke-opacity="0.200000" d="M119.39,-179.49C191.55,-185.63 325.19,-194.05 369.39,-177 385.74,-170.69 400.09,-156.39 409.31,-145.4"/>
<polygon fill="#000000" fill-opacity="0.200000" stroke="#000000" stroke-width="2" stroke-opacity="0.200000" points="411.04,-146.61 413.18,-140.62 407.77,-143.96 411.04,-146.61"/>
</g>
<!-- packages/azure&#45;mock/&#45;&gt;packages/db/ -->
<g id="edge5" class="edge">
<title>packages/azure&#45;mock/&#45;&gt;packages/db/</title>
<path fill="none" stroke="#000000" stroke-width="2" stroke-opacity="0.200000" d="M112.64,-184.37C125.6,-187.35 139.85,-190.63 152.5,-193.55"/>
<polygon fill="#000000" fill-opacity="0.200000" stroke="#000000" stroke-width="2" stroke-opacity="0.200000" points="152.26,-195.65 158.58,-194.95 153.2,-191.56 152.26,-195.65"/>
</g>
<!-- packages/configuration/ -->
<g id="node6" class="node">
<title>packages/configuration/</title>
<g id="a_node6"><a xlink:href="packages/configuration/" xlink:title="configuration">
<polygon fill="#ffffcc" stroke="black" points="241.66,-34.3 140.79,-34.3 138.72,-32.23 138.72,-15.7 239.59,-15.7 241.66,-17.77 241.66,-34.3"/>
<polyline fill="none" stroke="black" points="239.59,-32.23 138.72,-32.23 "/>
<polyline fill="none" stroke="black" points="239.59,-32.23 239.59,-15.7 "/>
<polyline fill="none" stroke="black" points="239.59,-32.23 241.66,-34.3 "/>
<text text-anchor="middle" x="190.19" y="-22.3" font-family="Times" font-size="9.00">packages/configuration/</text>
</a>
</g>
</g>
<!-- packages/db&#45;mock/ -->
<g id="node7" class="node">
<title>packages/db&#45;mock/</title>
<g id="a_node7"><a xlink:href="packages/db-mock/" xlink:title="db&#45;mock">
<polygon fill="#ffffcc" stroke="black" points="233.16,-109.3 149.28,-109.3 147.21,-107.23 147.21,-90.7 231.1,-90.7 233.16,-92.77 233.16,-109.3"/>
<polyline fill="none" stroke="black" points="231.1,-107.23 147.21,-107.23 "/>
<polyline fill="none" stroke="black" points="231.1,-107.23 231.1,-90.7 "/>
<polyline fill="none" stroke="black" points="231.1,-107.23 233.16,-109.3 "/>
<text text-anchor="middle" x="190.19" y="-97.3" font-family="Times" font-size="9.00">packages/db&#45;mock/</text>
</a>
</g>
</g>
<!-- packages/db&#45;mock/&#45;&gt;packages/db&#45;schema/ -->
<g id="edge7" class="edge">
<title>packages/db&#45;mock/&#45;&gt;packages/db&#45;schema/</title>
<path fill="none" stroke="#000000" stroke-width="2" stroke-opacity="0.200000" d="M228.25,-109.39C233.03,-111.67 237.59,-114.5 241.42,-118 251.55,-127.25 243.98,-137.1 254.42,-146 256.15,-147.48 258.01,-148.82 259.96,-150.03"/>
<polygon fill="#000000" fill-opacity="0.200000" stroke="#000000" stroke-width="2" stroke-opacity="0.200000" points="259.04,-151.92 265.31,-152.97 261.07,-148.24 259.04,-151.92"/>
</g>
<!-- packages/infra/ -->
<g id="node8" class="node">
<title>packages/infra/</title>
<g id="a_node8"><a xlink:href="packages/infra/" xlink:title="infra">
<polygon fill="#ffffcc" stroke="black" points="225.66,-153.3 156.78,-153.3 154.72,-151.23 154.72,-134.7 223.59,-134.7 225.66,-136.77 225.66,-153.3"/>
<polyline fill="none" stroke="black" points="223.59,-151.23 154.72,-151.23 "/>
<polyline fill="none" stroke="black" points="223.59,-151.23 223.59,-134.7 "/>
<polyline fill="none" stroke="black" points="223.59,-151.23 225.66,-153.3 "/>
<text text-anchor="middle" x="190.19" y="-141.3" font-family="Times" font-size="9.00">packages/infra/</text>
</a>
</g>
</g>
<!-- packages/infra/&#45;&gt;packages/db&#45;schema/ -->
<g id="edge11" class="edge">
<title>packages/infra/&#45;&gt;packages/db&#45;schema/</title>
<path fill="none" stroke="#000000" stroke-width="2" stroke-opacity="0.200000" d="M225.82,-149.21C236.19,-150.77 247.8,-152.51 259.02,-154.2"/>
<polygon fill="#000000" fill-opacity="0.200000" stroke="#000000" stroke-width="2" stroke-opacity="0.200000" points="258.97,-156.31 265.21,-155.13 259.59,-152.16 258.97,-156.31"/>
</g>
<!-- packages/parse&#45;tmx/ -->
<g id="node9" class="node">
<title>packages/parse&#45;tmx/</title>
<g id="a_node9"><a xlink:href="packages/parse-tmx/" xlink:title="parse&#45;tmx">
<polygon fill="#ffffcc" stroke="black" points="235.16,-65.3 147.29,-65.3 145.22,-63.23 145.22,-46.7 233.09,-46.7 235.16,-48.77 235.16,-65.3"/>
<polyline fill="none" stroke="black" points="233.09,-63.23 145.22,-63.23 "/>
<polyline fill="none" stroke="black" points="233.09,-63.23 233.09,-46.7 "/>
<polyline fill="none" stroke="black" points="233.09,-63.23 235.16,-65.3 "/>
<text text-anchor="middle" x="190.19" y="-53.3" font-family="Times" font-size="9.00">packages/parse&#45;tmx/</text>
</a>
</g>
</g>
<!-- packages/parse&#45;tmx/&#45;&gt;packages/shared/ -->
<g id="edge12" class="edge">
<title>packages/parse&#45;tmx/&#45;&gt;packages/shared/</title>
<path fill="none" stroke="#000000" stroke-width="2" stroke-opacity="0.200000" d="M224.08,-46.67C233.77,-44.34 244.45,-42.17 254.42,-41 305.17,-35.06 325.27,-15.22 369.39,-41 396.9,-57.07 410.66,-94.17 416.51,-115.38"/>
<polygon fill="#000000" fill-opacity="0.200000" stroke="#000000" stroke-width="2" stroke-opacity="0.200000" points="414.53,-116.13 418.07,-121.41 418.6,-115.07 414.53,-116.13"/>
</g>
<!-- packages/xml2js/ -->
<g id="node10" class="node">
<title>packages/xml2js/</title>
<g id="a_node10"><a xlink:href="packages/xml2js/" xlink:title="xml2js">
<polygon fill="#ffffcc" stroke="black" points="351.39,-65.3 274.49,-65.3 272.42,-63.23 272.42,-46.7 349.33,-46.7 351.39,-48.77 351.39,-65.3"/>
<polyline fill="none" stroke="black" points="349.33,-63.23 272.42,-63.23 "/>
<polyline fill="none" stroke="black" points="349.33,-63.23 349.33,-46.7 "/>
<polyline fill="none" stroke="black" points="349.33,-63.23 351.39,-65.3 "/>
<text text-anchor="middle" x="311.91" y="-53.3" font-family="Times" font-size="9.00">packages/xml2js/</text>
</a>
</g>
</g>
<!-- packages/parse&#45;tmx/&#45;&gt;packages/xml2js/ -->
<g id="edge13" class="edge">
<title>packages/parse&#45;tmx/&#45;&gt;packages/xml2js/</title>
<path fill="none" stroke="#000000" stroke-width="2" stroke-opacity="0.200000" d="M235.43,-56C245.47,-56 256.14,-56 266.19,-56"/>
<polygon fill="#000000" fill-opacity="0.200000" stroke="#000000" stroke-width="2" stroke-opacity="0.200000" points="266.37,-58.1 272.37,-56 266.37,-53.9 266.37,-58.1"/>
</g>
<!-- packages/xml2js/&#45;&gt;packages/shared/ -->
<g id="edge19" class="edge">
<title>packages/xml2js/&#45;&gt;packages/shared/</title>
<path fill="none" stroke="#000000" stroke-width="2" stroke-opacity="0.200000" d="M351.24,-65.13C357.57,-67.49 363.87,-70.41 369.39,-74 386.5,-85.11 401.39,-103.48 410.53,-116.36"/>
<polygon fill="#000000" fill-opacity="0.200000" stroke="#000000" stroke-width="2" stroke-opacity="0.200000" points="408.95,-117.76 414.09,-121.5 412.4,-115.37 408.95,-117.76"/>
</g>
<!-- packages/sandbox&#45;runtime/ -->
<g id="node11" class="node">
<title>packages/sandbox&#45;runtime/</title>
<g id="a_node11"><a xlink:href="packages/sandbox-runtime/" xlink:title="sandbox&#45;runtime">
<polygon fill="#ffffcc" stroke="black" points="369.38,-140.3 256.5,-140.3 254.44,-138.23 254.44,-121.7 367.31,-121.7 369.38,-123.77 369.38,-140.3"/>
<polyline fill="none" stroke="black" points="367.31,-138.23 254.44,-138.23 "/>
<polyline fill="none" stroke="black" points="367.31,-138.23 367.31,-121.7 "/>
<polyline fill="none" stroke="black" points="367.31,-138.23 369.38,-140.3 "/>
<text text-anchor="middle" x="311.91" y="-128.3" font-family="Times" font-size="9.00">packages/sandbox&#45;runtime/</text>
</a>
</g>
</g>
<!-- packages/sandbox&#45;runtime/&#45;&gt;packages/shared/ -->
<g id="edge14" class="edge">
<title>packages/sandbox&#45;runtime/&#45;&gt;packages/shared/</title>
<path fill="none" stroke="#000000" stroke-width="2" stroke-opacity="0.200000" d="M369.66,-131C371.77,-131 373.87,-131 375.95,-131"/>
<polygon fill="#000000" fill-opacity="0.200000" stroke="#000000" stroke-width="2" stroke-opacity="0.200000" points="376.13,-133.1 382.13,-131 376.13,-128.9 376.13,-133.1"/>
</g>
<!-- packages/shared&#45;node/ -->
<g id="node12" class="node">
<title>packages/shared&#45;node/</title>
<g id="a_node12"><a xlink:href="packages/shared-node/" xlink:title="shared&#45;node">
<polygon fill="#ffffcc" stroke="black" points="360.87,-109.3 265.01,-109.3 262.94,-107.23 262.94,-90.7 358.8,-90.7 360.87,-92.77 360.87,-109.3"/>
<polyline fill="none" stroke="black" points="358.8,-107.23 262.94,-107.23 "/>
<polyline fill="none" stroke="black" points="358.8,-107.23 358.8,-90.7 "/>
<polyline fill="none" stroke="black" points="358.8,-107.23 360.87,-109.3 "/>
<text text-anchor="middle" x="311.91" y="-97.3" font-family="Times" font-size="9.00">packages/shared&#45;node/</text>
</a>
</g>
</g>
<!-- packages/shared&#45;node/&#45;&gt;packages/shared/ -->
<g id="edge15" class="edge">
<title>packages/shared&#45;node/&#45;&gt;packages/shared/</title>
<path fill="none" stroke="#000000" stroke-width="2" stroke-opacity="0.200000" d="M346.08,-109.33C353.74,-111.5 361.85,-113.82 369.39,-116 373.8,-117.27 378.41,-118.62 382.99,-119.97"/>
<polygon fill="#000000" fill-opacity="0.200000" stroke="#000000" stroke-width="2" stroke-opacity="0.200000" points="382.4,-121.98 388.75,-121.66 383.59,-117.95 382.4,-121.98"/>
</g>
<!-- packages/vue&#45;phaserjs/ -->
<g id="node13" class="node">
<title>packages/vue&#45;phaserjs/</title>
<g id="a_node13"><a xlink:href="packages/vue-phaserjs/" xlink:title="vue&#45;phaserjs">
<polygon fill="#ffffcc" stroke="black" points="120.94,-65.3 23.08,-65.3 21.01,-63.23 21.01,-46.7 118.88,-46.7 120.94,-48.77 120.94,-65.3"/>
<polyline fill="none" stroke="black" points="118.88,-63.23 21.01,-63.23 "/>
<polyline fill="none" stroke="black" points="118.88,-63.23 118.88,-46.7 "/>
<polyline fill="none" stroke="black" points="118.88,-63.23 120.94,-65.3 "/>
<text text-anchor="middle" x="70.98" y="-53.3" font-family="Times" font-size="9.00">packages/vue&#45;phaserjs/</text>
</a>
</g>
</g>
<!-- packages/vue&#45;phaserjs/&#45;&gt;packages/shared/ -->
<g id="edge17" class="edge">
<title>packages/vue&#45;phaserjs/&#45;&gt;packages/shared/</title>
<path fill="none" stroke="#000000" stroke-width="2" stroke-opacity="0.200000" d="M108.63,-65.32C118.43,-67.5 129.04,-69.6 138.96,-71 189.75,-78.18 322.11,-65.09 369.39,-85 385.55,-91.8 399.92,-106.03 409.21,-116.87"/>
<polygon fill="#000000" fill-opacity="0.200000" stroke="#000000" stroke-width="2" stroke-opacity="0.200000" points="407.66,-118.29 413.1,-121.57 410.89,-115.61 407.66,-118.29"/>
</g>
<!-- packages/vue&#45;phaserjs/&#45;&gt;packages/configuration/ -->
<g id="edge16" class="edge">
<title>packages/vue&#45;phaserjs/&#45;&gt;packages/configuration/</title>
<path fill="none" stroke="#000000" stroke-width="2" stroke-opacity="0.200000" d="M107.46,-46.61C120.2,-43.25 134.67,-39.42 147.86,-35.93"/>
<polygon fill="#000000" fill-opacity="0.200000" stroke="#000000" stroke-width="2" stroke-opacity="0.200000" points="148.56,-37.92 153.82,-34.35 147.49,-33.86 148.56,-37.92"/>
</g>
<!-- packages/vue&#45;phaserjs/&#45;&gt;packages/parse&#45;tmx/ -->
<g id="edge18" class="edge">
<title>packages/vue&#45;phaserjs/&#45;&gt;packages/parse&#45;tmx/</title>
<path fill="none" stroke="#000000" stroke-width="2" stroke-opacity="0.200000" d="M121.01,-56C126.9,-56 132.93,-56 138.85,-56"/>
<polygon fill="#000000" fill-opacity="0.200000" stroke="#000000" stroke-width="2" stroke-opacity="0.200000" points="139.21,-58.1 145.21,-56 139.21,-53.9 139.21,-58.1"/>
</g>
</g>
</svg>
