<?xml version="1.0" encoding="UTF-8" standalone="no"?>
<!DOCTYPE svg PUBLIC "-//W3C//DTD SVG 1.1//EN"
 "http://www.w3.org/Graphics/SVG/1.1/DTD/svg11.dtd">
<!-- Generated by graphviz version 5.0.0 (20220707.1540)
 -->
<!-- Title: dependency&#45;cruiser output Pages: 1 -->
<svg width="462pt" height="268pt"
 viewBox="0.00 0.00 461.86 268.00" xmlns="http://www.w3.org/2000/svg" xmlns:xlink="http://www.w3.org/1999/xlink">
<g id="graph0" class="graph" transform="scale(1 1) rotate(0) translate(4 264)">
<title>dependency&#45;cruiser output</title>
<polygon fill="white" stroke="transparent" points="-4,4 -4,-264 457.86,-264 457.86,4 -4,4"/>
<g id="clust1" class="cluster">
<title>cluster_packages</title>
<path fill="#ffffff" stroke="black" stroke-width="2" d="M20,-8C20,-8 433.86,-8 433.86,-8 439.86,-8 445.86,-14 445.86,-20 445.86,-20 445.86,-240 445.86,-240 445.86,-246 439.86,-252 433.86,-252 433.86,-252 20,-252 20,-252 14,-252 8,-246 8,-240 8,-240 8,-20 8,-20 8,-14 14,-8 20,-8"/>
<text text-anchor="middle" x="226.93" y="-239.9" font-family="Times" font-size="9.00">packages</text>
</g>
<!-- packages/azure&#45;functions/ -->
<g id="node1" class="node">
<title>packages/azure&#45;functions/</title>
<g id="a_node1"><a xlink:href="packages/azure-functions/" xlink:title="azure&#45;functions">
<polygon fill="#ffffcc" stroke="black" points="125.93,-215.3 18.09,-215.3 16.02,-213.23 16.02,-196.7 123.87,-196.7 125.93,-198.77 125.93,-215.3"/>
<polyline fill="none" stroke="black" points="123.87,-213.23 16.02,-213.23 "/>
<polyline fill="none" stroke="black" points="123.87,-213.23 123.87,-196.7 "/>
<polyline fill="none" stroke="black" points="123.87,-213.23 125.93,-215.3 "/>
<text text-anchor="middle" x="70.98" y="-203.3" font-family="Times" font-size="9.00">packages/azure&#45;functions/</text>
</a>
</g>
</g>
<!-- packages/db&#45;schema/ -->
<g id="node2" class="node">
<title>packages/db&#45;schema/</title>
<g id="a_node2"><a xlink:href="packages/db-schema/" xlink:title="db&#45;schema">
<polygon fill="#ffffcc" stroke="black" points="347.37,-153.3 256.51,-153.3 254.44,-151.23 254.44,-134.7 345.3,-134.7 347.37,-136.77 347.37,-153.3"/>
<polyline fill="none" stroke="black" points="345.3,-151.23 254.44,-151.23 "/>
<polyline fill="none" stroke="black" points="345.3,-151.23 345.3,-134.7 "/>
<polyline fill="none" stroke="black" points="345.3,-151.23 347.37,-153.3 "/>
<text text-anchor="middle" x="300.9" y="-141.3" font-family="Times" font-size="9.00">packages/db&#45;schema/</text>
</a>
</g>
</g>
<!-- packages/azure&#45;functions/&#45;&gt;packages/db&#45;schema/ -->
<g id="edge1" class="edge">
<title>packages/azure&#45;functions/&#45;&gt;packages/db&#45;schema/</title>
<path fill="none" stroke="#000000" stroke-width="2" stroke-opacity="0.200000" d="M104.65,-196.62C115.55,-193.52 127.77,-190.08 138.96,-187 179.51,-175.83 225.94,-163.47 258.47,-154.88"/>
<polygon fill="#000000" fill-opacity="0.200000" stroke="#000000" stroke-width="2" stroke-opacity="0.200000" points="259.12,-156.88 264.38,-153.32 258.04,-152.82 259.12,-156.88"/>
</g>
<!-- packages/shared/ -->
<g id="node3" class="node">
<title>packages/shared/</title>
<g id="a_node3"><a xlink:href="packages/shared/" xlink:title="shared">
<polygon fill="#ffffcc" stroke="black" points="438.1,-153.3 362.22,-153.3 360.15,-151.23 360.15,-134.7 436.03,-134.7 438.1,-136.77 438.1,-153.3"/>
<polyline fill="none" stroke="black" points="436.03,-151.23 360.15,-151.23 "/>
<polyline fill="none" stroke="black" points="436.03,-151.23 436.03,-134.7 "/>
<polyline fill="none" stroke="black" points="436.03,-151.23 438.1,-153.3 "/>
<text text-anchor="middle" x="399.12" y="-141.3" font-family="Times" font-size="9.00">packages/shared/</text>
</a>
</g>
</g>
<!-- packages/azure&#45;functions/&#45;&gt;packages/shared/ -->
<g id="edge2" class="edge">
<title>packages/azure&#45;functions/&#45;&gt;packages/shared/</title>
<path fill="none" stroke="#000000" stroke-width="2" stroke-opacity="0.200000" d="M112.25,-215.31C168.62,-226.09 272.53,-237.59 347.39,-197 364.44,-187.76 379.15,-170.76 388.28,-158.5"/>
<polygon fill="#000000" fill-opacity="0.200000" stroke="#000000" stroke-width="2" stroke-opacity="0.200000" points="390.03,-159.67 391.84,-153.58 386.62,-157.21 390.03,-159.67"/>
</g>
<!-- packages/db/ -->
<g id="node4" class="node">
<title>packages/db/</title>
<g id="a_node4"><a xlink:href="packages/db/" xlink:title="db">
<polygon fill="#ffffcc" stroke="black" points="221.67,-211.3 160.77,-211.3 158.71,-209.23 158.71,-192.7 219.6,-192.7 221.67,-194.77 221.67,-211.3"/>
<polyline fill="none" stroke="black" points="219.6,-209.23 158.71,-209.23 "/>
<polyline fill="none" stroke="black" points="219.6,-209.23 219.6,-192.7 "/>
<polyline fill="none" stroke="black" points="219.6,-209.23 221.67,-211.3 "/>
<text text-anchor="middle" x="190.19" y="-199.3" font-family="Times" font-size="9.00">packages/db/</text>
</a>
</g>
</g>
<!-- packages/azure&#45;functions/&#45;&gt;packages/db/ -->
<g id="edge3" class="edge">
<title>packages/azure&#45;functions/&#45;&gt;packages/db/</title>
<path fill="none" stroke="#000000" stroke-width="2" stroke-opacity="0.200000" d="M126.12,-204.15C135.01,-203.85 144.04,-203.54 152.38,-203.26"/>
<polygon fill="#000000" fill-opacity="0.200000" stroke="#000000" stroke-width="2" stroke-opacity="0.200000" points="152.69,-205.35 158.61,-203.04 152.55,-201.15 152.69,-205.35"/>
</g>
<!-- packages/db&#45;schema/&#45;&gt;packages/shared/ -->
<g id="edge8" class="edge">
<title>packages/db&#45;schema/&#45;&gt;packages/shared/</title>
<path fill="none" stroke="#000000" stroke-width="2" stroke-opacity="0.200000" d="M347.48,-144C349.62,-144 351.76,-144 353.89,-144"/>
<polygon fill="#000000" fill-opacity="0.200000" stroke="#000000" stroke-width="2" stroke-opacity="0.200000" points="354.25,-146.1 360.25,-144 354.25,-141.9 354.25,-146.1"/>
</g>
<!-- packages/db/&#45;&gt;packages/db&#45;schema/ -->
<g id="edge9" class="edge">
<title>packages/db/&#45;&gt;packages/db&#45;schema/</title>
<path fill="none" stroke="#000000" stroke-width="2" stroke-opacity="0.200000" d="M208.66,-192.68C227.09,-182.85 256.24,-167.29 276.62,-156.42"/>
<polygon fill="#000000" fill-opacity="0.200000" stroke="#000000" stroke-width="2" stroke-opacity="0.200000" points="277.81,-158.17 282.12,-153.49 275.84,-154.46 277.81,-158.17"/>
</g>
<!-- packages/db/&#45;&gt;packages/shared/ -->
<g id="edge10" class="edge">
<title>packages/db/&#45;&gt;packages/shared/</title>
<path fill="none" stroke="#000000" stroke-width="2" stroke-opacity="0.200000" d="M221.77,-203.32C254.18,-203.62 306.25,-200.96 347.39,-184 361.82,-178.05 375.56,-166.74 385.09,-157.66"/>
<polygon fill="#000000" fill-opacity="0.200000" stroke="#000000" stroke-width="2" stroke-opacity="0.200000" points="386.61,-159.12 389.42,-153.42 383.67,-156.12 386.61,-159.12"/>
</g>
<!-- packages/azure&#45;mock/ -->
<g id="node5" class="node">
<title>packages/azure&#45;mock/</title>
<g id="a_node5"><a xlink:href="packages/azure-mock/" xlink:title="azure&#45;mock">
<polygon fill="#ffffcc" stroke="black" points="119.43,-184.3 24.59,-184.3 22.52,-182.23 22.52,-165.7 117.37,-165.7 119.43,-167.77 119.43,-184.3"/>
<polyline fill="none" stroke="black" points="117.37,-182.23 22.52,-182.23 "/>
<polyline fill="none" stroke="black" points="117.37,-182.23 117.37,-165.7 "/>
<polyline fill="none" stroke="black" points="117.37,-182.23 119.43,-184.3 "/>
<text text-anchor="middle" x="70.98" y="-172.3" font-family="Times" font-size="9.00">packages/azure&#45;mock/</text>
</a>
</g>
</g>
<!-- packages/azure&#45;mock/&#45;&gt;packages/db&#45;schema/ -->
<g id="edge6" class="edge">
<title>packages/azure&#45;mock/&#45;&gt;packages/db&#45;schema/</title>
<path fill="none" stroke="#000000" stroke-width="2" stroke-opacity="0.200000" d="M81.82,-165.32C94.03,-154.06 116.05,-136.11 138.96,-129 180.84,-116 231.57,-124.46 264.73,-133.03"/>
<polygon fill="#000000" fill-opacity="0.200000" stroke="#000000" stroke-width="2" stroke-opacity="0.200000" points="264.37,-135.11 270.71,-134.62 265.45,-131.05 264.37,-135.11"/>
</g>
<!-- packages/azure&#45;mock/&#45;&gt;packages/shared/ -->
<g id="edge4" class="edge">
<title>packages/azure&#45;mock/&#45;&gt;packages/shared/</title>
<path fill="none" stroke="#000000" stroke-width="2" stroke-opacity="0.200000" d="M119.63,-175.53C174.84,-175.38 268.36,-172.79 347.39,-159 353.04,-158.01 358.95,-156.62 364.65,-155.07"/>
<polygon fill="#000000" fill-opacity="0.200000" stroke="#000000" stroke-width="2" stroke-opacity="0.200000" points="365.55,-157 370.75,-153.34 364.4,-152.96 365.55,-157"/>
</g>
<!-- packages/azure&#45;mock/&#45;&gt;packages/db/ -->
<g id="edge5" class="edge">
<title>packages/azure&#45;mock/&#45;&gt;packages/db/</title>
<path fill="none" stroke="#000000" stroke-width="2" stroke-opacity="0.200000" d="M112.64,-184.37C125.6,-187.35 139.85,-190.63 152.5,-193.55"/>
<polygon fill="#000000" fill-opacity="0.200000" stroke="#000000" stroke-width="2" stroke-opacity="0.200000" points="152.26,-195.65 158.58,-194.95 153.2,-191.56 152.26,-195.65"/>
</g>
<!-- packages/configuration/ -->
<g id="node6" class="node">
<title>packages/configuration/</title>
<g id="a_node6"><a xlink:href="packages/configuration/" xlink:title="configuration">
<polygon fill="#ffffcc" stroke="black" points="241.66,-34.3 140.79,-34.3 138.72,-32.23 138.72,-15.7 239.59,-15.7 241.66,-17.77 241.66,-34.3"/>
<polyline fill="none" stroke="black" points="239.59,-32.23 138.72,-32.23 "/>
<polyline fill="none" stroke="black" points="239.59,-32.23 239.59,-15.7 "/>
<polyline fill="none" stroke="black" points="239.59,-32.23 241.66,-34.3 "/>
<text text-anchor="middle" x="190.19" y="-22.3" font-family="Times" font-size="9.00">packages/configuration/</text>
</a>
</g>
</g>
<!-- packages/db&#45;mock/ -->
<g id="node7" class="node">
<title>packages/db&#45;mock/</title>
<g id="a_node7"><a xlink:href="packages/db-mock/" xlink:title="db&#45;mock">
<polygon fill="#ffffcc" stroke="black" points="233.16,-109.3 149.28,-109.3 147.21,-107.23 147.21,-90.7 231.1,-90.7 233.16,-92.77 233.16,-109.3"/>
<polyline fill="none" stroke="black" points="231.1,-107.23 147.21,-107.23 "/>
<polyline fill="none" stroke="black" points="231.1,-107.23 231.1,-90.7 "/>
<polyline fill="none" stroke="black" points="231.1,-107.23 233.16,-109.3 "/>
<text text-anchor="middle" x="190.19" y="-97.3" font-family="Times" font-size="9.00">packages/db&#45;mock/</text>
</a>
</g>
</g>
<!-- packages/db&#45;mock/&#45;&gt;packages/db&#45;schema/ -->
<g id="edge7" class="edge">
<title>packages/db&#45;mock/&#45;&gt;packages/db&#45;schema/</title>
<path fill="none" stroke="#000000" stroke-width="2" stroke-opacity="0.200000" d="M218.44,-109.35C225.93,-112.03 234.03,-115.04 241.42,-118 252.2,-122.32 263.92,-127.44 274.02,-132"/>
<polygon fill="#000000" fill-opacity="0.200000" stroke="#000000" stroke-width="2" stroke-opacity="0.200000" points="273.43,-134.04 279.76,-134.6 275.17,-130.21 273.43,-134.04"/>
</g>
<!-- packages/infra/ -->
<g id="node8" class="node">
<title>packages/infra/</title>
<g id="a_node8"><a xlink:href="packages/infra/" xlink:title="infra">
<polygon fill="#ffffcc" stroke="black" points="225.66,-153.3 156.78,-153.3 154.72,-151.23 154.72,-134.7 223.59,-134.7 225.66,-136.77 225.66,-153.3"/>
<polyline fill="none" stroke="black" points="223.59,-151.23 154.72,-151.23 "/>
<polyline fill="none" stroke="black" points="223.59,-151.23 223.59,-134.7 "/>
<polyline fill="none" stroke="black" points="223.59,-151.23 225.66,-153.3 "/>
<text text-anchor="middle" x="190.19" y="-141.3" font-family="Times" font-size="9.00">packages/infra/</text>
</a>
</g>
</g>
<!-- packages/infra/&#45;&gt;packages/db&#45;schema/ -->
<g id="edge11" class="edge">
<title>packages/infra/&#45;&gt;packages/db&#45;schema/</title>
<path fill="none" stroke="#000000" stroke-width="2" stroke-opacity="0.200000" d="M225.89,-144C232.97,-144 240.58,-144 248.11,-144"/>
<polygon fill="#000000" fill-opacity="0.200000" stroke="#000000" stroke-width="2" stroke-opacity="0.200000" points="248.42,-146.1 254.42,-144 248.42,-141.9 248.42,-146.1"/>
</g>
<!-- packages/parse&#45;tmx/ -->
<g id="node9" class="node">
<title>packages/parse&#45;tmx/</title>
<g id="a_node9"><a xlink:href="packages/parse-tmx/" xlink:title="parse&#45;tmx">
<polygon fill="#ffffcc" stroke="black" points="235.16,-65.3 147.29,-65.3 145.22,-63.23 145.22,-46.7 233.09,-46.7 235.16,-48.77 235.16,-65.3"/>
<polyline fill="none" stroke="black" points="233.09,-63.23 145.22,-63.23 "/>
<polyline fill="none" stroke="black" points="233.09,-63.23 233.09,-46.7 "/>
<polyline fill="none" stroke="black" points="233.09,-63.23 235.16,-65.3 "/>
<text text-anchor="middle" x="190.19" y="-53.3" font-family="Times" font-size="9.00">packages/parse&#45;tmx/</text>
</a>
</g>
</g>
<!-- packages/parse&#45;tmx/&#45;&gt;packages/shared/ -->
<g id="edge12" class="edge">
<title>packages/parse&#45;tmx/&#45;&gt;packages/shared/</title>
<path fill="none" stroke="#000000" stroke-width="2" stroke-opacity="0.200000" d="M224.08,-46.67C233.77,-44.34 244.45,-42.17 254.42,-41 295.46,-36.2 312.31,-19.17 347.39,-41 378.33,-60.25 390.95,-104.53 395.64,-128.28"/>
<polygon fill="#000000" fill-opacity="0.200000" stroke="#000000" stroke-width="2" stroke-opacity="0.200000" points="393.61,-128.87 396.76,-134.39 397.75,-128.11 393.61,-128.87"/>
</g>
<!-- packages/xml2js/ -->
<g id="node10" class="node">
<title>packages/xml2js/</title>
<g id="a_node10"><a xlink:href="packages/xml2js/" xlink:title="xml2js">
<polygon fill="#ffffcc" stroke="black" points="340.39,-65.3 263.48,-65.3 261.42,-63.23 261.42,-46.7 338.33,-46.7 340.39,-48.77 340.39,-65.3"/>
<polyline fill="none" stroke="black" points="338.33,-63.23 261.42,-63.23 "/>
<polyline fill="none" stroke="black" points="338.33,-63.23 338.33,-46.7 "/>
<polyline fill="none" stroke="black" points="338.33,-63.23 340.39,-65.3 "/>
<text text-anchor="middle" x="300.9" y="-53.3" font-family="Times" font-size="9.00">packages/xml2js/</text>
</a>
</g>
</g>
<!-- packages/parse&#45;tmx/&#45;&gt;packages/xml2js/ -->
<g id="edge13" class="edge">
<title>packages/parse&#45;tmx/&#45;&gt;packages/xml2js/</title>
<path fill="none" stroke="#000000" stroke-width="2" stroke-opacity="0.200000" d="M235.41,-56C242.07,-56 248.94,-56 255.6,-56"/>
<polygon fill="#000000" fill-opacity="0.200000" stroke="#000000" stroke-width="2" stroke-opacity="0.200000" points="255.65,-58.1 261.65,-56 255.65,-53.9 255.65,-58.1"/>
</g>
<!-- packages/xml2js/&#45;&gt;packages/shared/ -->
<g id="edge17" class="edge">
<title>packages/xml2js/&#45;&gt;packages/shared/</title>
<path fill="none" stroke="#000000" stroke-width="2" stroke-opacity="0.200000" d="M332.56,-65.35C337.79,-67.7 342.96,-70.56 347.39,-74 366.82,-89.08 382.16,-113.54 390.69,-129.19"/>
<polygon fill="#000000" fill-opacity="0.200000" stroke="#000000" stroke-width="2" stroke-opacity="0.200000" points="388.85,-130.21 393.52,-134.52 392.56,-128.24 388.85,-130.21"/>
</g>
<!-- packages/vue&#45;phaserjs/ -->
<g id="node11" class="node">
<title>packages/vue&#45;phaserjs/</title>
<g id="a_node11"><a xlink:href="packages/vue-phaserjs/" xlink:title="vue&#45;phaserjs">
<polygon fill="#ffffcc" stroke="black" points="120.94,-65.3 23.08,-65.3 21.01,-63.23 21.01,-46.7 118.88,-46.7 120.94,-48.77 120.94,-65.3"/>
<polyline fill="none" stroke="black" points="118.88,-63.23 21.01,-63.23 "/>
<polyline fill="none" stroke="black" points="118.88,-63.23 118.88,-46.7 "/>
<polyline fill="none" stroke="black" points="118.88,-63.23 120.94,-65.3 "/>
<text text-anchor="middle" x="70.98" y="-53.3" font-family="Times" font-size="9.00">packages/vue&#45;phaserjs/</text>
</a>
</g>
</g>
<!-- packages/vue&#45;phaserjs/&#45;&gt;packages/shared/ -->
<g id="edge15" class="edge">
<title>packages/vue&#45;phaserjs/&#45;&gt;packages/shared/</title>
<path fill="none" stroke="#000000" stroke-width="2" stroke-opacity="0.200000" d="M111.18,-65.36C120.27,-67.37 129.92,-69.37 138.96,-71 184.19,-79.14 196.86,-73.72 241.42,-85 288.71,-96.97 341.34,-118.6 371.98,-132.08"/>
<polygon fill="#000000" fill-opacity="0.200000" stroke="#000000" stroke-width="2" stroke-opacity="0.200000" points="371.48,-134.15 377.81,-134.66 373.18,-130.31 371.48,-134.15"/>
</g>
<!-- packages/vue&#45;phaserjs/&#45;&gt;packages/configuration/ -->
<g id="edge14" class="edge">
<title>packages/vue&#45;phaserjs/&#45;&gt;packages/configuration/</title>
<path fill="none" stroke="#000000" stroke-width="2" stroke-opacity="0.200000" d="M107.46,-46.61C120.2,-43.25 134.67,-39.42 147.86,-35.93"/>
<polygon fill="#000000" fill-opacity="0.200000" stroke="#000000" stroke-width="2" stroke-opacity="0.200000" points="148.56,-37.92 153.82,-34.35 147.49,-33.86 148.56,-37.92"/>
</g>
<!-- packages/vue&#45;phaserjs/&#45;&gt;packages/parse&#45;tmx/ -->
<g id="edge16" class="edge">
<title>packages/vue&#45;phaserjs/&#45;&gt;packages/parse&#45;tmx/</title>
<path fill="none" stroke="#000000" stroke-width="2" stroke-opacity="0.200000" d="M121.01,-56C126.9,-56 132.93,-56 138.85,-56"/>
<polygon fill="#000000" fill-opacity="0.200000" stroke="#000000" stroke-width="2" stroke-opacity="0.200000" points="139.21,-58.1 145.21,-56 139.21,-53.9 139.21,-58.1"/>
</g>
</g>
</svg>
