<?xml version="1.0" encoding="UTF-8" standalone="no"?>
<!DOCTYPE svg PUBLIC "-//W3C//DTD SVG 1.1//EN"
 "http://www.w3.org/Graphics/SVG/1.1/DTD/svg11.dtd">
<!-- Generated by graphviz version 5.0.0 (20220707.1540)
 -->
<!-- Title: dependency&#45;cruiser output Pages: 1 -->
<svg width="467pt" height="268pt"
 viewBox="0.00 0.00 466.85 268.00" xmlns="http://www.w3.org/2000/svg" xmlns:xlink="http://www.w3.org/1999/xlink">
<g id="graph0" class="graph" transform="scale(1 1) rotate(0) translate(4 264)">
<title>dependency&#45;cruiser output</title>
<polygon fill="white" stroke="transparent" points="-4,4 -4,-264 462.85,-264 462.85,4 -4,4"/>
<g id="clust1" class="cluster">
<title>cluster_packages</title>
<path fill="#ffffff" stroke="black" stroke-width="2" d="M20,-8C20,-8 438.85,-8 438.85,-8 444.85,-8 450.85,-14 450.85,-20 450.85,-20 450.85,-240 450.85,-240 450.85,-246 444.85,-252 438.85,-252 438.85,-252 20,-252 20,-252 14,-252 8,-246 8,-240 8,-240 8,-20 8,-20 8,-14 14,-8 20,-8"/>
<text text-anchor="middle" x="229.43" y="-239.9" font-family="Times" font-size="9.00">packages</text>
</g>
<!-- packages/azure&#45;functions/ -->
<g id="node1" class="node">
<title>packages/azure&#45;functions/</title>
<g id="a_node1"><a xlink:href="packages/azure-functions/" xlink:title="azure&#45;functions">
<polygon fill="#ffffcc" stroke="black" points="125.93,-215.3 18.09,-215.3 16.02,-213.23 16.02,-196.7 123.87,-196.7 125.93,-198.77 125.93,-215.3"/>
<polyline fill="none" stroke="black" points="123.87,-213.23 16.02,-213.23 "/>
<polyline fill="none" stroke="black" points="123.87,-213.23 123.87,-196.7 "/>
<polyline fill="none" stroke="black" points="123.87,-213.23 125.93,-215.3 "/>
<text text-anchor="middle" x="70.98" y="-203.3" font-family="Times" font-size="9.00">packages/azure&#45;functions/</text>
</a>
</g>
</g>
<!-- packages/db&#45;schema/ -->
<g id="node2" class="node">
<title>packages/db&#45;schema/</title>
<g id="a_node2"><a xlink:href="packages/db-schema/" xlink:title="db&#45;schema">
<polygon fill="#ffffcc" stroke="black" points="349.87,-171.3 259,-171.3 256.94,-169.23 256.94,-152.7 347.8,-152.7 349.87,-154.77 349.87,-171.3"/>
<polyline fill="none" stroke="black" points="347.8,-169.23 256.94,-169.23 "/>
<polyline fill="none" stroke="black" points="347.8,-169.23 347.8,-152.7 "/>
<polyline fill="none" stroke="black" points="347.8,-169.23 349.87,-171.3 "/>
<text text-anchor="middle" x="303.4" y="-159.3" font-family="Times" font-size="9.00">packages/db&#45;schema/</text>
</a>
</g>
</g>
<!-- packages/azure&#45;functions/&#45;&gt;packages/db&#45;schema/ -->
<g id="edge1" class="edge">
<title>packages/azure&#45;functions/&#45;&gt;packages/db&#45;schema/</title>
<path fill="none" stroke="#000000" stroke-width="2" stroke-opacity="0.200000" d="M101.78,-196.68C113.31,-193.31 126.67,-189.67 138.96,-187 175.9,-178.97 218.1,-172.58 250.36,-168.28"/>
<polygon fill="#000000" fill-opacity="0.200000" stroke="#000000" stroke-width="2" stroke-opacity="0.200000" points="251.01,-170.31 256.68,-167.44 250.46,-166.14 251.01,-170.31"/>
</g>
<!-- packages/shared/ -->
<g id="node3" class="node">
<title>packages/shared/</title>
<g id="a_node3"><a xlink:href="packages/shared/" xlink:title="shared">
<polygon fill="#ffffcc" stroke="black" points="443.09,-140.3 367.21,-140.3 365.15,-138.23 365.15,-121.7 441.02,-121.7 443.09,-123.77 443.09,-140.3"/>
<polyline fill="none" stroke="black" points="441.02,-138.23 365.15,-138.23 "/>
<polyline fill="none" stroke="black" points="441.02,-138.23 441.02,-121.7 "/>
<polyline fill="none" stroke="black" points="441.02,-138.23 443.09,-140.3 "/>
<text text-anchor="middle" x="404.12" y="-128.3" font-family="Times" font-size="9.00">packages/shared/</text>
</a>
</g>
</g>
<!-- packages/azure&#45;functions/&#45;&gt;packages/shared/ -->
<g id="edge2" class="edge">
<title>packages/azure&#45;functions/&#45;&gt;packages/shared/</title>
<path fill="none" stroke="#000000" stroke-width="2" stroke-opacity="0.200000" d="M105.12,-215.37C160.75,-229.05 274.45,-248.08 352.38,-201 373.67,-188.14 388.65,-162.61 396.57,-146.2"/>
<polygon fill="#000000" fill-opacity="0.200000" stroke="#000000" stroke-width="2" stroke-opacity="0.200000" points="398.55,-146.93 399.17,-140.6 394.74,-145.16 398.55,-146.93"/>
</g>
<!-- packages/db/ -->
<g id="node4" class="node">
<title>packages/db/</title>
<g id="a_node4"><a xlink:href="packages/db/" xlink:title="db">
<polygon fill="#ffffcc" stroke="black" points="221.67,-211.3 160.77,-211.3 158.71,-209.23 158.71,-192.7 219.6,-192.7 221.67,-194.77 221.67,-211.3"/>
<polyline fill="none" stroke="black" points="219.6,-209.23 158.71,-209.23 "/>
<polyline fill="none" stroke="black" points="219.6,-209.23 219.6,-192.7 "/>
<polyline fill="none" stroke="black" points="219.6,-209.23 221.67,-211.3 "/>
<text text-anchor="middle" x="190.19" y="-199.3" font-family="Times" font-size="9.00">packages/db/</text>
</a>
</g>
</g>
<!-- packages/azure&#45;functions/&#45;&gt;packages/db/ -->
<g id="edge3" class="edge">
<title>packages/azure&#45;functions/&#45;&gt;packages/db/</title>
<path fill="none" stroke="#000000" stroke-width="2" stroke-opacity="0.200000" d="M126.12,-204.15C135.01,-203.85 144.04,-203.54 152.38,-203.26"/>
<polygon fill="#000000" fill-opacity="0.200000" stroke="#000000" stroke-width="2" stroke-opacity="0.200000" points="152.69,-205.35 158.61,-203.04 152.55,-201.15 152.69,-205.35"/>
</g>
<!-- packages/db&#45;schema/&#45;&gt;packages/shared/ -->
<g id="edge8" class="edge">
<title>packages/db&#45;schema/&#45;&gt;packages/shared/</title>
<path fill="none" stroke="#000000" stroke-width="2" stroke-opacity="0.200000" d="M334.29,-152.61C344.73,-149.34 356.55,-145.62 367.41,-142.21"/>
<polygon fill="#000000" fill-opacity="0.200000" stroke="#000000" stroke-width="2" stroke-opacity="0.200000" points="368.24,-144.15 373.34,-140.35 366.98,-140.15 368.24,-144.15"/>
</g>
<!-- packages/db/&#45;&gt;packages/db&#45;schema/ -->
<g id="edge9" class="edge">
<title>packages/db/&#45;&gt;packages/db&#45;schema/</title>
<path fill="none" stroke="#000000" stroke-width="2" stroke-opacity="0.200000" d="M217.26,-192.62C233.16,-186.9 253.59,-179.56 270.46,-173.49"/>
<polygon fill="#000000" fill-opacity="0.200000" stroke="#000000" stroke-width="2" stroke-opacity="0.200000" points="271.56,-175.33 276.49,-171.32 270.13,-171.37 271.56,-175.33"/>
</g>
<!-- packages/db/&#45;&gt;packages/shared/ -->
<g id="edge10" class="edge">
<title>packages/db/&#45;&gt;packages/shared/</title>
<path fill="none" stroke="#000000" stroke-width="2" stroke-opacity="0.200000" d="M221.8,-205.81C255.63,-208.59 310.83,-208.85 352.38,-188 370.83,-178.75 385.61,-159.65 394.36,-146.12"/>
<polygon fill="#000000" fill-opacity="0.200000" stroke="#000000" stroke-width="2" stroke-opacity="0.200000" points="396.34,-146.91 397.73,-140.7 392.78,-144.69 396.34,-146.91"/>
</g>
<!-- packages/azure&#45;mock/ -->
<g id="node5" class="node">
<title>packages/azure&#45;mock/</title>
<g id="a_node5"><a xlink:href="packages/azure-mock/" xlink:title="azure&#45;mock">
<polygon fill="#ffffcc" stroke="black" points="119.43,-184.3 24.59,-184.3 22.52,-182.23 22.52,-165.7 117.37,-165.7 119.43,-167.77 119.43,-184.3"/>
<polyline fill="none" stroke="black" points="117.37,-182.23 22.52,-182.23 "/>
<polyline fill="none" stroke="black" points="117.37,-182.23 117.37,-165.7 "/>
<polyline fill="none" stroke="black" points="117.37,-182.23 119.43,-184.3 "/>
<text text-anchor="middle" x="70.98" y="-172.3" font-family="Times" font-size="9.00">packages/azure&#45;mock/</text>
</a>
</g>
</g>
<!-- packages/azure&#45;mock/&#45;&gt;packages/db&#45;schema/ -->
<g id="edge6" class="edge">
<title>packages/azure&#45;mock/&#45;&gt;packages/db&#45;schema/</title>
<path fill="none" stroke="#000000" stroke-width="2" stroke-opacity="0.200000" d="M81.82,-165.32C94.03,-154.06 116.05,-136.11 138.96,-129 182.45,-115.5 200.59,-108.82 241.42,-129 249.95,-133.21 246.68,-140.47 254.42,-146 256.32,-147.36 258.34,-148.6 260.44,-149.75"/>
<polygon fill="#000000" fill-opacity="0.200000" stroke="#000000" stroke-width="2" stroke-opacity="0.200000" points="259.83,-151.79 266.14,-152.55 261.68,-148.02 259.83,-151.79"/>
</g>
<!-- packages/azure&#45;mock/&#45;&gt;packages/shared/ -->
<g id="edge4" class="edge">
<title>packages/azure&#45;mock/&#45;&gt;packages/shared/</title>
<path fill="none" stroke="#000000" stroke-width="2" stroke-opacity="0.200000" d="M119.21,-179.47C187.79,-185.27 311.22,-192.88 352.38,-177 368.74,-170.69 383.08,-156.39 392.31,-145.4"/>
<polygon fill="#000000" fill-opacity="0.200000" stroke="#000000" stroke-width="2" stroke-opacity="0.200000" points="394.03,-146.61 396.17,-140.62 390.77,-143.96 394.03,-146.61"/>
</g>
<!-- packages/azure&#45;mock/&#45;&gt;packages/db/ -->
<g id="edge5" class="edge">
<title>packages/azure&#45;mock/&#45;&gt;packages/db/</title>
<path fill="none" stroke="#000000" stroke-width="2" stroke-opacity="0.200000" d="M112.64,-184.37C125.6,-187.35 139.85,-190.63 152.5,-193.55"/>
<polygon fill="#000000" fill-opacity="0.200000" stroke="#000000" stroke-width="2" stroke-opacity="0.200000" points="152.26,-195.65 158.58,-194.95 153.2,-191.56 152.26,-195.65"/>
</g>
<!-- packages/configuration/ -->
<g id="node6" class="node">
<title>packages/configuration/</title>
<g id="a_node6"><a xlink:href="packages/configuration/" xlink:title="configuration">
<polygon fill="#ffffcc" stroke="black" points="241.66,-34.3 140.79,-34.3 138.72,-32.23 138.72,-15.7 239.59,-15.7 241.66,-17.77 241.66,-34.3"/>
<polyline fill="none" stroke="black" points="239.59,-32.23 138.72,-32.23 "/>
<polyline fill="none" stroke="black" points="239.59,-32.23 239.59,-15.7 "/>
<polyline fill="none" stroke="black" points="239.59,-32.23 241.66,-34.3 "/>
<text text-anchor="middle" x="190.19" y="-22.3" font-family="Times" font-size="9.00">packages/configuration/</text>
</a>
</g>
</g>
<!-- packages/db&#45;mock/ -->
<g id="node7" class="node">
<title>packages/db&#45;mock/</title>
<g id="a_node7"><a xlink:href="packages/db-mock/" xlink:title="db&#45;mock">
<polygon fill="#ffffcc" stroke="black" points="233.16,-109.3 149.28,-109.3 147.21,-107.23 147.21,-90.7 231.1,-90.7 233.16,-92.77 233.16,-109.3"/>
<polyline fill="none" stroke="black" points="231.1,-107.23 147.21,-107.23 "/>
<polyline fill="none" stroke="black" points="231.1,-107.23 231.1,-90.7 "/>
<polyline fill="none" stroke="black" points="231.1,-107.23 233.16,-109.3 "/>
<text text-anchor="middle" x="190.19" y="-97.3" font-family="Times" font-size="9.00">packages/db&#45;mock/</text>
</a>
</g>
</g>
<!-- packages/db&#45;mock/&#45;&gt;packages/db&#45;schema/ -->
<g id="edge7" class="edge">
<title>packages/db&#45;mock/&#45;&gt;packages/db&#45;schema/</title>
<path fill="none" stroke="#000000" stroke-width="2" stroke-opacity="0.200000" d="M228.25,-109.39C233.03,-111.67 237.59,-114.5 241.42,-118 251.55,-127.25 244.19,-136.86 254.42,-146 255.77,-147.21 257.22,-148.32 258.73,-149.35"/>
<polygon fill="#000000" fill-opacity="0.200000" stroke="#000000" stroke-width="2" stroke-opacity="0.200000" points="257.88,-151.29 264.12,-152.55 260.03,-147.68 257.88,-151.29"/>
</g>
<!-- packages/infra/ -->
<g id="node8" class="node">
<title>packages/infra/</title>
<g id="a_node8"><a xlink:href="packages/infra/" xlink:title="infra">
<polygon fill="#ffffcc" stroke="black" points="225.66,-153.3 156.78,-153.3 154.72,-151.23 154.72,-134.7 223.59,-134.7 225.66,-136.77 225.66,-153.3"/>
<polyline fill="none" stroke="black" points="223.59,-151.23 154.72,-151.23 "/>
<polyline fill="none" stroke="black" points="223.59,-151.23 223.59,-134.7 "/>
<polyline fill="none" stroke="black" points="223.59,-151.23 225.66,-153.3 "/>
<text text-anchor="middle" x="190.19" y="-141.3" font-family="Times" font-size="9.00">packages/infra/</text>
</a>
</g>
</g>
<!-- packages/infra/&#45;&gt;packages/db&#45;schema/ -->
<g id="edge11" class="edge">
<title>packages/infra/&#45;&gt;packages/db&#45;schema/</title>
<path fill="none" stroke="#000000" stroke-width="2" stroke-opacity="0.200000" d="M225.77,-149.6C233.59,-150.86 242.07,-152.24 250.44,-153.59"/>
<polygon fill="#000000" fill-opacity="0.200000" stroke="#000000" stroke-width="2" stroke-opacity="0.200000" points="250.54,-155.73 256.8,-154.62 251.21,-151.59 250.54,-155.73"/>
</g>
<!-- packages/parse&#45;tmx/ -->
<g id="node9" class="node">
<title>packages/parse&#45;tmx/</title>
<g id="a_node9"><a xlink:href="packages/parse-tmx/" xlink:title="parse&#45;tmx">
<polygon fill="#ffffcc" stroke="black" points="235.16,-65.3 147.29,-65.3 145.22,-63.23 145.22,-46.7 233.09,-46.7 235.16,-48.77 235.16,-65.3"/>
<polyline fill="none" stroke="black" points="233.09,-63.23 145.22,-63.23 "/>
<polyline fill="none" stroke="black" points="233.09,-63.23 233.09,-46.7 "/>
<polyline fill="none" stroke="black" points="233.09,-63.23 235.16,-65.3 "/>
<text text-anchor="middle" x="190.19" y="-53.3" font-family="Times" font-size="9.00">packages/parse&#45;tmx/</text>
</a>
</g>
</g>
<!-- packages/parse&#45;tmx/&#45;&gt;packages/shared/ -->
<g id="edge12" class="edge">
<title>packages/parse&#45;tmx/&#45;&gt;packages/shared/</title>
<path fill="none" stroke="#000000" stroke-width="2" stroke-opacity="0.200000" d="M224.08,-46.67C233.77,-44.34 244.45,-42.17 254.42,-41 297.67,-35.94 314.79,-19.04 352.38,-41 379.89,-57.07 393.65,-94.17 399.5,-115.38"/>
<polygon fill="#000000" fill-opacity="0.200000" stroke="#000000" stroke-width="2" stroke-opacity="0.200000" points="397.53,-116.13 401.07,-121.41 401.59,-115.07 397.53,-116.13"/>
</g>
<!-- packages/xml2js/ -->
<g id="node10" class="node">
<title>packages/xml2js/</title>
<g id="a_node10"><a xlink:href="packages/xml2js/" xlink:title="xml2js">
<polygon fill="#ffffcc" stroke="black" points="342.89,-65.3 265.98,-65.3 263.92,-63.23 263.92,-46.7 340.82,-46.7 342.89,-48.77 342.89,-65.3"/>
<polyline fill="none" stroke="black" points="340.82,-63.23 263.92,-63.23 "/>
<polyline fill="none" stroke="black" points="340.82,-63.23 340.82,-46.7 "/>
<polyline fill="none" stroke="black" points="340.82,-63.23 342.89,-65.3 "/>
<text text-anchor="middle" x="303.4" y="-53.3" font-family="Times" font-size="9.00">packages/xml2js/</text>
</a>
</g>
</g>
<!-- packages/parse&#45;tmx/&#45;&gt;packages/xml2js/ -->
<g id="edge13" class="edge">
<title>packages/parse&#45;tmx/&#45;&gt;packages/xml2js/</title>
<path fill="none" stroke="#000000" stroke-width="2" stroke-opacity="0.200000" d="M235.46,-56C242.85,-56 250.51,-56 257.89,-56"/>
<polygon fill="#000000" fill-opacity="0.200000" stroke="#000000" stroke-width="2" stroke-opacity="0.200000" points="258.02,-58.1 264.02,-56 258.02,-53.9 258.02,-58.1"/>
</g>
<!-- packages/xml2js/&#45;&gt;packages/shared/ -->
<g id="edge19" class="edge">
<title>packages/xml2js/&#45;&gt;packages/shared/</title>
<path fill="none" stroke="#000000" stroke-width="2" stroke-opacity="0.200000" d="M335.95,-65.33C341.67,-67.7 347.4,-70.58 352.38,-74 369.21,-85.54 384.15,-103.82 393.39,-116.56"/>
<polygon fill="#000000" fill-opacity="0.200000" stroke="#000000" stroke-width="2" stroke-opacity="0.200000" points="391.81,-117.96 396.99,-121.64 395.23,-115.53 391.81,-117.96"/>
</g>
<!-- packages/shared&#45;node/ -->
<g id="node11" class="node">
<title>packages/shared&#45;node/</title>
<g id="a_node11"><a xlink:href="packages/shared-node/" xlink:title="shared&#45;node">
<polygon fill="#ffffcc" stroke="black" points="352.37,-140.3 256.51,-140.3 254.44,-138.23 254.44,-121.7 350.3,-121.7 352.37,-123.77 352.37,-140.3"/>
<polyline fill="none" stroke="black" points="350.3,-138.23 254.44,-138.23 "/>
<polyline fill="none" stroke="black" points="350.3,-138.23 350.3,-121.7 "/>
<polyline fill="none" stroke="black" points="350.3,-138.23 352.37,-140.3 "/>
<text text-anchor="middle" x="303.4" y="-128.3" font-family="Times" font-size="9.00">packages/shared&#45;node/</text>
</a>
</g>
</g>
<!-- packages/shared&#45;node/&#45;&gt;packages/shared/ -->
<g id="edge14" class="edge">
<title>packages/shared&#45;node/&#45;&gt;packages/shared/</title>
<path fill="none" stroke="#000000" stroke-width="2" stroke-opacity="0.200000" d="M352.6,-131C354.71,-131 356.82,-131 358.91,-131"/>
<polygon fill="#000000" fill-opacity="0.200000" stroke="#000000" stroke-width="2" stroke-opacity="0.200000" points="359.14,-133.1 365.14,-131 359.14,-128.9 359.14,-133.1"/>
</g>
<!-- packages/virrun/ -->
<g id="node12" class="node">
<title>packages/virrun/</title>
<g id="a_node12"><a xlink:href="packages/virrun/" xlink:title="virrun">
<polygon fill="#ffffcc" stroke="black" points="341.38,-109.3 267.49,-109.3 265.43,-107.23 265.43,-90.7 339.31,-90.7 341.38,-92.77 341.38,-109.3"/>
<polyline fill="none" stroke="black" points="339.31,-107.23 265.43,-107.23 "/>
<polyline fill="none" stroke="black" points="339.31,-107.23 339.31,-90.7 "/>
<polyline fill="none" stroke="black" points="339.31,-107.23 341.38,-109.3 "/>
<text text-anchor="middle" x="303.4" y="-97.3" font-family="Times" font-size="9.00">packages/virrun/</text>
</a>
</g>
</g>
<!-- packages/virrun/&#45;&gt;packages/shared/ -->
<g id="edge15" class="edge">
<title>packages/virrun/&#45;&gt;packages/shared/</title>
<path fill="none" stroke="#000000" stroke-width="2" stroke-opacity="0.200000" d="M334.29,-109.39C344.73,-112.66 356.55,-116.38 367.41,-119.79"/>
<polygon fill="#000000" fill-opacity="0.200000" stroke="#000000" stroke-width="2" stroke-opacity="0.200000" points="366.98,-121.85 373.34,-121.65 368.24,-117.85 366.98,-121.85"/>
</g>
<!-- packages/vue&#45;phaserjs/ -->
<g id="node13" class="node">
<title>packages/vue&#45;phaserjs/</title>
<g id="a_node13"><a xlink:href="packages/vue-phaserjs/" xlink:title="vue&#45;phaserjs">
<polygon fill="#ffffcc" stroke="black" points="120.94,-65.3 23.08,-65.3 21.01,-63.23 21.01,-46.7 118.88,-46.7 120.94,-48.77 120.94,-65.3"/>
<polyline fill="none" stroke="black" points="118.88,-63.23 21.01,-63.23 "/>
<polyline fill="none" stroke="black" points="118.88,-63.23 118.88,-46.7 "/>
<polyline fill="none" stroke="black" points="118.88,-63.23 120.94,-65.3 "/>
<text text-anchor="middle" x="70.98" y="-53.3" font-family="Times" font-size="9.00">packages/vue&#45;phaserjs/</text>
</a>
</g>
</g>
<!-- packages/vue&#45;phaserjs/&#45;&gt;packages/shared/ -->
<g id="edge17" class="edge">
<title>packages/vue&#45;phaserjs/&#45;&gt;packages/shared/</title>
<path fill="none" stroke="#000000" stroke-width="2" stroke-opacity="0.200000" d="M108.99,-65.36C118.68,-67.52 129.17,-69.59 138.96,-71 186,-77.77 308.62,-66.45 352.38,-85 368.52,-91.84 382.9,-106.06 392.19,-116.89"/>
<polygon fill="#000000" fill-opacity="0.200000" stroke="#000000" stroke-width="2" stroke-opacity="0.200000" points="390.64,-118.31 396.09,-121.59 393.87,-115.63 390.64,-118.31"/>
</g>
<!-- packages/vue&#45;phaserjs/&#45;&gt;packages/configuration/ -->
<g id="edge16" class="edge">
<title>packages/vue&#45;phaserjs/&#45;&gt;packages/configuration/</title>
<path fill="none" stroke="#000000" stroke-width="2" stroke-opacity="0.200000" d="M107.46,-46.61C120.2,-43.25 134.67,-39.42 147.86,-35.93"/>
<polygon fill="#000000" fill-opacity="0.200000" stroke="#000000" stroke-width="2" stroke-opacity="0.200000" points="148.56,-37.92 153.82,-34.35 147.49,-33.86 148.56,-37.92"/>
</g>
<!-- packages/vue&#45;phaserjs/&#45;&gt;packages/parse&#45;tmx/ -->
<g id="edge18" class="edge">
<title>packages/vue&#45;phaserjs/&#45;&gt;packages/parse&#45;tmx/</title>
<path fill="none" stroke="#000000" stroke-width="2" stroke-opacity="0.200000" d="M121.01,-56C126.9,-56 132.93,-56 138.85,-56"/>
<polygon fill="#000000" fill-opacity="0.200000" stroke="#000000" stroke-width="2" stroke-opacity="0.200000" points="139.21,-58.1 145.21,-56 139.21,-53.9 139.21,-58.1"/>
</g>
</g>
</svg>
