<?xml version="1.0" encoding="UTF-8" standalone="no"?>
<!DOCTYPE svg PUBLIC "-//W3C//DTD SVG 1.1//EN"
 "http://www.w3.org/Graphics/SVG/1.1/DTD/svg11.dtd">
<!-- Generated by graphviz version 5.0.0 (20220707.1540)
 -->
<!-- Title: dependency&#45;cruiser output Pages: 1 -->
<svg width="502pt" height="268pt"
 viewBox="0.00 0.00 502.22 268.00" xmlns="http://www.w3.org/2000/svg" xmlns:xlink="http://www.w3.org/1999/xlink">
<g id="graph0" class="graph" transform="scale(1 1) rotate(0) translate(4 264)">
<title>dependency&#45;cruiser output</title>
<polygon fill="white" stroke="transparent" points="-4,4 -4,-264 498.22,-264 498.22,4 -4,4"/>
<g id="clust1" class="cluster">
<title>cluster_packages</title>
<path fill="#ffffff" stroke="black" stroke-width="2" d="M20,-8C20,-8 474.22,-8 474.22,-8 480.22,-8 486.22,-14 486.22,-20 486.22,-20 486.22,-240 486.22,-240 486.22,-246 480.22,-252 474.22,-252 474.22,-252 20,-252 20,-252 14,-252 8,-246 8,-240 8,-240 8,-20 8,-20 8,-14 14,-8 20,-8"/>
<text text-anchor="middle" x="247.11" y="-239.9" font-family="Helvetica,sans-Serif" font-weight="bold" font-size="9.00">packages</text>
</g>
<!-- packages/azure&#45;functions/ -->
<g id="node1" class="node">
<title>packages/azure&#45;functions/</title>
<g id="a_node1"><a xlink:href="packages/azure-functions/" xlink:title="azure&#45;functions">
<polygon fill="#ffffcc" stroke="black" points="137.09,-215.3 18.04,-215.3 15.97,-213.23 15.97,-196.7 135.02,-196.7 137.09,-198.77 137.09,-215.3"/>
<polyline fill="none" stroke="black" points="135.02,-213.23 15.97,-213.23 "/>
<polyline fill="none" stroke="black" points="135.02,-213.23 135.02,-196.7 "/>
<polyline fill="none" stroke="black" points="135.02,-213.23 137.09,-215.3 "/>
<text text-anchor="middle" x="76.53" y="-203.3" font-family="Helvetica,sans-Serif" font-size="9.00">packages/azure&#45;functions/</text>
</a>
</g>
</g>
<!-- packages/db&#45;schema/ -->
<g id="node2" class="node">
<title>packages/db&#45;schema/</title>
<g id="a_node2"><a xlink:href="packages/db-schema/" xlink:title="db&#45;schema">
<polygon fill="#ffffcc" stroke="black" points="378.2,-153.3 276.17,-153.3 274.1,-151.23 274.1,-134.7 376.13,-134.7 378.2,-136.77 378.2,-153.3"/>
<polyline fill="none" stroke="black" points="376.13,-151.23 274.1,-151.23 "/>
<polyline fill="none" stroke="black" points="376.13,-151.23 376.13,-134.7 "/>
<polyline fill="none" stroke="black" points="376.13,-151.23 378.2,-153.3 "/>
<text text-anchor="middle" x="326.15" y="-141.3" font-family="Helvetica,sans-Serif" font-size="9.00">packages/db&#45;schema/</text>
</a>
</g>
</g>
<!-- packages/azure&#45;functions/&#45;&gt;packages/db&#45;schema/ -->
<g id="edge1" class="edge">
<title>packages/azure&#45;functions/&#45;&gt;packages/db&#45;schema/</title>
<path fill="none" stroke="#000000" stroke-width="2" stroke-opacity="0.200000" d="M112.92,-196.61C124.72,-193.51 137.95,-190.07 150.06,-187 194.37,-175.76 245.11,-163.35 280.52,-154.76"/>
<polygon fill="#000000" fill-opacity="0.200000" stroke="#000000" stroke-width="2" stroke-opacity="0.200000" points="281.17,-156.76 286.51,-153.31 280.18,-152.68 281.17,-156.76"/>
</g>
<!-- packages/shared/ -->
<g id="node3" class="node">
<title>packages/shared/</title>
<g id="a_node3"><a xlink:href="packages/shared/" xlink:title="shared">
<polygon fill="#ffffcc" stroke="black" points="478.24,-153.3 393.22,-153.3 391.15,-151.23 391.15,-134.7 476.17,-134.7 478.24,-136.77 478.24,-153.3"/>
<polyline fill="none" stroke="black" points="476.17,-151.23 391.15,-151.23 "/>
<polyline fill="none" stroke="black" points="476.17,-151.23 476.17,-134.7 "/>
<polyline fill="none" stroke="black" points="476.17,-151.23 478.24,-153.3 "/>
<text text-anchor="middle" x="434.69" y="-141.3" font-family="Helvetica,sans-Serif" font-size="9.00">packages/shared/</text>
</a>
</g>
</g>
<!-- packages/azure&#45;functions/&#45;&gt;packages/shared/ -->
<g id="edge2" class="edge">
<title>packages/azure&#45;functions/&#45;&gt;packages/shared/</title>
<path fill="none" stroke="#000000" stroke-width="2" stroke-opacity="0.200000" d="M119.59,-215.34C180.31,-226.58 294.42,-239.09 378.17,-197 396.3,-187.89 412.5,-170.87 422.66,-158.57"/>
<polygon fill="#000000" fill-opacity="0.200000" stroke="#000000" stroke-width="2" stroke-opacity="0.200000" points="424.51,-159.62 426.63,-153.62 421.24,-156.99 424.51,-159.62"/>
</g>
<!-- packages/db/ -->
<g id="node4" class="node">
<title>packages/db/</title>
<g id="a_node4"><a xlink:href="packages/db/" xlink:title="db">
<polygon fill="#ffffcc" stroke="black" points="240.13,-211.3 173.12,-211.3 171.05,-209.23 171.05,-192.7 238.06,-192.7 240.13,-194.77 240.13,-211.3"/>
<polyline fill="none" stroke="black" points="238.06,-209.23 171.05,-209.23 "/>
<polyline fill="none" stroke="black" points="238.06,-209.23 238.06,-192.7 "/>
<polyline fill="none" stroke="black" points="238.06,-209.23 240.13,-211.3 "/>
<text text-anchor="middle" x="205.59" y="-199.3" font-family="Helvetica,sans-Serif" font-size="9.00">packages/db/</text>
</a>
</g>
</g>
<!-- packages/azure&#45;functions/&#45;&gt;packages/db/ -->
<g id="edge3" class="edge">
<title>packages/azure&#45;functions/&#45;&gt;packages/db/</title>
<path fill="none" stroke="#000000" stroke-width="2" stroke-opacity="0.200000" d="M137.34,-204.12C146.66,-203.82 156.09,-203.53 164.82,-203.25"/>
<polygon fill="#000000" fill-opacity="0.200000" stroke="#000000" stroke-width="2" stroke-opacity="0.200000" points="165.12,-205.34 171.05,-203.06 164.98,-201.15 165.12,-205.34"/>
</g>
<!-- packages/db&#45;schema/&#45;&gt;packages/shared/ -->
<g id="edge8" class="edge">
<title>packages/db&#45;schema/&#45;&gt;packages/shared/</title>
<path fill="none" stroke="#000000" stroke-width="2" stroke-opacity="0.200000" d="M378.24,-144C380.37,-144 382.51,-144 384.65,-144"/>
<polygon fill="#000000" fill-opacity="0.200000" stroke="#000000" stroke-width="2" stroke-opacity="0.200000" points="385,-146.1 391,-144 385,-141.9 385,-146.1"/>
</g>
<!-- packages/db/&#45;&gt;packages/db&#45;schema/ -->
<g id="edge9" class="edge">
<title>packages/db/&#45;&gt;packages/db&#45;schema/</title>
<path fill="none" stroke="#000000" stroke-width="2" stroke-opacity="0.200000" d="M225.64,-192.68C245.91,-182.76 278.08,-167.03 300.32,-156.14"/>
<polygon fill="#000000" fill-opacity="0.200000" stroke="#000000" stroke-width="2" stroke-opacity="0.200000" points="301.29,-158.01 305.75,-153.49 299.44,-154.24 301.29,-158.01"/>
</g>
<!-- packages/db/&#45;&gt;packages/shared/ -->
<g id="edge10" class="edge">
<title>packages/db/&#45;&gt;packages/shared/</title>
<path fill="none" stroke="#000000" stroke-width="2" stroke-opacity="0.200000" d="M240.34,-203.49C275.82,-203.92 332.7,-201.35 378.17,-184 393.77,-178.05 408.97,-166.59 419.51,-157.45"/>
<polygon fill="#000000" fill-opacity="0.200000" stroke="#000000" stroke-width="2" stroke-opacity="0.200000" points="420.92,-159 424.01,-153.44 418.13,-155.86 420.92,-159"/>
</g>
<!-- packages/azure&#45;mock/ -->
<g id="node5" class="node">
<title>packages/azure&#45;mock/</title>
<g id="a_node5"><a xlink:href="packages/azure-mock/" xlink:title="azure&#45;mock">
<polygon fill="#ffffcc" stroke="black" points="129.57,-184.3 25.56,-184.3 23.49,-182.23 23.49,-165.7 127.5,-165.7 129.57,-167.77 129.57,-184.3"/>
<polyline fill="none" stroke="black" points="127.5,-182.23 23.49,-182.23 "/>
<polyline fill="none" stroke="black" points="127.5,-182.23 127.5,-165.7 "/>
<polyline fill="none" stroke="black" points="127.5,-182.23 129.57,-184.3 "/>
<text text-anchor="middle" x="76.53" y="-172.3" font-family="Helvetica,sans-Serif" font-size="9.00">packages/azure&#45;mock/</text>
</a>
</g>
</g>
<!-- packages/azure&#45;mock/&#45;&gt;packages/db&#45;schema/ -->
<g id="edge6" class="edge">
<title>packages/azure&#45;mock/&#45;&gt;packages/db&#45;schema/</title>
<path fill="none" stroke="#000000" stroke-width="2" stroke-opacity="0.200000" d="M88.34,-165.31C101.72,-154.03 125.72,-136.07 150.06,-129 196.31,-115.57 252.1,-124.41 288.08,-133.16"/>
<polygon fill="#000000" fill-opacity="0.200000" stroke="#000000" stroke-width="2" stroke-opacity="0.200000" points="287.79,-135.25 294.12,-134.67 288.81,-131.17 287.79,-135.25"/>
</g>
<!-- packages/azure&#45;mock/&#45;&gt;packages/shared/ -->
<g id="edge4" class="edge">
<title>packages/azure&#45;mock/&#45;&gt;packages/shared/</title>
<path fill="none" stroke="#000000" stroke-width="2" stroke-opacity="0.200000" d="M129.75,-175.54C190,-175.4 291.85,-172.8 378.17,-159 384.59,-157.97 391.33,-156.5 397.82,-154.87"/>
<polygon fill="#000000" fill-opacity="0.200000" stroke="#000000" stroke-width="2" stroke-opacity="0.200000" points="398.41,-156.89 403.69,-153.34 397.35,-152.82 398.41,-156.89"/>
</g>
<!-- packages/azure&#45;mock/&#45;&gt;packages/db/ -->
<g id="edge5" class="edge">
<title>packages/azure&#45;mock/&#45;&gt;packages/db/</title>
<path fill="none" stroke="#000000" stroke-width="2" stroke-opacity="0.200000" d="M121.61,-184.37C135.66,-187.35 151.11,-190.64 164.83,-193.55"/>
<polygon fill="#000000" fill-opacity="0.200000" stroke="#000000" stroke-width="2" stroke-opacity="0.200000" points="164.7,-195.67 171.01,-194.86 165.57,-191.56 164.7,-195.67"/>
</g>
<!-- packages/configuration/ -->
<g id="node6" class="node">
<title>packages/configuration/</title>
<g id="a_node6"><a xlink:href="packages/configuration/" xlink:title="configuration">
<polygon fill="#ffffcc" stroke="black" points="261.15,-34.3 152.1,-34.3 150.03,-32.23 150.03,-15.7 259.09,-15.7 261.15,-17.77 261.15,-34.3"/>
<polyline fill="none" stroke="black" points="259.09,-32.23 150.03,-32.23 "/>
<polyline fill="none" stroke="black" points="259.09,-32.23 259.09,-15.7 "/>
<polyline fill="none" stroke="black" points="259.09,-32.23 261.15,-34.3 "/>
<text text-anchor="middle" x="205.59" y="-22.3" font-family="Helvetica,sans-Serif" font-size="9.00">packages/configuration/</text>
</a>
</g>
</g>
<!-- packages/db&#45;mock/ -->
<g id="node7" class="node">
<title>packages/db&#45;mock/</title>
<g id="a_node7"><a xlink:href="packages/db-mock/" xlink:title="db&#45;mock">
<polygon fill="#ffffcc" stroke="black" points="252.63,-109.3 160.62,-109.3 158.55,-107.23 158.55,-90.7 250.56,-90.7 252.63,-92.77 252.63,-109.3"/>
<polyline fill="none" stroke="black" points="250.56,-107.23 158.55,-107.23 "/>
<polyline fill="none" stroke="black" points="250.56,-107.23 250.56,-90.7 "/>
<polyline fill="none" stroke="black" points="250.56,-107.23 252.63,-109.3 "/>
<text text-anchor="middle" x="205.59" y="-97.3" font-family="Helvetica,sans-Serif" font-size="9.00">packages/db&#45;mock/</text>
</a>
</g>
</g>
<!-- packages/db&#45;mock/&#45;&gt;packages/db&#45;schema/ -->
<g id="edge7" class="edge">
<title>packages/db&#45;mock/&#45;&gt;packages/db&#45;schema/</title>
<path fill="none" stroke="#000000" stroke-width="2" stroke-opacity="0.200000" d="M236.15,-109.36C244.28,-112.04 253.08,-115.04 261.12,-118 273.11,-122.41 286.2,-127.64 297.4,-132.26"/>
<polygon fill="#000000" fill-opacity="0.200000" stroke="#000000" stroke-width="2" stroke-opacity="0.200000" points="296.72,-134.25 303.07,-134.61 298.33,-130.37 296.72,-134.25"/>
</g>
<!-- packages/infra/ -->
<g id="node8" class="node">
<title>packages/infra/</title>
<g id="a_node8"><a xlink:href="packages/infra/" xlink:title="infra">
<polygon fill="#ffffcc" stroke="black" points="244.13,-153.3 169.12,-153.3 167.06,-151.23 167.06,-134.7 242.06,-134.7 244.13,-136.77 244.13,-153.3"/>
<polyline fill="none" stroke="black" points="242.06,-151.23 167.06,-151.23 "/>
<polyline fill="none" stroke="black" points="242.06,-151.23 242.06,-134.7 "/>
<polyline fill="none" stroke="black" points="242.06,-151.23 244.13,-153.3 "/>
<text text-anchor="middle" x="205.59" y="-141.3" font-family="Helvetica,sans-Serif" font-size="9.00">packages/infra/</text>
</a>
</g>
</g>
<!-- packages/infra/&#45;&gt;packages/db&#45;schema/ -->
<g id="edge11" class="edge">
<title>packages/infra/&#45;&gt;packages/db&#45;schema/</title>
<path fill="none" stroke="#000000" stroke-width="2" stroke-opacity="0.200000" d="M244.43,-144C251.88,-144 259.86,-144 267.78,-144"/>
<polygon fill="#000000" fill-opacity="0.200000" stroke="#000000" stroke-width="2" stroke-opacity="0.200000" points="267.83,-146.1 273.83,-144 267.83,-141.9 267.83,-146.1"/>
</g>
<!-- packages/parse&#45;tmx/ -->
<g id="node9" class="node">
<title>packages/parse&#45;tmx/</title>
<g id="a_node9"><a xlink:href="packages/parse-tmx/" xlink:title="parse&#45;tmx">
<polygon fill="#ffffcc" stroke="black" points="255.13,-65.3 158.12,-65.3 156.05,-63.23 156.05,-46.7 253.06,-46.7 255.13,-48.77 255.13,-65.3"/>
<polyline fill="none" stroke="black" points="253.06,-63.23 156.05,-63.23 "/>
<polyline fill="none" stroke="black" points="253.06,-63.23 253.06,-46.7 "/>
<polyline fill="none" stroke="black" points="253.06,-63.23 255.13,-65.3 "/>
<text text-anchor="middle" x="205.59" y="-53.3" font-family="Helvetica,sans-Serif" font-size="9.00">packages/parse&#45;tmx/</text>
</a>
</g>
</g>
<!-- packages/parse&#45;tmx/&#45;&gt;packages/shared/ -->
<g id="edge12" class="edge">
<title>packages/parse&#45;tmx/&#45;&gt;packages/shared/</title>
<path fill="none" stroke="#000000" stroke-width="2" stroke-opacity="0.200000" d="M241.75,-46.67C252.1,-44.33 263.5,-42.17 274.12,-41 320.09,-35.96 338.46,-17.3 378.17,-41 410.22,-60.13 424.86,-104.85 430.58,-128.58"/>
<polygon fill="#000000" fill-opacity="0.200000" stroke="#000000" stroke-width="2" stroke-opacity="0.200000" points="428.59,-129.29 431.96,-134.68 432.68,-128.36 428.59,-129.29"/>
</g>
<!-- packages/xml2js/ -->
<g id="node10" class="node">
<title>packages/xml2js/</title>
<g id="a_node10"><a xlink:href="packages/xml2js/" xlink:title="xml2js">
<polygon fill="#ffffcc" stroke="black" points="368.68,-65.3 285.68,-65.3 283.62,-63.23 283.62,-46.7 366.61,-46.7 368.68,-48.77 368.68,-65.3"/>
<polyline fill="none" stroke="black" points="366.61,-63.23 283.62,-63.23 "/>
<polyline fill="none" stroke="black" points="366.61,-63.23 366.61,-46.7 "/>
<polyline fill="none" stroke="black" points="366.61,-63.23 368.68,-65.3 "/>
<text text-anchor="middle" x="326.15" y="-53.3" font-family="Helvetica,sans-Serif" font-size="9.00">packages/xml2js/</text>
</a>
</g>
</g>
<!-- packages/parse&#45;tmx/&#45;&gt;packages/xml2js/ -->
<g id="edge13" class="edge">
<title>packages/parse&#45;tmx/&#45;&gt;packages/xml2js/</title>
<path fill="none" stroke="#000000" stroke-width="2" stroke-opacity="0.200000" d="M255.15,-56C262.45,-56 269.97,-56 277.25,-56"/>
<polygon fill="#000000" fill-opacity="0.200000" stroke="#000000" stroke-width="2" stroke-opacity="0.200000" points="277.3,-58.1 283.3,-56 277.3,-53.9 277.3,-58.1"/>
</g>
<!-- packages/xml2js/&#45;&gt;packages/shared/ -->
<g id="edge17" class="edge">
<title>packages/xml2js/&#45;&gt;packages/shared/</title>
<path fill="none" stroke="#000000" stroke-width="2" stroke-opacity="0.200000" d="M362.21,-65.41C367.82,-67.73 373.35,-70.56 378.17,-74 398.86,-88.76 415.82,-113.31 425.34,-129.06"/>
<polygon fill="#000000" fill-opacity="0.200000" stroke="#000000" stroke-width="2" stroke-opacity="0.200000" points="423.65,-130.33 428.5,-134.44 427.27,-128.2 423.65,-130.33"/>
</g>
<!-- packages/vue&#45;phaserjs/ -->
<g id="node11" class="node">
<title>packages/vue&#45;phaserjs/</title>
<g id="a_node11"><a xlink:href="packages/vue-phaserjs/" xlink:title="vue&#45;phaserjs">
<polygon fill="#ffffcc" stroke="black" points="132.08,-65.3 23.04,-65.3 20.98,-63.23 20.98,-46.7 130.02,-46.7 132.08,-48.77 132.08,-65.3"/>
<polyline fill="none" stroke="black" points="130.02,-63.23 20.98,-63.23 "/>
<polyline fill="none" stroke="black" points="130.02,-63.23 130.02,-46.7 "/>
<polyline fill="none" stroke="black" points="130.02,-63.23 132.08,-65.3 "/>
<text text-anchor="middle" x="76.53" y="-53.3" font-family="Helvetica,sans-Serif" font-size="9.00">packages/vue&#45;phaserjs/</text>
</a>
</g>
</g>
<!-- packages/vue&#45;phaserjs/&#45;&gt;packages/shared/ -->
<g id="edge15" class="edge">
<title>packages/vue&#45;phaserjs/&#45;&gt;packages/shared/</title>
<path fill="none" stroke="#000000" stroke-width="2" stroke-opacity="0.200000" d="M120,-65.36C129.84,-67.37 140.29,-69.38 150.06,-71 199.14,-79.16 212.65,-73.78 261.12,-85 313.32,-97.08 371.91,-118.97 405.64,-132.42"/>
<polygon fill="#000000" fill-opacity="0.200000" stroke="#000000" stroke-width="2" stroke-opacity="0.200000" points="404.89,-134.38 411.24,-134.67 406.45,-130.48 404.89,-134.38"/>
</g>
<!-- packages/vue&#45;phaserjs/&#45;&gt;packages/configuration/ -->
<g id="edge14" class="edge">
<title>packages/vue&#45;phaserjs/&#45;&gt;packages/configuration/</title>
<path fill="none" stroke="#000000" stroke-width="2" stroke-opacity="0.200000" d="M116,-46.61C129.93,-43.22 145.78,-39.35 160.18,-35.84"/>
<polygon fill="#000000" fill-opacity="0.200000" stroke="#000000" stroke-width="2" stroke-opacity="0.200000" points="160.92,-37.82 166.25,-34.35 159.93,-33.74 160.92,-37.82"/>
</g>
<!-- packages/vue&#45;phaserjs/&#45;&gt;packages/parse&#45;tmx/ -->
<g id="edge16" class="edge">
<title>packages/vue&#45;phaserjs/&#45;&gt;packages/parse&#45;tmx/</title>
<path fill="none" stroke="#000000" stroke-width="2" stroke-opacity="0.200000" d="M132.15,-56C137.98,-56 143.91,-56 149.74,-56"/>
<polygon fill="#000000" fill-opacity="0.200000" stroke="#000000" stroke-width="2" stroke-opacity="0.200000" points="150.02,-58.1 156.02,-56 150.02,-53.9 150.02,-58.1"/>
</g>
</g>
</svg>
