<?xml version="1.0" encoding="UTF-8" standalone="no"?>
<!DOCTYPE svg PUBLIC "-//W3C//DTD SVG 1.1//EN"
 "http://www.w3.org/Graphics/SVG/1.1/DTD/svg11.dtd">
<!-- Generated by graphviz version 5.0.0 (20220707.1540)
 -->
<!-- Title: dependency&#45;cruiser output Pages: 1 -->
<svg width="560pt" height="224pt"
 viewBox="0.00 0.00 559.84 224.00" xmlns="http://www.w3.org/2000/svg" xmlns:xlink="http://www.w3.org/1999/xlink">
<g id="graph0" class="graph" transform="scale(1 1) rotate(0) translate(4 220)">
<title>dependency&#45;cruiser output</title>
<polygon fill="white" stroke="transparent" points="-4,4 -4,-220 555.84,-220 555.84,4 -4,4"/>
<g id="clust1" class="cluster">
<title>cluster_packages</title>
<path fill="#ffffff" stroke="black" stroke-width="2" d="M20,-8C20,-8 531.84,-8 531.84,-8 537.84,-8 543.84,-14 543.84,-20 543.84,-20 543.84,-196 543.84,-196 543.84,-202 537.84,-208 531.84,-208 531.84,-208 20,-208 20,-208 14,-208 8,-202 8,-196 8,-196 8,-20 8,-20 8,-14 14,-8 20,-8"/>
<text text-anchor="middle" x="275.92" y="-195.9" font-family="Times" font-size="9.00">packages</text>
</g>
<!-- packages/azure&#45;functions/ -->
<g id="node1" class="node">
<title>packages/azure&#45;functions/</title>
<g id="a_node1"><a xlink:href="packages/azure-functions/" xlink:title="azure&#45;functions">
<polygon fill="#ffffcc" stroke="black" points="125.93,-157.3 18.09,-157.3 16.02,-155.23 16.02,-138.7 123.87,-138.7 125.93,-140.77 125.93,-157.3"/>
<polyline fill="none" stroke="black" points="123.87,-155.23 16.02,-155.23 "/>
<polyline fill="none" stroke="black" points="123.87,-155.23 123.87,-138.7 "/>
<polyline fill="none" stroke="black" points="123.87,-155.23 125.93,-157.3 "/>
<text text-anchor="middle" x="70.98" y="-145.3" font-family="Times" font-size="9.00">packages/azure&#45;functions/</text>
</a>
</g>
</g>
<!-- packages/db&#45;schema/ -->
<g id="node2" class="node">
<title>packages/db&#45;schema/</title>
<g id="a_node2"><a xlink:href="packages/db-schema/" xlink:title="db&#45;schema">
<polygon fill="#ffffcc" stroke="black" points="349.12,-109.3 258.25,-109.3 256.19,-107.23 256.19,-90.7 347.05,-90.7 349.12,-92.77 349.12,-109.3"/>
<polyline fill="none" stroke="black" points="347.05,-107.23 256.19,-107.23 "/>
<polyline fill="none" stroke="black" points="347.05,-107.23 347.05,-90.7 "/>
<polyline fill="none" stroke="black" points="347.05,-107.23 349.12,-109.3 "/>
<text text-anchor="middle" x="302.65" y="-97.3" font-family="Times" font-size="9.00">packages/db&#45;schema/</text>
</a>
</g>
</g>
<!-- packages/azure&#45;functions/&#45;&gt;packages/db&#45;schema/ -->
<g id="edge1" class="edge">
<title>packages/azure&#45;functions/&#45;&gt;packages/db&#45;schema/</title>
<path fill="none" stroke="#000000" stroke-width="2" stroke-opacity="0.200000" d="M111.18,-138.67C120.27,-136.66 129.93,-134.64 138.96,-133 182.88,-125 194.81,-128.56 238.42,-119 248.16,-116.87 258.57,-113.99 268.09,-111.12"/>
<polygon fill="#000000" fill-opacity="0.200000" stroke="#000000" stroke-width="2" stroke-opacity="0.200000" points="268.76,-113.11 273.88,-109.34 267.53,-109.1 268.76,-113.11"/>
</g>
<!-- packages/db/ -->
<g id="node3" class="node">
<title>packages/db/</title>
<g id="a_node3"><a xlink:href="packages/db/" xlink:title="db">
<polygon fill="#ffffcc" stroke="black" points="220.17,-157.3 159.27,-157.3 157.21,-155.23 157.21,-138.7 218.1,-138.7 220.17,-140.77 220.17,-157.3"/>
<polyline fill="none" stroke="black" points="218.1,-155.23 157.21,-155.23 "/>
<polyline fill="none" stroke="black" points="218.1,-155.23 218.1,-138.7 "/>
<polyline fill="none" stroke="black" points="218.1,-155.23 220.17,-157.3 "/>
<text text-anchor="middle" x="188.69" y="-145.3" font-family="Times" font-size="9.00">packages/db/</text>
</a>
</g>
</g>
<!-- packages/azure&#45;functions/&#45;&gt;packages/db/ -->
<g id="edge2" class="edge">
<title>packages/azure&#45;functions/&#45;&gt;packages/db/</title>
<path fill="none" stroke="#000000" stroke-width="2" stroke-opacity="0.200000" d="M126.11,-148C134.38,-148 142.75,-148 150.55,-148"/>
<polygon fill="#000000" fill-opacity="0.200000" stroke="#000000" stroke-width="2" stroke-opacity="0.200000" points="150.94,-150.1 156.94,-148 150.94,-145.9 150.94,-150.1"/>
</g>
<!-- packages/shared/ -->
<g id="node4" class="node">
<title>packages/shared/</title>
<g id="a_node4"><a xlink:href="packages/shared/" xlink:title="shared">
<polygon fill="#ffffcc" stroke="black" points="536.08,-114.3 460.2,-114.3 458.14,-112.23 458.14,-95.7 534.01,-95.7 536.08,-97.77 536.08,-114.3"/>
<polyline fill="none" stroke="black" points="534.01,-112.23 458.14,-112.23 "/>
<polyline fill="none" stroke="black" points="534.01,-112.23 534.01,-95.7 "/>
<polyline fill="none" stroke="black" points="534.01,-112.23 536.08,-114.3 "/>
<text text-anchor="middle" x="497.11" y="-102.3" font-family="Times" font-size="9.00">packages/shared/</text>
</a>
</g>
</g>
<!-- packages/azure&#45;functions/&#45;&gt;packages/shared/ -->
<g id="edge3" class="edge">
<title>packages/azure&#45;functions/&#45;&gt;packages/shared/</title>
<path fill="none" stroke="#000000" stroke-width="2" stroke-opacity="0.200000" d="M98.69,-157.4C162.64,-178.2 327.9,-221.82 445.37,-163 464.21,-153.57 479.08,-133.79 487.72,-119.96"/>
<polygon fill="#000000" fill-opacity="0.200000" stroke="#000000" stroke-width="2" stroke-opacity="0.200000" points="489.75,-120.67 491.04,-114.45 486.15,-118.51 489.75,-120.67"/>
</g>
<!-- packages/db&#45;schema/&#45;&gt;packages/shared/ -->
<g id="edge8" class="edge">
<title>packages/db&#45;schema/&#45;&gt;packages/shared/</title>
<path fill="none" stroke="#000000" stroke-width="2" stroke-opacity="0.200000" d="M349.26,-101.18C380.42,-101.99 421.48,-103.06 452.25,-103.86"/>
<polygon fill="#000000" fill-opacity="0.200000" stroke="#000000" stroke-width="2" stroke-opacity="0.200000" points="452.21,-105.96 458.27,-104.02 452.32,-101.76 452.21,-105.96"/>
</g>
<!-- packages/azure/ -->
<g id="node6" class="node">
<title>packages/azure/</title>
<g id="a_node6"><a xlink:href="packages/azure/" xlink:title="azure">
<polygon fill="#ffffcc" stroke="black" points="443.09,-136.3 371.23,-136.3 369.17,-134.23 369.17,-117.7 441.03,-117.7 443.09,-119.77 443.09,-136.3"/>
<polyline fill="none" stroke="black" points="441.03,-134.23 369.17,-134.23 "/>
<polyline fill="none" stroke="black" points="441.03,-134.23 441.03,-117.7 "/>
<polyline fill="none" stroke="black" points="441.03,-134.23 443.09,-136.3 "/>
<text text-anchor="middle" x="406.13" y="-124.3" font-family="Times" font-size="9.00">packages/azure/</text>
</a>
</g>
</g>
<!-- packages/db&#45;schema/&#45;&gt;packages/azure/ -->
<g id="edge9" class="edge">
<title>packages/db&#45;schema/&#45;&gt;packages/azure/</title>
<path fill="none" stroke="#000000" stroke-width="2" stroke-opacity="0.200000" d="M338.86,-109.37C346.89,-111.5 355.49,-113.79 363.75,-115.99"/>
<polygon fill="#000000" fill-opacity="0.200000" stroke="#000000" stroke-width="2" stroke-opacity="0.200000" points="363.65,-118.14 369.99,-117.65 364.73,-114.08 363.65,-118.14"/>
</g>
<!-- packages/db/&#45;&gt;packages/db&#45;schema/ -->
<g id="edge11" class="edge">
<title>packages/db/&#45;&gt;packages/db&#45;schema/</title>
<path fill="none" stroke="#000000" stroke-width="2" stroke-opacity="0.200000" d="M220.19,-138.83C226.43,-136.38 232.81,-133.44 238.42,-130 245.13,-125.89 244.7,-122.07 251.42,-118 255.23,-115.69 259.39,-113.61 263.62,-111.76"/>
<polygon fill="#000000" fill-opacity="0.200000" stroke="#000000" stroke-width="2" stroke-opacity="0.200000" points="264.67,-113.6 269.42,-109.38 263.07,-109.72 264.67,-113.6"/>
</g>
<!-- packages/db/&#45;&gt;packages/shared/ -->
<g id="edge10" class="edge">
<title>packages/db/&#45;&gt;packages/shared/</title>
<path fill="none" stroke="#000000" stroke-width="2" stroke-opacity="0.200000" d="M220.41,-155.96C270.1,-167.19 370.12,-182.87 445.37,-150 461.09,-143.13 475.35,-129.51 484.72,-119.04"/>
<polygon fill="#000000" fill-opacity="0.200000" stroke="#000000" stroke-width="2" stroke-opacity="0.200000" points="486.32,-120.4 488.67,-114.49 483.15,-117.65 486.32,-120.4"/>
</g>
<!-- packages/db/&#45;&gt;packages/azure/ -->
<g id="edge12" class="edge">
<title>packages/db/&#45;&gt;packages/azure/</title>
<path fill="none" stroke="#000000" stroke-width="2" stroke-opacity="0.200000" d="M214.24,-138.68C225.41,-134.9 238.9,-130.97 251.42,-129 288.87,-123.12 332.08,-123.15 363.13,-124.34"/>
<polygon fill="#000000" fill-opacity="0.200000" stroke="#000000" stroke-width="2" stroke-opacity="0.200000" points="363.09,-126.44 369.17,-124.59 363.26,-122.24 363.09,-126.44"/>
</g>
<!-- packages/azure&#45;mock/ -->
<g id="node5" class="node">
<title>packages/azure&#45;mock/</title>
<g id="a_node5"><a xlink:href="packages/azure-mock/" xlink:title="azure&#45;mock">
<polygon fill="#ffffcc" stroke="black" points="351.11,-153.3 256.26,-153.3 254.2,-151.23 254.2,-134.7 349.04,-134.7 351.11,-136.77 351.11,-153.3"/>
<polyline fill="none" stroke="black" points="349.04,-151.23 254.2,-151.23 "/>
<polyline fill="none" stroke="black" points="349.04,-151.23 349.04,-134.7 "/>
<polyline fill="none" stroke="black" points="349.04,-151.23 351.11,-153.3 "/>
<text text-anchor="middle" x="302.65" y="-141.3" font-family="Times" font-size="9.00">packages/azure&#45;mock/</text>
</a>
</g>
</g>
<!-- packages/azure&#45;mock/&#45;&gt;packages/shared/ -->
<g id="edge4" class="edge">
<title>packages/azure&#45;mock/&#45;&gt;packages/shared/</title>
<path fill="none" stroke="#000000" stroke-width="2" stroke-opacity="0.200000" d="M351.13,-150.41C379.24,-152.48 415.15,-152.09 445.37,-142 459.46,-137.3 472.93,-127.12 482.44,-118.63"/>
<polygon fill="#000000" fill-opacity="0.200000" stroke="#000000" stroke-width="2" stroke-opacity="0.200000" points="484.06,-119.99 487.04,-114.38 481.2,-116.91 484.06,-119.99"/>
</g>
<!-- packages/azure&#45;mock/&#45;&gt;packages/azure/ -->
<g id="edge5" class="edge">
<title>packages/azure&#45;mock/&#45;&gt;packages/azure/</title>
<path fill="none" stroke="#000000" stroke-width="2" stroke-opacity="0.200000" d="M351.12,-136.05C355.12,-135.38 359.14,-134.7 363.09,-134.04"/>
<polygon fill="#000000" fill-opacity="0.200000" stroke="#000000" stroke-width="2" stroke-opacity="0.200000" points="363.65,-136.08 369.22,-133.02 362.96,-131.94 363.65,-136.08"/>
</g>
<!-- packages/azure/&#45;&gt;packages/shared/ -->
<g id="edge6" class="edge">
<title>packages/azure/&#45;&gt;packages/shared/</title>
<path fill="none" stroke="#000000" stroke-width="2" stroke-opacity="0.200000" d="M443.06,-118.12C446.04,-117.38 449.07,-116.63 452.1,-115.88"/>
<polygon fill="#000000" fill-opacity="0.200000" stroke="#000000" stroke-width="2" stroke-opacity="0.200000" points="452.98,-117.83 458.3,-114.35 451.97,-113.75 452.98,-117.83"/>
</g>
<!-- packages/configuration/ -->
<g id="node7" class="node">
<title>packages/configuration/</title>
<g id="a_node7"><a xlink:href="packages/configuration/" xlink:title="configuration">
<polygon fill="#ffffcc" stroke="black" points="354.12,-78.3 253.25,-78.3 251.19,-76.23 251.19,-59.7 352.05,-59.7 354.12,-61.77 354.12,-78.3"/>
<polyline fill="none" stroke="black" points="352.05,-76.23 251.19,-76.23 "/>
<polyline fill="none" stroke="black" points="352.05,-76.23 352.05,-59.7 "/>
<polyline fill="none" stroke="black" points="352.05,-76.23 354.12,-78.3 "/>
<text text-anchor="middle" x="302.65" y="-66.3" font-family="Times" font-size="9.00">packages/configuration/</text>
</a>
</g>
</g>
<!-- packages/db&#45;mock/ -->
<g id="node8" class="node">
<title>packages/db&#45;mock/</title>
<g id="a_node8"><a xlink:href="packages/db-mock/" xlink:title="db&#45;mock">
<polygon fill="#ffffcc" stroke="black" points="231.66,-113.3 147.78,-113.3 145.71,-111.23 145.71,-94.7 229.59,-94.7 231.66,-96.77 231.66,-113.3"/>
<polyline fill="none" stroke="black" points="229.59,-111.23 145.71,-111.23 "/>
<polyline fill="none" stroke="black" points="229.59,-111.23 229.59,-94.7 "/>
<polyline fill="none" stroke="black" points="229.59,-111.23 231.66,-113.3 "/>
<text text-anchor="middle" x="188.69" y="-101.3" font-family="Times" font-size="9.00">packages/db&#45;mock/</text>
</a>
</g>
</g>
<!-- packages/db&#45;mock/&#45;&gt;packages/db&#45;schema/ -->
<g id="edge7" class="edge">
<title>packages/db&#45;mock/&#45;&gt;packages/db&#45;schema/</title>
<path fill="none" stroke="#000000" stroke-width="2" stroke-opacity="0.200000" d="M231.7,-102.5C237.66,-102.29 243.84,-102.07 249.95,-101.85"/>
<polygon fill="#000000" fill-opacity="0.200000" stroke="#000000" stroke-width="2" stroke-opacity="0.200000" points="250.11,-103.94 256.03,-101.63 249.96,-99.75 250.11,-103.94"/>
</g>
<!-- packages/infra/ -->
<g id="node9" class="node">
<title>packages/infra/</title>
<g id="a_node9"><a xlink:href="packages/infra/" xlink:title="infra">
<polygon fill="#ffffcc" stroke="black" points="224.16,-82.3 155.28,-82.3 153.22,-80.23 153.22,-63.7 222.09,-63.7 224.16,-65.77 224.16,-82.3"/>
<polyline fill="none" stroke="black" points="222.09,-80.23 153.22,-80.23 "/>
<polyline fill="none" stroke="black" points="222.09,-80.23 222.09,-63.7 "/>
<polyline fill="none" stroke="black" points="222.09,-80.23 224.16,-82.3 "/>
<text text-anchor="middle" x="188.69" y="-70.3" font-family="Times" font-size="9.00">packages/infra/</text>
</a>
</g>
</g>
<!-- packages/infra/&#45;&gt;packages/db&#45;schema/ -->
<g id="edge13" class="edge">
<title>packages/infra/&#45;&gt;packages/db&#45;schema/</title>
<path fill="none" stroke="#000000" stroke-width="2" stroke-opacity="0.200000" d="M224.19,-81.32C234.5,-83.81 245.94,-86.56 256.8,-89.18"/>
<polygon fill="#000000" fill-opacity="0.200000" stroke="#000000" stroke-width="2" stroke-opacity="0.200000" points="256.44,-91.26 262.76,-90.62 257.42,-87.17 256.44,-91.26"/>
</g>
<!-- packages/parse&#45;tmx/ -->
<g id="node10" class="node">
<title>packages/parse&#45;tmx/</title>
<g id="a_node10"><a xlink:href="packages/parse-tmx/" xlink:title="parse&#45;tmx">
<polygon fill="#ffffcc" stroke="black" points="347.62,-34.3 259.75,-34.3 257.69,-32.23 257.69,-15.7 345.56,-15.7 347.62,-17.77 347.62,-34.3"/>
<polyline fill="none" stroke="black" points="345.56,-32.23 257.69,-32.23 "/>
<polyline fill="none" stroke="black" points="345.56,-32.23 345.56,-15.7 "/>
<polyline fill="none" stroke="black" points="345.56,-32.23 347.62,-34.3 "/>
<text text-anchor="middle" x="302.65" y="-22.3" font-family="Times" font-size="9.00">packages/parse&#45;tmx/</text>
</a>
</g>
</g>
<!-- packages/parse&#45;tmx/&#45;&gt;packages/shared/ -->
<g id="edge14" class="edge">
<title>packages/parse&#45;tmx/&#45;&gt;packages/shared/</title>
<path fill="none" stroke="#000000" stroke-width="2" stroke-opacity="0.200000" d="M338.62,-15.67C368.83,-9.64 412.65,-5.89 445.37,-24 470.66,-38 485.02,-70.44 491.62,-89.75"/>
<polygon fill="#000000" fill-opacity="0.200000" stroke="#000000" stroke-width="2" stroke-opacity="0.200000" points="489.64,-90.46 493.49,-95.52 493.64,-89.16 489.64,-90.46"/>
</g>
<!-- packages/xml2js/ -->
<g id="node11" class="node">
<title>packages/xml2js/</title>
<g id="a_node11"><a xlink:href="packages/xml2js/" xlink:title="xml2js">
<polygon fill="#ffffcc" stroke="black" points="445.62,-48.3 368.71,-48.3 366.64,-46.23 366.64,-29.7 443.55,-29.7 445.62,-31.77 445.62,-48.3"/>
<polyline fill="none" stroke="black" points="443.55,-46.23 366.64,-46.23 "/>
<polyline fill="none" stroke="black" points="443.55,-46.23 443.55,-29.7 "/>
<polyline fill="none" stroke="black" points="443.55,-46.23 445.62,-48.3 "/>
<text text-anchor="middle" x="406.13" y="-36.3" font-family="Times" font-size="9.00">packages/xml2js/</text>
</a>
</g>
</g>
<!-- packages/parse&#45;tmx/&#45;&gt;packages/xml2js/ -->
<g id="edge15" class="edge">
<title>packages/parse&#45;tmx/&#45;&gt;packages/xml2js/</title>
<path fill="none" stroke="#000000" stroke-width="2" stroke-opacity="0.200000" d="M347.87,-31.1C352.1,-31.68 356.4,-32.28 360.64,-32.86"/>
<polygon fill="#000000" fill-opacity="0.200000" stroke="#000000" stroke-width="2" stroke-opacity="0.200000" points="360.56,-34.97 366.79,-33.71 361.13,-30.81 360.56,-34.97"/>
</g>
<!-- packages/xml2js/&#45;&gt;packages/shared/ -->
<g id="edge20" class="edge">
<title>packages/xml2js/&#45;&gt;packages/shared/</title>
<path fill="none" stroke="#000000" stroke-width="2" stroke-opacity="0.200000" d="M430.03,-48.33C435.25,-50.84 440.65,-53.77 445.37,-57 459.79,-66.84 474.04,-80.79 483.74,-91.12"/>
<polygon fill="#000000" fill-opacity="0.200000" stroke="#000000" stroke-width="2" stroke-opacity="0.200000" points="482.26,-92.6 487.87,-95.58 485.34,-89.75 482.26,-92.6"/>
</g>
<!-- packages/virrun/ -->
<g id="node12" class="node">
<title>packages/virrun/</title>
<g id="a_node12"><a xlink:href="packages/virrun/" xlink:title="virrun">
<polygon fill="#ffffcc" stroke="black" points="444.11,-92.3 370.22,-92.3 368.15,-90.23 368.15,-73.7 442.04,-73.7 444.11,-75.77 444.11,-92.3"/>
<polyline fill="none" stroke="black" points="442.04,-90.23 368.15,-90.23 "/>
<polyline fill="none" stroke="black" points="442.04,-90.23 442.04,-73.7 "/>
<polyline fill="none" stroke="black" points="442.04,-90.23 444.11,-92.3 "/>
<text text-anchor="middle" x="406.13" y="-80.3" font-family="Times" font-size="9.00">packages/virrun/</text>
</a>
</g>
</g>
<!-- packages/virrun/&#45;&gt;packages/shared/ -->
<g id="edge16" class="edge">
<title>packages/virrun/&#45;&gt;packages/shared/</title>
<path fill="none" stroke="#000000" stroke-width="2" stroke-opacity="0.200000" d="M444.35,-92.2C446.97,-92.85 449.63,-93.51 452.29,-94.17"/>
<polygon fill="#000000" fill-opacity="0.200000" stroke="#000000" stroke-width="2" stroke-opacity="0.200000" points="452.14,-96.29 458.47,-95.69 453.15,-92.21 452.14,-96.29"/>
</g>
<!-- packages/vue&#45;phaserjs/ -->
<g id="node13" class="node">
<title>packages/vue&#45;phaserjs/</title>
<g id="a_node13"><a xlink:href="packages/vue-phaserjs/" xlink:title="vue&#45;phaserjs">
<polygon fill="#ffffcc" stroke="black" points="238.65,-51.3 140.79,-51.3 138.72,-49.23 138.72,-32.7 236.59,-32.7 238.65,-34.77 238.65,-51.3"/>
<polyline fill="none" stroke="black" points="236.59,-49.23 138.72,-49.23 "/>
<polyline fill="none" stroke="black" points="236.59,-49.23 236.59,-32.7 "/>
<polyline fill="none" stroke="black" points="236.59,-49.23 238.65,-51.3 "/>
<text text-anchor="middle" x="188.69" y="-39.3" font-family="Times" font-size="9.00">packages/vue&#45;phaserjs/</text>
</a>
</g>
</g>
<!-- packages/vue&#45;phaserjs/&#45;&gt;packages/shared/ -->
<g id="edge18" class="edge">
<title>packages/vue&#45;phaserjs/&#45;&gt;packages/shared/</title>
<path fill="none" stroke="#000000" stroke-width="2" stroke-opacity="0.200000" d="M238.64,-44.56C271.33,-46.53 315.26,-49.64 353.89,-54 394.76,-58.61 407.34,-52.32 445.37,-68 458.76,-73.52 471.92,-83.27 481.48,-91.38"/>
<polygon fill="#000000" fill-opacity="0.200000" stroke="#000000" stroke-width="2" stroke-opacity="0.200000" points="480.23,-93.08 486.13,-95.44 482.99,-89.91 480.23,-93.08"/>
</g>
<!-- packages/vue&#45;phaserjs/&#45;&gt;packages/configuration/ -->
<g id="edge17" class="edge">
<title>packages/vue&#45;phaserjs/&#45;&gt;packages/configuration/</title>
<path fill="none" stroke="#000000" stroke-width="2" stroke-opacity="0.200000" d="M228.53,-51.37C237.65,-53.57 247.44,-55.93 256.8,-58.18"/>
<polygon fill="#000000" fill-opacity="0.200000" stroke="#000000" stroke-width="2" stroke-opacity="0.200000" points="256.55,-60.28 262.88,-59.65 257.54,-56.2 256.55,-60.28"/>
</g>
<!-- packages/vue&#45;phaserjs/&#45;&gt;packages/parse&#45;tmx/ -->
<g id="edge19" class="edge">
<title>packages/vue&#45;phaserjs/&#45;&gt;packages/parse&#45;tmx/</title>
<path fill="none" stroke="#000000" stroke-width="2" stroke-opacity="0.200000" d="M238.47,-34.59C242.85,-33.93 247.28,-33.26 251.67,-32.59"/>
<polygon fill="#000000" fill-opacity="0.200000" stroke="#000000" stroke-width="2" stroke-opacity="0.200000" points="251.99,-34.66 257.61,-31.69 251.36,-30.51 251.99,-34.66"/>
</g>
</g>
</svg>
