<svg xmlns="http://www.w3.org/2000/svg" width="90" height="28" viewBox="0 0 90 28" fill="none">
  <path fill-rule="evenodd" clip-rule="evenodd"
    d="M.21 19.007a1.349 1.349 0 0 1-.011-1.427l10.13-16.523a1.349 1.349 0 0 1 2.374.14l9.254 20.074a1.349 1.349 0 0 1-.838 1.856L6.725 27.446a1.349 1.349 0 0 1-1.527-.57L.21 19.007ZM11.497 5.888a.506.506 0 0 1 .96-.1l6.383 14.77a.506.506 0 0 1-.32.684l-9.945 2.97a.506.506 0 0 1-.64-.585l3.562-17.739Zm36.998 15.25h2.828V10.771h-2.828v10.365Zm-.12-13.045c0-.92.513-1.381 1.539-1.381 1.025 0 1.539.46 1.539 1.38 0 .44-.129.781-.385 1.025-.257.245-.641.366-1.154.366-1.026 0-1.54-.463-1.54-1.39Zm38.796 8.242-1.094.037c-.822.025-1.434.174-1.836.445-.402.272-.602.686-.602 1.243 0 .797.457 1.196 1.372 1.196.655 0 1.179-.189 1.57-.566.393-.377.59-.878.59-1.502v-.853Zm.834 4.802-.547-1.409h-.074c-.476.6-.966 1.016-1.47 1.247-.503.232-1.16.348-1.97.348-.995 0-1.778-.284-2.35-.853-.571-.568-.857-1.378-.857-2.43 0-1.099.384-1.91 1.154-2.433.77-.522 1.93-.81 3.481-.867l1.799-.055v-.455c0-1.05-.538-1.576-1.613-1.576-.829 0-1.802.25-2.92.751l-.937-1.91c1.193-.623 2.516-.936 3.968-.936 1.39 0 2.457.303 3.199.909.741.605 1.112 1.527 1.112 2.762v6.907h-1.975Zm-15.525 0h-2.828v-6.054c0-.747-.125-1.308-.375-1.682-.25-.374-.644-.561-1.182-.561-.723 0-1.248.266-1.576.797-.328.532-.492 1.406-.492 2.624v4.877H63.2V10.771h2.16l.38 1.326h.158c.278-.476.68-.848 1.205-1.117s1.128-.403 1.808-.403c1.551 0 2.602.507 3.152 1.52h.25c.278-.482.688-.856 1.229-1.122.54-.266 1.15-.398 1.83-.398 1.175 0 2.064.301 2.666.904.603.602.904 1.568.904 2.897v6.758h-2.837v-6.054c0-.747-.125-1.308-.375-1.682-.25-.374-.645-.561-1.183-.561-.691 0-1.21.247-1.552.742-.343.494-.515 1.279-.515 2.354v5.201Zm-12.31-.649c.739-.556 1.108-1.365 1.108-2.429 0-.512-.09-.954-.269-1.325a2.72 2.72 0 0 0-.834-.983c-.377-.284-.97-.59-1.78-.918-.909-.364-1.497-.64-1.767-.825-.268-.185-.403-.405-.403-.658 0-.451.418-.677 1.252-.677.47 0 .93.071 1.381.213.451.142.937.324 1.456.547l.853-2.04a8.62 8.62 0 0 0-3.644-.815c-1.31 0-2.322.252-3.036.755-.714.504-1.071 1.216-1.071 2.137 0 .538.085.991.255 1.359.17.367.442.693.816.977.374.285.96.594 1.757.928.556.235 1.001.44 1.335.616.334.176.569.334.705.473.136.14.204.32.204.543 0 .593-.514.89-1.54.89-.5 0-1.08-.084-1.738-.25a9.84 9.84 0 0 1-1.775-.622v2.336c.463.198.96.348 1.492.45.532.102 1.174.153 1.929.153 1.47 0 2.575-.278 3.314-.835Zm-13.175-9.827a4.562 4.562 0 0 0-.955-.083 3.21 3.21 0 0 0-1.785.533 3.898 3.898 0 0 0-1.303 1.404h-.138l-.418-1.743h-2.141v10.365h2.827v-5.275c0-.834.252-1.483.756-1.947.504-.463 1.207-.695 2.11-.695.327 0 .605.03.834.092l.213-2.651Zm-15.063 3.3h.945c.884 0 1.545-.174 1.984-.523.44-.35.659-.858.659-1.526 0-.673-.184-1.17-.552-1.492-.368-.322-.944-.482-1.73-.482h-1.306v4.023Zm6.49-2.15c0 1.458-.456 2.574-1.368 3.346-.912.773-2.208 1.16-3.89 1.16h-1.232v4.82h-2.874V7.583h4.33c1.644 0 2.893.354 3.75 1.062.856.707 1.283 1.763 1.283 3.166Z"
    fill="#2D3748" />
</svg>