<svg xmlns="http://www.w3.org/2000/svg" fill="none" viewBox="0 0 96 96" id="Namecheap--Streamline-Svg-Logos">
  <desc>
    Namecheap Streamline Icon: https://streamlinehq.com
  </desc>
  <path fill="#ff5000" d="M86.1875 21.948c-3.3047 0-6.1687 1.8359-7.6742 4.5164l-.1836.3672-6.9031 13.5859-8.7391 17.2211 5.7281 11.2727.3305.6242c.8812 1.5422 2.2031 2.8273 3.8187 3.5984 1.6157-.8078 2.9375-2.0562 3.8188-3.5984l.3305-.6242L93.8617 35.13l.4039-.8078c.4774-1.1015.7344-2.2765.7344-3.5617 0-4.8836-3.9289-8.8125-8.8125-8.8125Z"></path>
  <path fill="#ff5000" d="m33.2757 38.3246-5.6914-11.236-.3305-.6242c-.8812-1.5422-2.2031-2.8273-3.8187-3.5984-1.6157.8078-2.9375 2.0562-3.8188 3.5984l-.2937.6242L2.1749 60.8699l-.4039.8078c-.47735 1.1015-.73438 2.2765-.73438 3.5617 0 4.8469 3.92891 8.8125 8.8125 8.8125 3.30468 0 6.16878-1.8359 7.67418-4.5164l.1836-.3672 6.9032-13.5859 8.7023-17.2211-.0367-.0367Z"></path>
  <path fill="url(#a)" d="M86.1875 21.948c-3.3047 0-6.2055 1.8359-7.6742 4.5164l-.1836.3672-6.9031 13.5859-8.7391 17.2211 5.7281 11.2727.3305.6242c.8812 1.5422 2.2031 2.8273 3.8187 3.5984 1.6157-.8078 2.9375-2.0562 3.8188-3.5984l.3305-.6242L93.8617 35.13l.4039-.8078c.4774-1.1015.7344-2.2765.7344-3.5617 0-4.8836-3.9656-8.8125-8.8125-8.8125Z"></path>
  <path fill="url(#b)" d="M9.8125 74.0519c3.3047 0 6.2055-1.8359 7.6742-4.5164l.1836-.3672 6.9031-13.5859 8.7391-17.2211-5.7281-11.2727-.3305-.6242c-.8812-1.5422-2.2031-2.8273-3.8187-3.5984-1.6157.8078-2.9375 2.0562-3.8188 3.5984l-.2937.6242L2.175 60.8699l-.44062.8445C1.25703 62.816 1 63.991 1 65.2761c0 4.8469 3.92891 8.7758 8.8125 8.7758Z"></path>
  <path fill="#ff8c44" d="m33.2757 38.3246-5.6914-11.236-.3305-.6242c-.8812-1.5422-2.2031-2.8273-3.8187-3.5984.514-.2571 1.1015-.4774 1.6523-.6243.6977-.1835 1.4688-.2937 2.2031-.2937h12.0438c3.3047.0367 6.1687 1.8359 7.6742 4.5164l.257.6242 15.4586 30.5867 5.6914 11.236.3305.6242c.8812 1.5422 2.2031 2.8273 3.8187 3.5984-.514.2571-1.1015.4774-1.6523.6243-.6977.1835-1.4687.2937-2.2398.2937H56.7022c-3.3046-.0367-6.1687-1.8359-7.6742-4.5164l-.3304-.6242-15.4219-30.5867Z"></path>
  <defs>
    <linearGradient id="a" x1="493.156" x2="4158.84" y1="4881.79" y2="1749.07" gradientUnits="userSpaceOnUse">
      <stop stop-color="#d4202c"></stop>
      <stop offset=".042" stop-color="#d82d2b" stop-opacity=".958"></stop>
      <stop offset=".176" stop-color="#e25226" stop-opacity=".824"></stop>
      <stop offset=".317" stop-color="#eb7123" stop-opacity=".683"></stop>
      <stop offset=".464" stop-color="#f28920" stop-opacity=".536"></stop>
      <stop offset=".619" stop-color="#f69a1e" stop-opacity=".381"></stop>
      <stop offset=".789" stop-color="#f9a41d" stop-opacity=".211"></stop>
      <stop offset="1" stop-color="#faa71d" stop-opacity="0"></stop>
    </linearGradient>
    <linearGradient id="b" x1="2800.05" x2="-865.67" y1="280.866" y2="3413.61" gradientUnits="userSpaceOnUse">
      <stop stop-color="#d4202c"></stop>
      <stop offset=".042" stop-color="#d82d2b" stop-opacity=".958"></stop>
      <stop offset=".176" stop-color="#e25226" stop-opacity=".824"></stop>
      <stop offset=".317" stop-color="#eb7123" stop-opacity=".683"></stop>
      <stop offset=".464" stop-color="#f28920" stop-opacity=".536"></stop>
      <stop offset=".619" stop-color="#f69a1e" stop-opacity=".381"></stop>
      <stop offset=".789" stop-color="#f9a41d" stop-opacity=".211"></stop>
      <stop offset="1" stop-color="#faa71d" stop-opacity="0"></stop>
    </linearGradient>
  </defs>
</svg>