<svg xmlns="http://www.w3.org/2000/svg" fill="none" viewBox="0 0 96 96" id="Postgresql--Streamline-Svg-Logos">
  <desc>
    Postgresql Streamline Icon: https://streamlinehq.com
  </desc>
  <path fill="#000000" d="M93.3462 57.3079c-0.548 -1.6594 -1.9835 -2.8155 -3.8401 -3.093 -0.8753 -0.1307 -1.8779 -0.0749 -3.0641 0.1697 -2.0677 0.4266 -3.6018 0.5889 -4.7213 0.6205 4.2257 -7.1348 7.6619 -15.2713 9.6401 -22.9302 3.1986 -12.3841 1.4893 -18.0258 -0.508 -20.5779C85.5667 4.74267 77.8543 1.11391 68.5496 1.00268c-4.9632 -0.06058 -9.3208 0.91943 -11.5936 1.62399 -2.1164 -0.37318 -4.3922 -0.58172 -6.7801 -0.62034 -4.4753 -0.07134 -8.43 0.90423 -11.8091 2.90942 -1.8711 -0.63237 -4.8732 -1.52415 -8.3405 -2.09342 -8.155 -1.33883 -14.7274 -0.2955 -19.5347 3.10066C4.67017 10.0351 1.9714 17.1795 2.47059 27.1579c0.1583 3.1682 1.93068 12.8073 4.72105 21.949 1.60373 5.2543 3.31386 9.6178 5.08286 12.97 2.5086 4.7536 5.1928 7.553 8.2063 8.5582 1.6892 0.5629 4.758 0.9568 7.9859 -1.731 0.4091 0.4951 0.9547 0.9876 1.6793 1.4447 0.9198 0.5803 2.0449 1.0544 3.1682 1.3353 4.049 1.0123 7.8415 0.759 11.0771 -0.6596 0.0198 0.5754 0.0352 1.1252 0.0483 1.5999 0.0215 0.7702 0.0426 1.5252 0.0709 2.2313 0.1917 4.7748 0.5165 8.4874 1.479 11.0849 0.0528 0.1431 0.1239 0.3607 0.199 0.5914 0.48 1.4703 1.2832 3.9314 3.3257 5.8591 2.1156 1.9966 4.6742 2.6091 7.0175 2.6089 1.1753 0 2.2967 -0.1541 3.2801 -0.3649 3.5061 -0.7513 7.4878 -1.8961 10.3681 -5.9972 2.723 -3.8772 4.0469 -9.7168 4.2865 -18.9183 0.031 -0.26 0.0597 -0.5084 0.0873 -0.7453 0.0186 -0.1597 0.0376 -0.3231 0.0568 -0.4861l0.6417 0.0564 0.1652 0.0112c3.571 0.1627 7.9372 -0.5946 10.6187 -1.8401 2.1189 -0.9834 8.9087 -4.5679 7.3101 -9.4078Z" stroke-width="1"></path>
  <path fill="#336791" d="M87.2404 58.2492c-10.6174 2.1901 -11.3473 -1.4046 -11.3473 -1.4046C87.1034 40.2104 91.7896 19.0957 87.7455 13.928 76.7127 -0.168451 57.6145 6.49827 57.2958 6.67135l-0.1026 0.01837c-2.0977 -0.43544 -4.4452 -0.69485 -7.0836 -0.73791 -4.8042 -0.07873 -8.4484 1.25947 -11.2137 3.35647 0 0 -34.06939 -14.03526 -32.48487 17.65202 0.33708 6.7412 9.66207 51.0071 20.78447 37.6367 4.0653 -4.889 7.9932 -9.0229 7.9932 -9.0229 1.9509 1.296 4.2864 1.9571 6.7349 1.7196l0.1901 -0.1615c-0.0591 0.6071 -0.0321 1.2008 0.0762 1.9037 -2.8653 3.2013 -2.0233 3.7634 -7.7512 4.9425 -5.7958 1.1944 -2.391 3.321 -0.168 3.8767 2.695 0.674 8.9298 1.6287 13.1426 -4.2687l-0.168 0.6729c1.1227 0.8992 1.9111 5.849 1.7789 10.336 -0.1321 4.4872 -0.2203 7.5678 0.6643 9.974 0.8846 2.4063 1.7662 7.8203 9.296 6.2068 6.2919 -1.3483 9.5523 -4.8424 10.0059 -10.6707 0.3219 -4.1436 1.0503 -3.5311 1.0963 -7.2356l0.5843 -1.7538c0.6737 -5.6168 0.107 -7.4289 3.9834 -6.5861l0.942 0.0827c2.853 0.1299 6.5871 -0.4588 8.7787 -1.4775 4.7191 -2.19 7.518 -5.8467 2.8649 -4.8859h0.0004Z" stroke-width="1"></path>
  <path fill="#ffffff" d="M40.8905 29.9751c-0.9566 -0.1332 -1.8232 -0.0099 -2.2616 0.3219 -0.2468 0.1868 -0.323 0.4031 -0.3434 0.5522 -0.0551 0.3945 0.2214 0.8305 0.3911 1.0555 0.4804 0.6368 1.1824 1.0746 1.8773 1.1711 0.1006 0.0139 0.2007 0.0207 0.3003 0.0207 1.1588 0 2.212 -0.9022 2.3049 -1.5681 0.1161 -0.834 -1.0946 -1.3899 -2.2686 -1.5533Z" stroke-width="1"></path>
  <path fill="#ffffff" d="M72.5871 30.0014c-0.0912 -0.6537 -1.2548 -0.8401 -2.3587 -0.6867 -1.1023 0.1537 -2.1713 0.6512 -2.0821 1.3064 0.0718 0.5095 0.9914 1.3793 2.0806 1.3791 0.0918 0 0.1847 -0.0061 0.2782 -0.0192 0.7269 -0.1007 1.2603 -0.5623 1.5136 -0.8284 0.386 -0.4053 0.6091 -0.8574 0.5684 -1.1512Z" stroke-width="1"></path>
  <path fill="#ffffff" d="M90.7735 58.0011c-0.4048 -1.2243 -1.7077 -1.6183 -3.8727 -1.1711 -6.428 1.3266 -8.73 0.4076 -9.486 -0.149 4.9965 -7.6117 9.1067 -16.8121 11.324 -25.3966 1.0505 -4.0663 1.6307 -7.8426 1.678 -10.9205 0.0524 -3.3789 -0.5228 -5.8613 -1.7097 -7.3778 -4.7848 -6.11396 -11.8069 -9.39339 -20.3075 -9.48352 -5.8437 -0.06564 -10.7811 1.43002 -11.7383 1.85048 -2.0158 -0.5013 -4.2133 -0.80905 -6.6053 -0.8483 -4.3872 -0.07092 -8.1791 0.97937 -11.3188 3.12007 -1.3637 -0.50742 -4.8882 -1.71729 -9.1981 -2.4115 -7.4517 -1.19995 -13.3729 -0.29086 -17.5986 2.70278C6.89839 11.4883 4.57068 17.8737 5.02175 26.8945c0.15176 3.0352 1.88086 12.3716 4.61003 21.313C13.224 59.9759 17.1287 66.6382 21.2374 68.0084c0.4808 0.1605 1.0355 0.2727 1.6468 0.2727 1.4988 0 3.3362 -0.6756 5.2481 -2.974 3.1756 -3.8204 6.1405 -7.0217 7.2334 -8.1849 1.6152 0.8671 3.3892 1.351 5.2042 1.3996 0.0032 0.0475 0.0081 0.095 0.0123 0.1423 -0.3641 0.4318 -0.6628 0.8103 -0.9173 1.1334 -1.2574 1.5961 -1.5191 1.9284 -5.5667 2.7619 -1.1511 0.2375 -4.2094 0.8677 -4.2539 3.0112 -0.0488 2.3418 3.6144 3.3254 4.0319 3.4297 1.4545 0.3641 2.8556 0.5437 4.1919 0.5437 3.2501 -0.0002 6.1099 -1.0682 8.3956 -3.1349 -0.0705 8.349 0.2778 16.576 1.2802 19.0827 0.8208 2.0518 2.8267 7.0669 9.1624 7.0665 0.9294 0 1.9529 -0.1081 3.0785 -0.3493 6.6121 -1.4178 9.4833 -4.3401 10.5942 -10.7829 0.5943 -3.4432 1.6145 -11.6658 2.094 -16.0761 1.0125 0.3157 2.3161 0.4603 3.7252 0.4601 2.939 0 6.3301 -0.6243 8.4569 -1.6115 2.3889 -1.1094 6.7003 -3.8323 5.9184 -6.1975ZM75.0273 28.1976c-0.0219 1.3021 -0.2011 2.4842 -0.3911 3.7181 -0.2043 1.327 -0.4158 2.699 -0.469 4.3645 -0.0526 1.6209 0.1499 3.3061 0.3457 4.9355 0.3956 3.2915 0.8015 6.6803 -0.77 10.0241 -0.2442 -0.4338 -0.4799 -0.907 -0.6961 -1.4311 -0.1952 -0.4734 -0.6193 -1.2339 -1.2063 -2.2865 -2.2846 -4.0969 -7.6344 -13.691 -4.8958 -17.606 0.8156 -1.1655 2.8858 -2.3634 8.0826 -1.7186Zm-6.299 -22.0583c7.6163 0.16823 13.641 3.01749 17.9067 8.4682 3.2717 4.181 -0.3309 23.2049 -10.7602 39.6169 -0.103 -0.1309 -0.2079 -0.263 -0.3164 -0.3986 -0.0433 -0.0542 -0.0874 -0.1093 -0.1319 -0.165 2.6949 -4.4509 2.1679 -8.8545 1.6989 -12.7589 -0.1927 -1.6023 -0.3747 -3.1157 -0.3285 -4.537 0.048 -1.5071 0.2472 -2.7991 0.4397 -4.0486 0.237 -1.54 0.4779 -3.1332 0.4114 -5.0115 0.0496 -0.1969 0.0696 -0.4297 0.0437 -0.706 -0.1697 -1.8013 -2.226 -7.1915 -6.4175 -12.0708 -2.2924 -2.6684 -5.636 -5.65489 -10.2011 -7.66915 1.9636 -0.40695 4.6489 -0.78646 7.6552 -0.71955ZM26.1092 63.6249c-2.1063 2.5324 -3.561 2.0472 -4.0393 1.8878 -3.1169 -1.0397 -6.7333 -7.6271 -9.9217 -18.0733 -2.75894 -9.0387 -4.37133 -18.1277 -4.49881 -20.6764 -0.40294 -8.0605 1.55096 -13.6781 5.80761 -16.6969 6.9274 -4.91272 18.3169 -1.97227 22.8934 -0.48083 -0.0659 0.0648 -0.1343 0.12559 -0.1995 0.19144 -7.5097 7.58449 -7.3316 20.54259 -7.3132 21.33459 -0.0006 0.3056 0.0249 0.7383 0.0601 1.3335 0.1292 2.1794 0.3696 6.2358 -0.2727 10.8295 -0.5971 4.2688 0.7187 8.4469 3.6096 11.4632 0.2993 0.3121 0.6117 0.6053 0.9344 0.8812 -1.2869 1.3781 -4.0834 4.4253 -7.0599 8.0062Zm8.0251 -10.7079c-2.33 -2.431 -3.3881 -5.8125 -2.9035 -9.2784 0.6784 -4.8527 0.4279 -9.079 0.2934 -11.3495 -0.0188 -0.3177 -0.0354 -0.5961 -0.0454 -0.8158 1.0972 -0.9726 6.1813 -3.697 9.8069 -2.8662 1.6548 0.3791 2.6627 1.5056 3.0819 3.4437 2.1694 10.0329 0.2872 14.2146 -1.2251 17.5749 -0.3118 0.6923 -0.6062 1.3467 -0.8578 2.0238l-0.1948 0.5232c-0.4935 1.3232 -0.9526 2.5534 -1.2371 3.7217 -2.4767 -0.0076 -4.8863 -1.0655 -6.7185 -2.9774Zm0.3802 13.5308c-0.7232 -0.1807 -1.3737 -0.4946 -1.7553 -0.7548 0.3187 -0.1501 0.8861 -0.354 1.8699 -0.5566 4.7616 -0.9805 5.4967 -1.6721 7.1026 -3.7111 0.3683 -0.4673 0.7856 -0.9973 1.3635 -1.6428l0.0006 -0.0008c0.861 -0.9638 1.2547 -0.8004 1.9687 -0.5043 0.5788 0.2396 1.1423 0.9648 1.3709 1.7631 0.1081 0.377 0.2297 1.0927 -0.1678 1.6493 -3.3545 4.6968 -8.2426 4.6365 -11.7531 3.758Zm24.9188 23.1886c-5.825 1.2481 -7.8874 -1.724 -9.2465 -5.1217 -0.8772 -2.1936 -1.3082 -12.0851 -1.0024 -23.0083 0.0041 -0.1455 -0.0166 -0.2858 -0.0567 -0.4178 -0.0349 -0.2547 -0.0885 -0.5124 -0.1628 -0.7719 -0.455 -1.5893 -1.5634 -2.9189 -2.8931 -3.47 -0.5284 -0.2189 -1.4982 -0.6205 -2.6636 -0.3225 0.2487 -1.0239 0.6797 -2.18 1.1468 -3.432l0.1961 -0.5269c0.2208 -0.5937 0.4975 -1.2088 0.7904 -1.8597 1.5827 -3.5161 3.7502 -8.3317 1.3978 -19.211 -0.8813 -4.0748 -3.8236 -6.0645 -8.2842 -5.6025 -2.6743 0.2767 -5.1206 1.3557 -6.3408 1.9744 -0.2624 0.1329 -0.5024 0.2613 -0.7265 0.3864 0.3404 -4.1057 1.6273 -11.7784 6.4406 -16.6329 3.0304 -3.05632 7.0665 -4.5657 11.9841 -4.48444 9.6893 0.15873 15.9026 5.13114 19.4092 9.27474 3.0215 3.5707 4.6577 7.1674 5.3107 9.1071 -4.9106 -0.4991 -8.2504 0.4703 -9.9436 2.8907 -3.6832 5.265 2.0151 15.4843 4.7538 20.3955 0.5021 0.9002 0.9357 1.678 1.072 2.0086 0.8918 2.1613 2.0464 3.6042 2.8894 4.6577 0.2584 0.3227 0.5091 0.6357 0.6997 0.9091 -1.4872 0.4289 -4.1587 1.4194 -3.9154 6.3714 -0.1963 2.485 -1.5927 14.1184 -2.3019 18.2287 -0.9364 5.43 -2.9346 7.4527 -8.5531 8.6573Zm24.3138 -27.8242c-1.5207 0.706 -4.0658 1.2356 -6.4837 1.3492 -2.6705 0.1251 -4.0298 -0.2991 -4.3496 -0.56 -0.1502 -3.0859 0.9986 -3.4084 2.2142 -3.7497 0.191 -0.0538 0.3774 -0.106 0.5572 -0.1689 0.1119 0.091 0.2343 0.1813 0.3683 0.2698 2.1464 1.4167 5.9749 1.5695 11.3794 0.454 0.0198 -0.0042 0.0397 -0.008 0.0593 -0.012 -0.7288 0.6815 -1.9763 1.5963 -3.7451 2.4176Z" stroke-width="1"></path>
</svg>