<svg xmlns="http://www.w3.org/2000/svg" width="682" height="682" viewBox="0 0 682 682" fill="none">
  <path fill-rule="evenodd" clip-rule="evenodd"
    d="M340.771 639.454c168.825 0 305.683-136.858 305.683-305.683 0-168.823-136.858-305.682-305.683-305.682-168.823 0-305.682 136.859-305.682 305.682 0 168.825 136.859 305.683 305.682 305.683Zm0 6.089c172.186 0 311.772-139.586 311.772-311.772C652.543 161.585 512.957 22 340.771 22 168.585 22 29 161.585 29 333.771s139.585 311.772 311.771 311.772Z"
    fill="#AEDDFF" />
  <path
    d="M494.907 83.815c9.89 0 17.908-8.018 17.908-17.908S504.797 48 494.907 48 477 56.017 477 65.907s8.017 17.908 17.907 17.908Zm-291 544c9.89 0 17.908-8.018 17.908-17.908S213.797 592 203.907 592 186 600.017 186 609.907s8.017 17.908 17.907 17.908Zm136.816-293.338L260.488 145h80.235v189.477Z"
    fill="#1697F6" />
  <path d="M258.949 202.19H169l171.723 334.96V390.099L258.949 202.19Zm81.774-57.115v189.402L420.955 145h-80.232"
    fill="#7BC6FF" />
  <path d="M422.487 202.19h89.949L340.723 537.15V390.099l81.764-187.909Z" fill="#AEDDFF" />
</svg>