<svg height="477" viewBox="0 0 319 477" width="319" xmlns="http://www.w3.org/2000/svg" xmlns:xlink="http://www.w3.org/1999/xlink">
  <linearGradient id="a">
    <stop offset="0" stop-color="#52ce63" />
    <stop offset="1" stop-color="#51a256" />
  </linearGradient>
  <linearGradient id="b" x1="55.342%" x2="42.817%" xlink:href="#a" y1="0%" y2="42.863%" />
  <linearGradient id="c" x1="55.349%" x2="42.808%" xlink:href="#a" y1="0%" y2="42.863%" />
  <linearGradient id="d" x1="50%" x2="50%" y1="0%" y2="58.811%">
    <stop offset="0" stop-color="#8ae99c" />
    <stop offset="1" stop-color="#52ce63" />
  </linearGradient>
  <linearGradient id="e" x1="51.378%" x2="44.585%" y1="17.473%" y2="100%">
    <stop offset="0" stop-color="#ffe56c" />
    <stop offset="1" stop-color="#ffc63a" />
  </linearGradient>
  <g fill="none" fill-rule="evenodd" transform="translate(-34 -24)">
    <path d="M103.95 258.274c44.362-4.36 60.015-40.391 65.354-94.7s-30.933-103.45-46.02-101.967c-15.089 1.483-63.04 58.905-68.378 113.213-5.338 54.308 4.683 87.815 49.045 83.454z" fill="url(#b)" transform="rotate(-38 137.962 147.099)" />
    <path d="M275.877 258.274c44.361 4.36 53.167-29.265 47.828-83.573-5.338-54.309-52.073-111.611-67.161-113.094-15.088-1.483-52.575 47.54-47.236 101.848s22.207 90.458 66.569 94.819z" fill="url(#c)" transform="rotate(52 240.025 189.003)" />
    <path d="M188.37 216.876c39.942 0 50.953-38.252 50.953-97.898C239.323 59.33 201.955.876 188.37.876s-52.047 58.455-52.047 118.102c0 59.646 12.105 97.898 52.047 97.898z" fill="url(#d)" transform="rotate(7 8.977 277.799)" />
    <path d="M184.473 501C267.593 501 335 476.855 335 367.355S267.592 168 184.473 168C101.355 168 34 257.855 34 367.355S101.355 501 184.473 501z" fill="url(#e)" />
    <ellipse cx="260.5" cy="335" fill="#eaadcc" rx="21.5" ry="10" />
    <ellipse cx="102.5" cy="329" fill="#eaadcc" rx="21.5" ry="10" transform="rotate(7 102.5 329)" />
    <path d="M198.248 331.459c-6.47 5.259-13.946 7.404-22.423 6.435-8.477-.969-14.76-4.488-18.85-10.556" stroke="#000" stroke-linecap="round" stroke-linejoin="round" stroke-width="6" />
    <path d="M114.983 279.418a21.435 21.435 0 0 1 15.414 5.762 21.431 21.431 0 0 1 6.824 14.973 21.433 21.433 0 0 1-5.763 15.415 21.434 21.434 0 0 1-14.975 6.824 21.43 21.43 0 0 1-15.413-5.763 21.434 21.434 0 0 1-6.823-14.975 21.432 21.432 0 0 1 5.763-15.412 21.431 21.431 0 0 1 14.973-6.824z" fill="#000" />
    <path d="M116.111 297.39a7.001 7.001 0 0 0-13.991.488 7 7 0 0 0 13.991-.489z" fill="#fff" />
    <path d="M245.253 284.875a21.433 21.433 0 0 1 15.414 5.762 21.432 21.432 0 0 1 6.824 14.973 21.433 21.433 0 0 1-5.763 15.415 21.432 21.432 0 0 1-14.974 6.824 21.433 21.433 0 0 1-15.413-5.763 21.433 21.433 0 0 1-6.824-14.975 21.432 21.432 0 0 1 5.762-15.412 21.433 21.433 0 0 1 14.974-6.824z" fill="#000" />
    <g fill="#fff">
      <path d="M134.223 300.259c.356 10.212-7.633 18.778-17.844 19.134-10.211.357-18.777-7.63-19.134-17.843s7.632-18.777 17.842-19.134c10.212-.357 18.78 7.631 19.136 17.843zm5.996-.21c-.472-13.524-11.818-24.102-25.341-23.63s-24.101 11.817-23.63 25.34c.473 13.522 11.817 24.103 25.34 23.63 13.523-.471 24.103-11.816 23.631-25.34zm124.273 5.667c.357 10.21-7.63 18.778-17.843 19.134-10.21.357-18.777-7.63-19.134-17.843s7.632-18.777 17.843-19.134c10.212-.357 18.778 7.631 19.134 17.843zm5.997-.21c-.472-13.524-11.817-24.102-25.34-23.63-13.522.473-24.103 11.817-23.63 25.34.472 13.522 11.817 24.103 25.34 23.63 13.524-.472 24.102-11.816 23.63-25.34z" fill-rule="nonzero" stroke="#fff" stroke-width="3" />
      <path d="M246.381 302.846a7 7 0 1 0-13.992.49 7 7 0 0 0 13.992-.49z" />
    </g>
    <g stroke-linecap="round" stroke-width="11">
      <path d="m70.5 377.5 74 77m-10-68-47 50m210-59-74 77m10-68 47 50" stroke="#ecb732" />
      <path d="m214.5 207.5-49 49m39 0-49-49" stroke="#ffc73b" />
    </g>
  </g>
</svg>