<svg xmlns="http://www.w3.org/2000/svg" fill="none" viewBox="0 0 96 96" id="Pulumi-Icon--Streamline-Svg-Logos">
  <desc>
    Pulumi Icon Streamline Icon: https://streamlinehq.com
  </desc>
  <path fill="#f26e7e" d="M18.7321 53.3272c3.4765 -2.0072 3.4823 -8.5056 0.0129 -14.5146s-9.10016 -9.2531 -12.57669 -7.2459C2.69178 33.574 2.686 40.0724 6.1554 46.0814c3.4694 6.0091 9.1002 9.2531 12.5767 7.2458Zm0.0208 12.8668c3.4694 6.0091 3.4637 12.5075 -0.0129 14.5147 -3.4766 2.0072 -9.10731 -1.2369 -12.5767 -7.2458 -3.46941 -6.009 -3.46363 -12.5075 0.0129 -14.5147 3.47653 -2.0072 9.1073 1.2369 12.5767 7.2458Zm23.6915 13.6972c3.4694 6.009 3.4636 12.5071 -0.0129 14.515 -3.4765 2.0071 -9.1074 -1.2373 -12.5768 -7.2462 -3.4693 -6.009 -3.4635 -12.5074 0.013 -14.5147 3.4765 -2.0072 9.1073 1.2369 12.5767 7.2459Zm-0.0077 -27.3811c3.4694 6.009 3.4636 12.5074 -0.0129 14.5147 -3.4765 2.0072 -9.1073 -1.2369 -12.5767 -7.2459 -3.4694 -6.009 -3.4636 -12.5074 0.0129 -14.5146 3.4765 -2.0073 9.1073 1.2368 12.5767 7.2458Z" stroke-width="1"></path>
  <path fill="#8a3391" d="M89.831 46.0965c3.469 -6.0089 3.4637 -12.5074 -0.0129 -14.5146 -3.4765 -2.0073 -9.1073 1.2368 -12.5767 7.2459 -3.4694 6.009 -3.4636 12.5073 0.0129 14.5146 3.4765 2.0073 9.1073 -1.2368 12.5767 -7.2459Zm0.0007 12.8604c3.4763 2.0072 3.4825 8.5056 0.0129 14.5146 -3.4694 6.009 -9.1002 9.2531 -12.5767 7.2458 -3.4765 -2.0072 -3.4823 -8.5057 -0.0129 -14.5146 3.4694 -6.009 9.1002 -9.2531 12.5767 -7.2458ZM66.1449 72.6315c3.4766 2.0073 3.4824 8.5057 0.013 14.5147 -3.4694 6.0085 -9.1003 9.2529 -12.5768 7.2458 -3.4765 -2.007 -3.4823 -8.5057 -0.0129 -14.5146 3.4695 -6.0091 9.1002 -9.2532 12.5767 -7.2459Zm-0.0133 -27.3751c3.4765 2.0072 3.4823 8.5057 0.0129 14.5147s-9.1002 9.2531 -12.5768 7.2459c-3.4765 -2.0073 -3.4823 -8.5057 -0.0129 -14.5147 3.4694 -6.0091 9.1002 -9.2531 12.5768 -7.2459Z" stroke-width="1"></path>
  <path fill="#f7bf2a" d="M60.5529 8.26884c0 4.01446 -5.625 7.26886 -12.5638 7.26886 -6.9388 0 -12.5638 -3.2544 -12.5638 -7.26886C35.4253 4.25436 41.0503 1 47.9891 1c6.9388 0 12.5638 3.25436 12.5638 7.26884ZM36.8664 21.9295c0 4.0145 -5.625 7.2688 -12.5638 7.2688 -6.9388 0 -12.5638 -3.2543 -12.5638 -7.2688s5.625 -7.2689 12.5638 -7.2689c6.9388 0 12.5638 3.2544 12.5638 7.2689Zm34.8402 7.2688c6.9388 0 12.5638 -3.2543 12.5638 -7.2688s-5.625 -7.2689 -12.5638 -7.2689c-6.9388 0 -12.5638 3.2544 -12.5638 7.2689s5.625 7.2688 12.5638 7.2688Zm-11.1537 6.4225c0 4.0145 -5.625 7.2688 -12.5638 7.2688 -6.9388 0 -12.5638 -3.2543 -12.5638 -7.2688 0 -4.0144 5.625 -7.2688 12.5638 -7.2688 6.9388 0 12.5638 3.2544 12.5638 7.2688Z" stroke-width="1"></path>
</svg>