<svg xmlns="http://www.w3.org/2000/svg" fill="none" viewBox="0 0 96 96" id="Nuxt-Icon--Streamline-Svg-Logos">
  <desc>
    Nuxt Icon Streamline Icon: https://streamlinehq.com
  </desc>
  <path fill="#00dc82" d="M53.7348 78.6654h34.9437c1.11 0 2.2003 -0.2831 3.1614 -0.8215 0.9612 -0.5384 1.7593 -1.3126 2.314 -2.2451 0.5546 -0.9324 0.8461 -1.9901 0.8461 -3.0667s-0.2932 -2.134 -0.8489 -3.0661L70.684 30.039c-0.5547 -0.9322 -1.3527 -1.7064 -2.3137 -2.2446 -0.961 -0.5383 -2.0511 -0.8216 -3.1607 -0.8216 -1.1097 0 -2.1999 0.2833 -3.1608 0.8216 -0.961 0.5382 -1.7589 1.3124 -2.3136 2.2446l-6.0004 10.088 -11.732 -19.7267c-0.555 -0.9322 -1.3533 -1.7062 -2.3145 -2.2444 -0.9613 -0.5381 -2.0517 -0.8214 -3.1614 -0.8214 -1.1098 0 -2.2001 0.2833 -3.1615 0.8214 -0.9612 0.5382 -1.7594 1.3122 -2.3145 2.2444L1.84877 69.466C1.29322 70.3981 1 71.4555 1 72.5321s0.2913 2.1343 0.84601 3.0667c0.55471 0.9325 1.35279 1.7067 2.31394 2.2451 0.96117 0.5384 2.05154 0.8215 3.16144 0.8215H29.2561c8.6909 0 15.1 -3.7028 19.5101 -10.9269L59.473 49.7526l5.7348 -9.6256L82.4193 69.04H59.473l-5.7382 9.6254Zm-24.8363 -9.6353 -15.3076 -0.0034L36.537 30.4784l11.4494 19.2742 -7.6659 12.8825c-2.9286 4.6872 -6.2558 6.395 -11.422 6.395Z" stroke-width="1"></path>
</svg>