<svg xmlns="http://www.w3.org/2000/svg" fill="none" viewBox="0 0 96 96" id="Trpc--Streamline-Svg-Logos">
  <desc>
    Trpc Streamline Icon: https://streamlinehq.com
  </desc>
  <path fill="#398ccb" d="M17.3066 76.4717h6.7856v3.443h-6.7856v7.8123c-0.0137 0.5606 0.0632 1.1198 0.2277 1.6559 0.1246 0.3979 0.3461 0.7587 0.6446 1.0499 0.2878 0.271 0.6377 0.4672 1.019 0.5712 0.3811 0.1017 0.7727 0.1572 1.1666 0.1654l0.1689 0.0006c0.3551 0 0.7218 0 1.1001 -0.0502l0.2243 -0.0277 0.4349 -0.0493c0.1424 -0.0167 0.2826 -0.0349 0.4215 -0.0581l0.2037 -0.0323 0.3833 -0.0569c0.1236 -0.0187 0.2437 -0.0381 0.3626 -0.0613l0.2833 -0.0568c0.045 -0.0092 0.0888 -0.0185 0.1316 -0.0276l0.2441 -0.0545c0.0386 -0.0091 0.0763 -0.0181 0.1129 -0.0271l0.4555 3.2076c-0.3666 0.2068 -0.7549 0.3725 -1.1579 0.494 -0.4567 0.1444 -0.9221 0.2591 -1.3935 0.3436 -0.494 0.0926 -1.0074 0.1621 -1.5439 0.2122 -0.5365 0.0502 -1.0537 0.0734 -1.571 0.0734 -0.9152 0.0132 -1.8269 -0.1171 -2.7019 -0.386 -0.7796 -0.2428 -1.491 -0.666 -2.0766 -1.2352 -0.6031 -0.5905 -1.0581 -1.3153 -1.3278 -2.1152 -0.3354 -0.994 -0.4948 -2.039 -0.4709 -3.0878v-8.2601H8.48682v-3.443h4.14938v-4.4504h4.6704v4.4504Zm16.6321 9.0359v9.1401h-4.7206V70.1878h8.2176c1.2427 -0.0154 2.4812 0.1458 3.6785 0.4787 1.0222 0.2822 1.9803 0.7593 2.8215 1.4049 0.7737 0.6167 1.3868 1.4112 1.7872 2.316 0.4394 1.0057 0.6554 2.0948 0.633 3.1921 0.0103 0.7971 -0.095 1.5914 -0.3127 2.3583 -0.373 1.3333 -1.1764 2.5058 -2.285 3.3349 -0.5643 0.4272 -1.1755 0.7885 -1.8219 1.0769l5.2572 10.0936v0.22h-5.0757l-4.601 -9.1556h-3.5781Zm0.0039 -3.8367h3.4931c0.6566 0.0128 1.3102 -0.0918 1.93 -0.3088 0.5185 -0.1841 0.9838 -0.493 1.3548 -0.8993 0.289 -0.3222 0.5108 -0.6988 0.6523 -1.1078 0.1383 -0.4193 0.2135 -0.8566 0.2233 -1.2974l0.0006 -0.1655c0.0115 -0.5872 -0.0881 -1.1713 -0.2934 -1.7215 -0.1845 -0.4793 -0.4872 -0.9042 -0.88 -1.2351 -0.378 -0.3051 -0.8121 -0.5332 -1.2776 -0.6717 -0.4992 -0.1454 -1.0151 -0.2243 -1.5344 -0.2347l-3.6687 -0.0007v7.6425Zm20.9436 12.9768h-4.7129V70.1878h8.3643c1.2287 -0.0174 2.4511 0.1785 3.6128 0.579 1.0147 0.3502 1.9509 0.8957 2.7559 1.6057 0.7491 0.6958 1.3412 1.5432 1.737 2.4858 0.393 0.9531 0.6011 1.9717 0.6138 3.0014l-0.0001 0.2061c0.0108 1.0457 -0.1983 2.0819 -0.6137 3.0416 -0.3996 0.9158 -0.9921 1.7347 -1.737 2.4008 -0.8078 0.7103 -1.7484 1.2534 -2.7675 1.598 -1.1626 0.396 -2.3847 0.5892 -3.6128 0.5712h-3.6437l0.0039 8.9703Zm0 -12.7992h3.6437c0.597 0.012 1.1907 -0.0916 1.7485 -0.305 0.4675 -0.1835 0.8911 -0.4636 1.2429 -0.8221 0.3229 -0.3459 0.5712 -0.7545 0.7295 -1.2004 0.1637 -0.4557 0.2472 -0.9363 0.247 -1.4205 0.0036 -0.5411 -0.0798 -1.0794 -0.247 -1.5941 -0.1527 -0.4773 -0.4009 -0.9186 -0.7295 -1.2969 -0.3472 -0.3763 -0.771 -0.6738 -1.2429 -0.8723 -0.555 -0.2246 -1.15 -0.3336 -1.7485 -0.3204h-3.6437v7.8317Zm31.809 8.4646c-0.4322 0.9538 -1.0517 1.8109 -1.8218 2.5205 -0.7919 0.71 -1.7169 1.2557 -2.7212 1.6057 -1.0501 0.3597 -2.1505 0.5486 -3.2593 0.56l-0.2377 -0.0003c-0.9456 0.0112 -1.8875 -0.1189 -2.7946 -0.386 -0.8294 -0.2476 -1.612 -0.631 -2.3159 -1.1348 -0.6368 -0.4682 -1.2002 -1.0289 -1.6713 -1.6636 -0.496 -0.6648 -0.9107 -1.3866 -1.2352 -2.1499 -0.3382 -0.8336 -0.5879 -1.7004 -0.7449 -2.5861 -0.1784 -0.9871 -0.2663 -1.9884 -0.2627 -2.9914v-3.2925c-0.002 -0.9429 0.0768 -1.8843 0.2357 -2.8138 0.1307 -0.7544 0.3323 -1.4946 0.602 -2.2107l0.1043 -0.2674c0.3412 -0.8958 0.8177 -1.7341 1.4127 -2.4857 0.5637 -0.7109 1.2312 -1.3329 1.9801 -1.845 0.6729 -0.4342 1.4065 -0.7659 2.177 -0.9843 0.7519 -0.2142 1.5282 -0.3293 2.3092 -0.3426l0.2344 -0.0009c1.2195 -0.0209 2.4332 0.1725 3.5858 0.5713 2.0189 0.6936 3.6353 2.2325 4.4273 4.2149 0.4441 1.0995 0.7161 2.2607 0.8067 3.443h-4.7013c-0.0277 -0.6542 -0.1366 -1.3025 -0.3242 -1.9299 -0.1515 -0.5063 -0.4065 -0.9755 -0.7488 -1.378 -0.3473 -0.3658 -0.7757 -0.6448 -1.2506 -0.8144 -0.576 -0.1975 -1.1823 -0.2916 -1.791 -0.2779 -0.3483 -0.0013 -0.6956 0.0389 -1.0344 0.1196 -0.3084 0.0753 -0.6047 0.1935 -0.8801 0.3513 -0.4722 0.2889 -0.8691 0.6857 -1.158 1.1579 -0.3379 0.5411 -0.5978 1.1271 -0.7719 1.7408 -0.1524 0.559 -0.2583 1.1296 -0.3165 1.7061 -0.0705 0.6667 -0.104 1.3367 -0.1004 2.0071v3.3233c-0.0077 0.8737 0.0452 1.7468 0.1583 2.6132 0.0864 0.6859 0.2522 1.3594 0.494 2.0071 0.1454 0.3687 0.3346 0.7187 0.5636 1.0422 0.206 0.2963 0.4589 0.557 0.7488 0.7719 0.3051 0.2257 0.6493 0.3932 1.0151 0.4941 0.4072 0.1124 0.8282 0.167 1.2506 0.1621 0.5633 0.0067 1.1243 -0.0727 1.6636 -0.2354 0.4726 -0.1456 0.9048 -0.3993 1.2622 -0.7411 0.3669 -0.3645 0.6477 -0.8063 0.8221 -1.2931 0.2233 -0.6101 0.3534 -1.2502 0.386 -1.899h4.7206c-0.0681 1.1446 -0.3454 2.2671 -0.8183 3.3117Z" stroke-width="1"></path>
  <path fill="#398ccb" d="m66.0221 29.5243 11.8806 6.859V50.109l-11.8806 6.8589 -5.2741 -3.05 -12.8248 7.4039 -12.7479 -7.3615 -5.2004 3.0076 -11.8807 -6.8705V36.3833l11.8807 -6.859 11.8806 6.859v13.7141l-3.5943 2.0785 9.662 5.5794 9.7388 -5.6219 -3.5206 -2.036V36.3833l11.8807 -6.859Zm-8.7928 10.4332v8.3721l7.2488 4.184v-8.372l-7.2488 -4.1841Zm17.5855 -0.0115L67.566 44.13v8.3836l7.2488 -4.1956v-8.372Zm-53.6327 0v8.372l7.2488 4.1841V44.13l-7.2488 -4.184Zm17.5855 0 -7.2488 4.184v8.3721l7.2488 -4.1841v-8.372Zm27.2545 -6.8474 -7.2488 4.1841 7.2488 4.1879 7.2488 -4.1879 -7.2488 -4.1841Zm-36.0472 -0.0116 -7.2488 4.1957 7.2488 4.1763 7.2488 -4.1763 -7.2488 -4.1957Zm5.9094 -21.2755v3.5626l-10.9929 6.3495v10.7342l-3.0878 1.7833V19.9403l14.0807 -8.1288ZM47.765 1l11.8883 6.85897v3.77183l14.3896 8.3095v14.212l-3.0879 -1.7832V21.7236l-11.3017 -6.5263v6.3796l-11.8806 6.859 -11.8807 -6.859V7.85897L47.765 1Zm-8.7851 10.4216v8.372l7.2411 4.1841v-8.3681l-7.2411 -4.188Zm17.5778 0 -7.2411 4.188v8.3643l7.2411 -4.1803v-8.372ZM47.765 4.56651l-7.2411 4.18408 7.2411 4.18411 7.2488 -4.18411 -7.2488 -4.18408Z" stroke-width="1"></path>
</svg>